<svg width="285" height="180" viewBox="0 0 285 180" fill="none" xmlns="http://www.w3.org/2000/svg">
<path fill-rule="evenodd" clip-rule="evenodd" d="M77.5 168.999C80.7428 168.999 83.924 168.73 87.0232 168.214C98.9815 175.03 112.791 178.932 127.5 178.932C145.199 178.932 161.596 173.283 175.032 163.704C182.638 168.288 191.517 170.933 201 170.933C229.167 170.933 252 147.599 252 119.433C252 92.6841 231.408 70.2943 205.211 68.1077C193.811 36.0713 163.322 12.9316 127.5 12.9316C96.6567 12.9316 69.7666 30.0863 55.6111 55.304C34.1463 64.1088 19 85.4296 19 109.999C19 142.308 45.1913 168.999 77.5 168.999Z" fill="url(#paint0_radial_664_64936)"/>
<path fill-rule="evenodd" clip-rule="evenodd" d="M37.0861 100.32L56.8705 109.259C59.5084 110.451 61.1194 113.242 60.861 116.173L58.9228 138.15C58.6643 141.08 56.5952 143.483 53.7976 144.102L32.8153 148.745C30.0176 149.364 27.1278 148.059 25.6572 145.511L14.6277 126.403C13.1571 123.855 13.4402 120.645 15.3289 118.452L29.4946 101.999C31.3834 99.8058 34.4482 99.1276 37.0861 100.32Z" fill="#EEEEFF"/>
<path d="M40.4653 110.442C40.7992 110.368 41.1311 110.564 41.2418 110.887L41.2634 110.963L41.9989 114.287L42.3243 114.215C44.1218 113.817 45.9082 114.983 46.3144 116.819L46.388 117.151L49.5308 116.456C49.8903 116.376 50.2476 116.609 50.3288 116.976C50.4043 117.317 50.2152 117.654 49.8999 117.764L49.825 117.785L46.6822 118.481L47.1235 120.475L50.2663 119.779C50.6258 119.7 50.9831 119.933 51.0643 120.3C51.1398 120.641 50.9507 120.978 50.6354 121.088L50.5605 121.109L47.4177 121.804L47.859 123.799L51.0018 123.103C51.3613 123.024 51.7186 123.257 51.7998 123.624C51.8753 123.965 51.6862 124.301 51.3709 124.412L51.296 124.433L48.1532 125.128L48.5945 127.123L51.7373 126.427C52.0968 126.348 52.4541 126.581 52.5353 126.948C52.6108 127.289 52.4217 127.625 52.1064 127.735L52.0315 127.757L48.8887 128.452L48.9622 128.784C49.3684 130.62 48.2406 132.431 46.4431 132.828L46.1177 132.901L46.8279 136.11C46.9091 136.477 46.6836 136.839 46.3241 136.919C45.9903 136.993 45.6584 136.797 45.5476 136.475L45.5261 136.398L44.8158 133.189L42.8631 133.621L43.5733 136.83C43.6545 137.198 43.429 137.56 43.0695 137.639C42.7357 137.713 42.4038 137.517 42.293 137.195L42.2715 137.118L41.5612 133.909L39.6085 134.341L40.3187 137.551C40.3999 137.918 40.1744 138.28 39.8149 138.359C39.4811 138.433 39.1491 138.237 39.0384 137.915L39.0169 137.839L38.3066 134.629L36.3539 135.061L37.0641 138.271C37.1453 138.638 36.9198 139 36.5603 139.08C36.2265 139.153 35.8945 138.958 35.7838 138.635L35.7622 138.559L35.052 135.349L34.7265 135.421C32.9291 135.819 31.1426 134.653 30.7364 132.817L30.6629 132.485L27.4083 133.205C27.0488 133.285 26.6915 133.052 26.6103 132.685C26.5348 132.344 26.7239 132.007 27.0392 131.897L27.1141 131.876L30.3687 131.156L29.9274 129.161L26.6728 129.881C26.3133 129.961 25.956 129.728 25.8748 129.361C25.7993 129.02 25.9884 128.683 26.3037 128.573L26.3786 128.552L29.6332 127.832L29.1919 125.837L25.9373 126.558C25.5778 126.637 25.2205 126.404 25.1393 126.037C25.0638 125.696 25.2529 125.359 25.5682 125.249L25.6431 125.228L28.8977 124.508L28.4564 122.514L25.2018 123.234C24.8423 123.313 24.485 123.08 24.4038 122.713C24.3283 122.372 24.5174 122.035 24.8327 121.925L24.9076 121.904L28.1622 121.184L28.0886 120.852C27.6824 119.016 28.8103 117.205 30.6077 116.808L30.9332 116.736L30.1977 113.412C30.1165 113.045 30.342 112.682 30.7015 112.603C31.0353 112.529 31.3673 112.725 31.478 113.047L31.4995 113.124L32.235 116.447L34.1878 116.015L33.4523 112.692C33.3711 112.324 33.5966 111.962 33.9561 111.883C34.2899 111.809 34.6219 112.005 34.7326 112.327L34.7542 112.403L35.4897 115.727L37.4424 115.295L36.7069 111.971C36.6257 111.604 36.8512 111.242 37.2107 111.163C37.5446 111.089 37.8765 111.284 37.9872 111.607L38.0088 111.683L38.7443 115.007L40.697 114.575L39.9615 111.251C39.8803 110.884 40.1058 110.522 40.4653 110.442ZM42.6185 115.544L30.9019 118.137C29.862 118.367 29.1956 119.386 29.3679 120.446L29.3905 120.564L32.0383 132.529C32.2733 133.591 33.2784 134.28 34.3169 134.114L34.4323 134.092L35.3976 133.878C35.4013 133.877 35.405 133.876 35.4087 133.876L35.4198 133.873L38.6522 133.158C38.6559 133.157 38.6596 133.156 38.6633 133.155L38.6744 133.153L41.9068 132.438C41.9105 132.437 41.9142 132.436 41.9179 132.435L41.929 132.433L45.1614 131.718C45.1651 131.717 45.1688 131.716 45.1725 131.715L45.1836 131.713L46.1489 131.499C47.1889 131.269 47.8553 130.25 47.683 129.19L47.6604 129.073L47.4424 128.087C47.4415 128.083 47.4406 128.079 47.4397 128.075L47.4372 128.064L46.7069 124.763C46.706 124.759 46.7051 124.755 46.7042 124.752L46.7017 124.74L45.9714 121.439C45.9705 121.435 45.9696 121.432 45.9687 121.428L45.9662 121.416L45.2359 118.115C45.235 118.111 45.2341 118.108 45.2332 118.104L45.2307 118.093L45.0126 117.107C44.7776 116.045 43.7725 115.356 42.734 115.522L42.6185 115.544Z" fill="#4F0599"/>
<path d="M41.2545 118.637C41.9734 118.478 42.688 118.944 42.8505 119.678L44.6157 127.656C44.7782 128.39 44.327 129.114 43.6081 129.273L35.797 131.002C35.078 131.161 34.3634 130.694 34.201 129.96L32.4358 121.983C32.2733 121.249 32.7244 120.524 33.4434 120.365L41.2545 118.637ZM41.5487 119.966L33.7376 121.695L35.5028 129.672L43.3139 127.944L41.5487 119.966Z" fill="#AE5DF6"/>
<path fill-rule="evenodd" clip-rule="evenodd" d="M106.781 11.8393L118.894 23.0106C120.509 24.5001 120.986 26.8699 120.077 28.8806L113.257 43.9609C112.348 45.9716 110.258 47.1659 108.081 46.919L91.7535 45.0679C89.5765 44.8211 87.8072 43.1894 87.3711 41.0261L84.1002 24.8018C83.6641 22.6385 84.6603 20.4358 86.5677 19.3456L100.874 11.1696C102.781 10.0794 105.166 10.3498 106.781 11.8393Z" fill="#EEEEFF"/>
<path d="M102.846 20.1614C108.161 20.764 111.981 25.5613 111.379 30.8764C110.776 36.1915 105.979 40.0118 100.664 39.4092C95.3487 38.8066 91.5285 34.0093 92.1311 28.6942C92.7337 23.3791 97.5309 19.5588 102.846 20.1614ZM102.731 21.1745C98.7598 20.7242 95.1115 23.0337 93.7023 26.5772C93.14 26.9008 92.8031 27.2921 92.7524 27.7386C92.7127 28.0895 92.8529 28.4467 93.1456 28.7976L93.1441 28.809C92.6049 33.5647 96.0231 37.857 100.779 38.3961C105.534 38.9353 109.827 35.5172 110.366 30.7616C110.366 30.7575 110.367 30.7535 110.367 30.7494C110.731 30.4733 110.947 30.1567 110.987 29.8059C111.038 29.3594 110.797 28.9027 110.321 28.462C109.741 24.6923 106.703 21.6247 102.731 21.1745Z" fill="#4F0599"/>
<path d="M102.272 25.2268L102.74 25.2822C108.445 25.9839 111.758 27.4326 111.495 29.8514L111.494 29.8636C111.399 30.699 110.881 31.3448 110.022 31.7846C109.771 31.9129 109.464 31.8138 109.336 31.5632C109.208 31.3126 109.307 31.0054 109.557 30.8771C110.133 30.5825 110.428 30.2145 110.481 29.7487L110.48 29.7538L110.481 29.7487C110.662 28.151 107.554 26.8518 102.157 26.2399L101.686 26.189C96.6443 25.6704 93.5301 26.2281 93.2689 27.7264L93.259 27.7906L93.2589 27.7962C93.2099 28.2285 93.3832 28.6253 93.8037 29.0126L93.8976 29.0954C94.1125 29.2774 94.1392 29.599 93.9573 29.8139C93.7753 30.0288 93.4537 30.0554 93.2388 29.8735C92.5079 29.2546 92.1517 28.5123 92.2459 27.6814C92.5283 25.1897 96.2702 24.5464 102.272 25.2268Z" fill="#AE5DF6"/>
<path d="M101.296 33.8326C101.556 33.8621 101.748 34.0819 101.748 34.3371L101.745 34.3966L101.292 38.3982C102.699 38.2514 104.145 36.8796 105.157 34.6405C105.273 34.3839 105.575 34.27 105.832 34.386C106.088 34.502 106.202 34.804 106.086 35.0605C104.814 37.8735 102.838 39.5778 100.789 39.4215L100.664 39.4096C98.5691 39.1721 96.9729 37.0424 96.3515 33.9514C96.2961 33.6754 96.4748 33.4067 96.7508 33.3512C97.0269 33.2957 97.2956 33.4745 97.3511 33.7505C97.8359 36.1621 98.9384 37.825 100.278 38.2834L100.732 34.2817C100.764 34.002 101.016 33.8009 101.296 33.8326ZM102.846 20.1618C105.661 20.481 107.525 24.207 107.432 28.8432C107.426 29.1247 107.194 29.3483 106.912 29.3427C106.631 29.337 106.407 29.1043 106.413 28.8228C106.49 24.9769 105.127 21.9359 103.232 21.2879L102.43 28.3519C102.399 28.6316 102.146 28.8327 101.867 28.801C101.607 28.7715 101.415 28.5517 101.414 28.2965L101.417 28.237L102.218 21.173C100.226 21.3801 98.2178 24.0378 97.4314 27.8023C97.3738 28.0778 97.1037 28.2546 96.8282 28.197C96.5526 28.1394 96.3758 27.8694 96.4334 27.5938C97.3814 23.0557 100.031 19.8427 102.846 20.1618Z" fill="#4F0599"/>
<path d="M98.844 29.4719L98.8981 29.4968C99.1288 29.6198 99.2264 29.8947 99.1332 30.1323L99.1083 30.1864L98.0773 32.1217C97.8652 32.52 97.2894 32.4616 97.1473 32.0543L97.1301 31.9937L96.9607 31.2415L96.5895 31.95C96.3819 32.3458 95.8129 32.2966 95.6624 31.8973L95.6431 31.8348L95.1242 29.7239C95.057 29.4505 95.2242 29.1744 95.4976 29.1072C95.7515 29.0448 96.0077 29.1844 96.0968 29.4236L96.1143 29.4805L96.312 30.2846L96.7029 29.5394C96.9133 29.1384 97.4918 29.1952 97.6344 29.6037L97.6517 29.6645L97.8232 30.4302L98.2085 29.7071C98.3314 29.4763 98.6064 29.3787 98.844 29.4719ZM103.403 29.9888L103.457 30.0137C103.687 30.1366 103.785 30.4116 103.692 30.6492L103.667 30.7033L102.636 32.6385C102.424 33.0368 101.848 32.9785 101.706 32.5711L101.689 32.5106L101.519 31.7584L101.148 32.4668C100.941 32.8626 100.372 32.8135 100.221 32.4142L100.202 32.3516L99.6829 30.2407C99.6157 29.9673 99.7829 29.6912 100.056 29.624C100.31 29.5616 100.566 29.7013 100.655 29.9404L100.673 29.9973L100.871 30.8014L101.262 30.0562C101.472 29.6552 102.05 29.712 102.193 30.1206L102.21 30.1813L102.382 30.9471L102.767 30.2239C102.89 29.9932 103.165 29.8955 103.403 29.9888ZM107.961 30.5056L108.015 30.5305C108.246 30.6534 108.344 30.9284 108.251 31.166L108.226 31.2201L107.195 33.1553C106.983 33.5537 106.407 33.4953 106.265 33.088L106.247 33.0274L106.078 32.2752L105.707 32.9836C105.499 33.3795 104.93 33.3303 104.78 32.931L104.76 32.8685L104.242 30.7575C104.174 30.4841 104.342 30.208 104.615 30.1408C104.869 30.0784 105.125 30.2181 105.214 30.4573L105.232 30.5142L105.429 31.3182L105.82 30.5731C106.031 30.1721 106.609 30.2289 106.752 30.6374L106.769 30.6982L106.941 31.4639L107.326 30.7408C107.449 30.51 107.724 30.4124 107.961 30.5056Z" fill="#AE5DF6"/>
<path fill-rule="evenodd" clip-rule="evenodd" d="M262.904 88.6521L267.785 104.39C268.436 106.489 267.661 108.779 265.866 110.063L252.405 119.693C250.611 120.977 248.204 120.962 246.444 119.658L233.244 109.871C231.484 108.566 230.771 106.267 231.478 104.177L236.781 88.4985C237.488 86.4081 239.454 85.0015 241.651 85.0144L258.128 85.1113C260.325 85.1242 262.253 86.5537 262.904 88.6521Z" fill="#EEEEFF"/>
<path d="M243.021 99.3512C242.886 99.5337 243.126 100.214 243.837 101.14C244.648 102.197 245.929 103.411 247.434 104.527C248.939 105.643 250.473 106.516 251.719 106.985C252.769 107.379 253.475 107.424 253.649 107.266L253.668 107.245L254.487 107.852C253.547 109.12 250.24 107.876 246.827 105.346L246.506 105.104C243.333 102.679 241.358 100.059 242.16 98.8056L242.202 98.744L243.021 99.3512ZM245.754 95.6658C245.619 95.8483 245.858 96.5285 246.569 97.455C247.38 98.5117 248.661 99.7251 250.166 100.841C251.672 101.957 253.205 102.83 254.452 103.299C255.501 103.694 256.207 103.739 256.382 103.58L256.401 103.559L257.22 104.167C256.28 105.434 252.972 104.191 249.559 101.66L249.238 101.418C246.065 98.9934 244.09 96.3735 244.892 95.1201L244.935 95.0586L245.754 95.6658Z" fill="#AE5DF6"/>
<path d="M255.024 94.2894C258.437 96.8201 260.588 99.6232 259.648 100.891L251.92 111.314C250.898 112.693 247.489 111.548 244.094 109.031C240.772 106.568 238.7 103.703 239.588 102.275L239.635 102.206L247.364 91.7828L247.378 91.7633C248.307 90.5674 251.421 91.695 254.699 94.0523L255.024 94.2894ZM252.397 98.6815L252.313 98.6214L252.257 98.5815C252.168 98.5167 252.078 98.451 251.988 98.3843L251.989 98.3853L251.985 98.3822C251.92 98.3342 251.856 98.286 251.792 98.2378C251.786 98.2329 251.779 98.2277 251.772 98.2226L251.792 98.2378C251.661 98.1384 251.531 98.0387 251.403 97.9387C251.393 97.9301 251.381 97.9214 251.37 97.9127C251.33 97.8812 251.291 97.8497 251.251 97.8182C251.147 97.7357 251.045 97.6531 250.945 97.5704C250.911 97.543 250.878 97.5156 250.845 97.4882C250.825 97.4715 250.805 97.4548 250.785 97.4382C250.674 97.3454 250.565 97.2524 250.458 97.1595C250.436 97.1405 250.414 97.1215 250.392 97.1024C250.36 97.0742 250.328 97.0461 250.296 97.018C250.271 96.9957 250.246 96.9735 250.221 96.9513C250.07 96.8163 249.923 96.6814 249.781 96.547C249.762 96.5288 249.743 96.5108 249.724 96.4927C249.634 96.4072 249.546 96.322 249.461 96.237C249.447 96.2236 249.434 96.21 249.42 96.1965C249.41 96.1864 249.4 96.1765 249.39 96.1665C249.334 96.1109 249.28 96.0555 249.226 96.0002C249.202 95.9748 249.177 95.9493 249.152 95.9238C249.129 95.8992 249.106 95.8747 249.082 95.8502C249.072 95.8397 249.062 95.8291 249.052 95.8184C249.02 95.7841 248.988 95.7502 248.957 95.7163C248.877 95.6291 248.798 95.5422 248.722 95.4557C248.706 95.438 248.691 95.4201 248.675 95.4021C248.657 95.3816 248.639 95.3609 248.622 95.3404C248.605 95.3204 248.588 95.3007 248.571 95.281C248.545 95.2507 248.52 95.2203 248.495 95.1901C248.443 95.1288 248.394 95.0679 248.345 95.0074L248.255 94.8928C248.25 94.886 248.245 94.8792 248.239 94.8725C248.227 94.8565 248.215 94.8406 248.203 94.8247C248.185 94.8016 248.168 94.7785 248.15 94.7555C248.134 94.7334 248.118 94.7117 248.102 94.69C248.08 94.661 248.059 94.6319 248.038 94.6028C248.029 94.5899 248.02 94.5771 248.011 94.5642C247.951 94.4811 247.895 94.3989 247.842 94.3176C247.83 94.2998 247.819 94.282 247.807 94.2642C247.79 94.2385 247.774 94.2128 247.758 94.1873C247.745 94.1666 247.732 94.1461 247.72 94.1256C247.712 94.1125 247.704 94.0993 247.696 94.086C247.676 94.0537 247.657 94.0216 247.639 93.9898C247.62 93.9564 247.601 93.9231 247.583 93.89C247.577 93.8805 247.572 93.8709 247.567 93.8613C247.551 93.8318 247.535 93.8025 247.52 93.7733C247.513 93.7607 247.507 93.7485 247.501 93.7362C247.487 93.709 247.473 93.6817 247.46 93.6546C247.434 93.6007 247.409 93.5478 247.386 93.4954L247.378 93.4756L240.467 102.797L240.443 102.831C239.992 103.556 241.807 106.067 244.701 108.212C247.639 110.39 250.599 111.384 251.101 110.707L258.025 101.369C256.888 101.24 255.338 100.575 253.667 99.5313C253.657 99.5248 253.647 99.5188 253.637 99.5127C253.448 99.3945 253.257 99.2709 253.065 99.1428C253.042 99.1274 253.019 99.1121 252.996 99.0967C252.77 98.9445 252.541 98.786 252.313 98.6214L252.416 98.6951C252.409 98.6906 252.403 98.686 252.397 98.6815ZM254.417 95.1084C252.911 93.9923 251.378 93.1191 250.131 92.6503C249.038 92.2392 248.318 92.2076 248.183 92.39C248.163 92.4169 248.151 92.4547 248.147 92.5024C248.147 92.5051 248.147 92.508 248.147 92.5109L248.147 92.5024C248.146 92.5279 248.146 92.5562 248.149 92.5872C248.152 92.6109 248.156 92.6365 248.161 92.6637C248.162 92.6714 248.164 92.6791 248.166 92.6868L248.161 92.6637C248.164 92.6812 248.168 92.6993 248.173 92.7181L248.166 92.6868C248.17 92.7068 248.175 92.7275 248.181 92.749L248.173 92.7181C248.178 92.7382 248.184 92.7589 248.19 92.7804L248.181 92.749C248.186 92.767 248.192 92.7856 248.198 92.8047L248.19 92.7804C248.202 92.8217 248.217 92.8656 248.235 92.912C248.24 92.9256 248.246 92.9392 248.251 92.953L248.235 92.912C248.244 92.9351 248.253 92.9589 248.263 92.9832L248.251 92.953C248.27 93.0011 248.292 93.0517 248.317 93.1046C248.336 93.1451 248.357 93.1866 248.379 93.2294C248.401 93.272 248.425 93.3157 248.45 93.3607C248.476 93.4071 248.503 93.4548 248.533 93.5037C248.562 93.5528 248.594 93.6033 248.627 93.6549L248.683 93.7407C248.722 93.7993 248.763 93.8593 248.807 93.9207C248.817 93.9344 248.826 93.948 248.836 93.9617L248.915 94.0693L248.998 94.1792C249.809 95.236 251.09 96.4493 252.595 97.5654L252.833 97.7395C252.886 97.7777 252.939 97.8156 252.991 97.8531C253.021 97.874 253.05 97.8945 253.079 97.915L252.991 97.8531C253.093 97.9256 253.195 97.9968 253.297 98.0669L253.079 97.915C253.156 97.9692 253.233 98.0227 253.31 98.0755L253.297 98.0669C253.365 98.1139 253.434 98.1605 253.502 98.2064L253.31 98.0755C253.392 98.1321 253.474 98.1879 253.556 98.2429L253.502 98.2064C253.584 98.262 253.667 98.3167 253.749 98.3705L253.556 98.2429C253.634 98.2948 253.711 98.346 253.789 98.3965L253.749 98.3705C253.819 98.4166 253.89 98.462 253.96 98.5067L253.789 98.3965C253.872 98.4506 253.955 98.5038 254.037 98.5561L253.96 98.5067C254.048 98.5631 254.136 98.6184 254.223 98.6727L254.037 98.5561C254.113 98.6039 254.188 98.6509 254.263 98.6972L254.223 98.6727C254.298 98.7186 254.372 98.7638 254.445 98.8082L254.263 98.6972C254.346 98.7481 254.428 98.798 254.51 98.8469L254.445 98.8082C254.518 98.8523 254.591 98.8957 254.664 98.9384L254.51 98.8469C254.588 98.8939 254.667 98.9399 254.744 98.9851L254.664 98.9384C254.739 98.9823 254.814 99.0253 254.888 99.0676L254.744 98.9851C254.827 99.0332 254.91 99.0802 254.992 99.1261L254.888 99.0676C254.962 99.1095 255.035 99.1506 255.109 99.1909L254.992 99.1261C255.068 99.1686 255.143 99.2101 255.218 99.2507L255.109 99.1909C255.186 99.2333 255.262 99.2747 255.338 99.3152L255.218 99.2507C255.3 99.2953 255.382 99.3388 255.463 99.3811L255.338 99.3152C255.413 99.3552 255.488 99.3942 255.562 99.4322L255.463 99.3811C255.531 99.4162 255.598 99.4505 255.664 99.4839L255.562 99.4322C255.641 99.4726 255.719 99.5118 255.797 99.5499L255.664 99.4839C255.745 99.5244 255.824 99.5637 255.903 99.6018L255.797 99.5499C255.868 99.5851 255.939 99.6192 256.009 99.6524L255.903 99.6018C255.973 99.6352 256.041 99.6676 256.11 99.6991L256.009 99.6524C256.085 99.6882 256.16 99.7228 256.235 99.7562L256.11 99.6991C256.182 99.7326 256.254 99.765 256.325 99.7963L256.235 99.7562C256.303 99.7869 256.371 99.8166 256.438 99.8453L256.325 99.7963C256.4 99.8293 256.475 99.8612 256.548 99.8917L256.438 99.8453C256.51 99.8763 256.582 99.9061 256.653 99.9347L256.723 99.9621L256.88 100.023C256.916 100.037 256.951 100.05 256.985 100.062C257.008 100.07 257.031 100.079 257.054 100.087L256.985 100.062C257.028 100.078 257.071 100.093 257.113 100.107L257.054 100.087C257.087 100.098 257.12 100.11 257.153 100.121L257.113 100.107C257.149 100.12 257.185 100.132 257.22 100.143L257.153 100.121C257.237 100.149 257.319 100.175 257.398 100.199C257.5 100.23 257.598 100.256 257.69 100.279C257.701 100.282 257.711 100.285 257.721 100.287L257.69 100.279C258.324 100.436 258.731 100.416 258.829 100.284L258.819 100.295L258.832 100.28C258.956 100.099 258.739 99.4682 258.097 98.6045L258.014 98.4945C257.203 97.4378 255.922 96.2244 254.417 95.1084Z" fill="#4F0599"/>
<g clip-path="url(#clip0_664_64936)">
<g filter="url(#filter0_d_664_64936)">
<path d="M38.5967 69.9578C37.7208 63.7253 42.0632 57.9628 48.2957 57.0869L215.313 33.6141C221.546 32.7382 227.308 37.0805 228.184 43.313L230.278 58.2135C230.615 60.6079 228.948 62.7814 226.756 63.8029C220.343 66.7922 216.345 73.7099 217.381 81.0811C218.417 88.4522 224.167 94 231.156 95.1058C233.544 95.4837 235.745 97.1135 236.082 99.5079L238.176 114.408C239.052 120.641 234.71 126.403 228.477 127.279L61.4595 150.752C55.227 151.628 49.4645 147.286 48.5885 141.053L46.4944 126.153C46.1579 123.758 47.8249 121.585 50.0164 120.563C56.4296 117.574 60.4275 110.656 59.3916 103.285C58.3556 95.9139 52.6058 90.3661 45.6171 89.2604C43.2289 88.8825 41.0274 87.2527 40.6909 84.8583L38.5967 69.9578Z" fill="white"/>
<path d="M48.1611 56.1292C41.3997 57.0795 36.6888 63.331 37.6391 70.0924L39.7332 84.9929C40.1481 87.9449 42.8119 89.7956 45.466 90.2155C52.0464 91.2567 57.4588 96.4813 58.434 103.42C59.4091 110.358 55.6465 116.872 49.6079 119.687C47.1723 120.822 45.1219 123.335 45.5368 126.287L47.6309 141.188C48.5811 147.949 54.8327 152.66 61.5941 151.71L228.612 128.237C235.373 127.287 240.084 121.035 239.134 114.274L237.04 99.3733C236.625 96.4213 233.961 94.5706 231.307 94.1506C224.726 93.1095 219.314 87.8848 218.339 80.9465C217.364 74.0082 221.126 67.4941 227.165 64.6794C229.6 63.5442 231.651 61.0309 231.236 58.0789L229.142 43.1785C228.192 36.417 221.94 31.7062 215.179 32.6564L48.1611 56.1292Z" stroke="#D4DAE7" stroke-width="1.9341"/>
</g>
<path d="M217.278 46.4735C216.515 46.5808 215.963 47.3018 216.068 48.0531L216.554 51.5087C216.626 52.0195 216.284 52.4659 215.765 52.5388L214.026 52.7832C213.263 52.8904 212.711 53.6115 212.821 54.3928C212.926 55.144 213.656 55.685 214.449 55.5735L218.294 55.0331C219.166 54.8186 219.736 54.0031 219.644 53.1274L218.88 47.6885C218.766 46.8772 218.041 46.3663 217.278 46.4735Z" fill="#EEEEFF"/>
<path d="M212.763 50.2346L212.277 46.779C212.205 46.2682 212.547 45.8218 213.066 45.7489L214.805 45.5044C215.568 45.3972 216.12 44.6761 216.01 43.8948C215.87 43.1178 215.175 42.6026 214.382 42.7141L210.537 43.2545C209.665 43.469 209.095 44.2846 209.187 45.1603L209.951 50.5991C210.057 51.3503 210.786 51.8913 211.549 51.7841C212.316 51.7069 212.868 50.9858 212.763 50.2346Z" fill="#EEEEFF"/>
<path d="M214.298 37.455L207.341 38.4328C204.9 38.7759 203.191 41.0079 203.528 43.4118L204.985 53.7786C205.623 58.3159 209.861 61.4587 214.469 60.8111L221.823 59.7775C223.904 59.3013 225.358 57.4728 225.311 55.3652L223.778 44.4574C223.144 39.9501 218.906 36.8074 214.298 37.455ZM222.422 55.4034C222.401 56.1417 221.902 56.7942 221.152 56.9915L214.103 57.9822C211.051 58.4111 208.237 56.3245 207.815 53.3196L206.387 43.1632C206.257 42.2316 206.91 41.3432 207.856 41.2102L214.691 40.2495C217.743 39.8207 220.557 41.9072 220.979 44.9121L222.453 55.3991L222.422 55.4034Z" fill="#EEEEFF"/>
<line x1="189.404" y1="125.077" x2="177.616" y2="41.2003" stroke="#D4DAE7" stroke-width="2" stroke-linecap="round" stroke-dasharray="8 8"/>
<path opacity="0.86" d="M88.3182 36.0208C88.6302 34.7149 89.9417 33.9092 91.2476 34.2211V34.2211C92.5535 34.5331 93.3592 35.8447 93.0472 37.1505L92.9217 37.676C92.6097 38.9819 91.2982 39.7876 89.9923 39.4756V39.4756C88.6864 39.1636 87.8807 37.8521 88.1927 36.5462L88.3182 36.0208Z" fill="#6DD0B3"/>
<path opacity="0.91" d="M119.351 44.0147C120.428 44.9661 120.531 46.611 119.579 47.6887V47.6887C118.628 48.7664 116.983 48.8689 115.905 47.9175L115.472 47.5347C114.394 46.5833 114.292 44.9384 115.243 43.8607V43.8607C116.194 42.783 117.839 42.6805 118.917 43.6319L119.351 44.0147Z" fill="#6DD0B3"/>
<path opacity="0.89" d="M166.92 62.1403C165.561 61.9631 164.604 60.7183 164.781 59.36V59.36C164.959 58.0018 166.203 57.0444 167.562 57.2217L168.108 57.2931C169.466 57.4703 170.424 58.7151 170.246 60.0734V60.0734C170.069 61.4316 168.824 62.3889 167.466 62.2117L166.92 62.1403Z" fill="#6DD0B3"/>
<path opacity="0.77" d="M195.373 76.9555C195.712 75.7266 196.983 75.0055 198.212 75.3449V75.3449C199.441 75.6842 200.162 76.9554 199.823 78.1843L199.686 78.6787C199.347 79.9075 198.076 80.6286 196.847 80.2893V80.2893C195.618 79.95 194.897 78.6787 195.236 77.4499L195.373 76.9555Z" fill="#6DD0B3"/>
<path opacity="0.92" d="M57.5141 38.0073C56.4536 38.8527 54.9086 38.6784 54.0632 37.618V37.618C53.2178 36.5576 53.3921 35.0126 54.4525 34.1671L54.8792 33.827C55.9396 32.9815 57.4846 33.1558 58.33 34.2163V34.2163C59.1755 35.2767 59.0012 36.8217 57.9408 37.6671L57.5141 38.0073Z" fill="#6DD0B3"/>
<path opacity="0.73" d="M75.074 46.0195C76.3952 46.6198 76.9795 48.1774 76.3792 49.4986V49.4986C75.7789 50.8197 74.2213 51.4041 72.9001 50.8038L72.3685 50.5622C71.0474 49.9619 70.4631 48.4043 71.0634 47.0831V47.0831C71.6637 45.762 73.2213 45.1776 74.5424 45.7779L75.074 46.0195Z" fill="#6DD0B3"/>
<path opacity="0.7" d="M125.143 58.5785C124.264 58.5104 123.606 57.7426 123.675 56.8637V56.8637C123.743 55.9848 124.511 55.3276 125.389 55.3958L125.743 55.4233C126.622 55.4914 127.279 56.2592 127.211 57.1381V57.1381C127.143 58.017 126.375 58.6742 125.496 58.606L125.143 58.5785Z" fill="#6DD0B3"/>
<path opacity="0.91" d="M160.186 66.6964C161.275 66.5518 162.275 67.3173 162.42 68.4063V68.4063C162.564 69.4953 161.799 70.4953 160.71 70.6399L160.271 70.698C159.183 70.8426 158.183 70.0771 158.038 68.9881V68.9881C157.893 67.8991 158.659 66.8992 159.748 66.7546L160.186 66.6964Z" fill="#6DD0B3"/>
<path opacity="0.97" d="M208.335 97.2178C209.363 96.5355 210.75 96.8161 211.432 97.8445V97.8445C212.115 98.8728 211.834 100.26 210.806 100.942L210.392 101.216C209.363 101.899 207.977 101.618 207.294 100.59V100.59C206.612 99.5615 206.893 98.1747 207.921 97.4924L208.335 97.2178Z" fill="#6DD0B3"/>
<path d="M49.4868 59.9647C48.2212 60.2701 46.9477 59.4916 46.6423 58.2259V58.2259C46.337 56.9603 47.1155 55.6868 48.3811 55.3814L48.8904 55.2586C50.156 54.9532 51.4295 55.7317 51.7349 56.9974V56.9974C52.0402 58.263 51.2617 59.5365 49.9961 59.8419L49.4868 59.9647Z" fill="#6DD0B3"/>
<path opacity="0.84" d="M66.6864 59.8681C67.2537 61.2332 66.6069 62.7997 65.2418 63.3669V63.3669C63.8767 63.9341 62.3102 63.2873 61.743 61.9222L61.5148 61.3729C60.9475 60.0078 61.5944 58.4414 62.9595 57.8742V57.8742C64.3245 57.3069 65.891 57.9537 66.4582 59.3188L66.6864 59.8681Z" fill="#6DD0B3"/>
<path opacity="0.81" d="M134.448 105.221C135.53 104.358 137.106 104.536 137.968 105.618V105.618C138.831 106.699 138.653 108.275 137.571 109.138L137.136 109.485C136.054 110.347 134.479 110.169 133.616 109.087V109.087C132.754 108.006 132.932 106.43 134.013 105.568L134.448 105.221Z" fill="#6DD0B3"/>
<path opacity="0.9" d="M147.501 110.204C146.924 109.301 147.189 108.102 148.092 107.525V107.525C148.995 106.949 150.194 107.213 150.771 108.116L151.003 108.479C151.58 109.382 151.315 110.582 150.412 111.158V111.158C149.509 111.735 148.31 111.471 147.733 110.568L147.501 110.204Z" fill="#6DD0B3"/>
<path opacity="0.87" d="M194.405 113.84C194.501 115.043 193.603 116.096 192.4 116.192V116.192C191.197 116.288 190.144 115.391 190.048 114.188L190.009 113.704C189.913 112.5 190.811 111.447 192.014 111.351V111.351C193.217 111.255 194.27 112.153 194.366 113.356L194.405 113.84Z" fill="#6DD0B3"/>
<path opacity="0.84" d="M27.9416 98.1692C27.041 97.9706 26.4719 97.0795 26.6705 96.1789V96.1789C26.8691 95.2784 27.7602 94.7093 28.6608 94.9079L29.0231 94.9878C29.9237 95.1864 30.4928 96.0775 30.2942 96.9781V96.9781C30.0956 97.8786 29.2045 98.4477 28.3039 98.2491L27.9416 98.1692Z" fill="#6DD0B3"/>
<path opacity="0.99" d="M89.2012 93.9973C88.9359 95.4377 87.5531 96.3904 86.1126 96.1251V96.1251C84.6722 95.8597 83.7196 94.4769 83.9849 93.0365L84.0916 92.4569C84.3569 91.0164 85.7398 90.0638 87.1802 90.3291V90.3291C88.6207 90.5944 89.5733 91.9772 89.308 93.4177L89.2012 93.9973Z" fill="#6DD0B3"/>
<path opacity="0.85" d="M102.273 109.572C101.407 110.023 100.339 109.688 99.8871 108.822V108.822C99.4353 107.957 99.7707 106.889 100.636 106.437L100.985 106.255C101.85 105.803 102.918 106.139 103.37 107.004V107.004C103.822 107.87 103.487 108.938 102.621 109.39L102.273 109.572Z" fill="#6DD0B3"/>
<path opacity="0.9" d="M167.272 131.812C167.263 133.032 166.266 134.014 165.045 134.005V134.005C163.825 133.995 162.843 132.998 162.852 131.778L162.856 131.287C162.865 130.066 163.862 129.084 165.083 129.094V129.094C166.303 129.103 167.285 130.1 167.276 131.32L167.272 131.812Z" fill="#6DD0B3"/>
<path opacity="0.85" d="M193.733 145.82C193.625 144.713 194.435 143.728 195.542 143.62V143.62C196.648 143.512 197.633 144.322 197.741 145.429L197.784 145.874C197.892 146.981 197.082 147.966 195.975 148.074V148.074C194.869 148.182 193.884 147.372 193.776 146.265L193.733 145.82Z" fill="#6DD0B3"/>
<path opacity="0.99" d="M28.7641 124.778C28.3519 125.479 27.449 125.714 26.7474 125.301V125.301C26.0458 124.889 25.8112 123.986 26.2234 123.285L26.3893 123.002C26.8015 122.301 27.7044 122.066 28.406 122.479V122.479C29.1076 122.891 29.3422 123.794 28.9299 124.495L28.7641 124.778Z" fill="#6DD0B3"/>
<path opacity="0.76" d="M79.1403 119.459C78.3138 119.803 77.3653 119.411 77.0218 118.584V118.584C76.6784 117.758 77.07 116.809 77.8966 116.466L78.2292 116.328C79.0557 115.984 80.0042 116.376 80.3477 117.202V117.202C80.6911 118.029 80.2995 118.978 79.4729 119.321L79.1403 119.459Z" fill="#6DD0B3"/>
<path opacity="0.71" d="M117.162 157.66C116.269 157.892 115.358 157.356 115.126 156.464V156.464C114.894 155.571 115.429 154.66 116.322 154.428L116.681 154.335C117.574 154.103 118.485 154.638 118.717 155.531V155.531C118.949 156.423 118.413 157.335 117.521 157.567L117.162 157.66Z" fill="#6DD0B3"/>
<path opacity="0.84" d="M135.994 160.666C136.564 161.407 136.425 162.471 135.684 163.042V163.042C134.942 163.612 133.878 163.473 133.308 162.732L133.078 162.433C132.508 161.691 132.646 160.628 133.388 160.057V160.057C134.13 159.487 135.194 159.625 135.764 160.367L135.994 160.666Z" fill="#6DD0B3"/>
<path opacity="0.84" d="M175.815 168.624C174.69 168.674 173.738 167.803 173.687 166.679V166.679C173.637 165.554 174.508 164.602 175.632 164.551L176.085 164.531C177.209 164.481 178.162 165.352 178.212 166.476V166.476C178.262 167.601 177.391 168.553 176.267 168.603L175.815 168.624Z" fill="#6DD0B3"/>
</g>
<g clip-path="url(#clip1_664_64936)">
<circle cx="94.9998" cy="187.999" r="46" fill="#46048B"/>
<ellipse cx="177.078" cy="162.726" rx="19.7395" ry="19.9417" fill="#46048B"/>
<circle cx="233" cy="161.066" r="28" fill="#46048B"/>
<circle cx="193" cy="161.999" r="33" fill="#46048B"/>
<ellipse cx="232.083" cy="153.105" rx="4.54256" ry="4.5891" fill="#46048B"/>
<ellipse cx="251.245" cy="157.777" rx="19.7395" ry="19.9417" fill="#46048B"/>
<ellipse cx="81.7656" cy="165.619" rx="14.6188" ry="14.7686" fill="#46048B"/>
<ellipse cx="50.9586" cy="175.717" rx="23.6213" ry="23.8633" fill="#46048B"/>
<ellipse cx="25.0255" cy="174.714" rx="23.6213" ry="23.8633" fill="#46048B"/>
<ellipse cx="151.968" cy="173.463" rx="19.7395" ry="19.9417" fill="#46048B"/>
<ellipse cx="100.764" cy="173.463" rx="19.7395" ry="19.9417" fill="#46048B"/>
<ellipse cx="118.907" cy="167.609" rx="16.2349" ry="16.4012" fill="#EEEEFF"/>
<ellipse cx="145.763" cy="163.452" rx="16.2349" ry="16.4012" fill="#EEEEFF"/>
<ellipse cx="160.435" cy="170.145" rx="16.2349" ry="16.4012" fill="#EEEEFF"/>
<ellipse cx="191.004" cy="155.539" rx="3.73607" ry="3.77434" fill="#EEEEFF"/>
<ellipse cx="183.531" cy="172.282" rx="16.2349" ry="16.4012" fill="#EEEEFF"/>
<ellipse cx="62" cy="188.499" rx="44" ry="44.5" fill="#EEEEFF"/>
<circle cx="74.5" cy="173.499" r="19.5" fill="#EEEEFF"/>
<ellipse cx="42.0362" cy="174.135" rx="19.4275" ry="19.6266" fill="#EEEEFF"/>
<ellipse cx="20.7068" cy="173.311" rx="19.4275" ry="19.6266" fill="#EEEEFF"/>
<ellipse cx="125.112" cy="172.282" rx="16.2349" ry="16.4012" fill="#EEEEFF"/>
<ellipse cx="99.695" cy="171.992" rx="21.9562" ry="22.1811" fill="#EEEEFF"/>
<ellipse cx="121.072" cy="175.538" rx="25.3808" ry="25.6408" fill="white"/>
<circle cx="187.5" cy="163.566" r="30.5" fill="white"/>
<ellipse cx="157.536" cy="174.452" rx="25.3808" ry="25.6408" fill="white"/>
<ellipse cx="214" cy="165.566" rx="17" ry="17.5" fill="white"/>
<ellipse cx="253.604" cy="162.594" rx="5.84077" ry="5.9006" fill="white"/>
<ellipse cx="238" cy="161.566" rx="29" ry="29.5" fill="white"/>
<circle cx="47" cy="177.999" r="29" fill="white"/>
<ellipse cx="20.7179" cy="191.668" rx="30.372" ry="30.6831" fill="white"/>
<ellipse cx="150.595" cy="188.772" rx="25.3808" ry="25.6408" fill="white"/>
<ellipse cx="84.7529" cy="185.772" rx="25.3808" ry="25.6408" fill="white"/>
</g>
<g filter="url(#filter1_d_664_64936)">
<path d="M73.3486 83.6444L72.552 77.9761L82.4269 76.5883L86.0844 102.612L79.7388 103.504L76.8779 83.1484L73.3486 83.6444ZM88.3757 88.6578C87.8012 84.57 88.1329 81.2394 89.3708 78.6661C90.6325 76.0894 93.0221 74.5539 96.5395 74.0596C100.057 73.5652 102.765 74.3843 104.665 76.5167C106.588 78.6458 107.836 81.7542 108.411 85.842C108.992 89.9774 108.652 93.3334 107.39 95.9101C106.152 98.4834 103.775 100.017 100.257 100.512C96.7397 101.006 94.0194 100.189 92.0964 98.0595C90.1971 95.9271 88.9569 92.7932 88.3757 88.6578ZM102.422 86.6838C102.084 84.2834 101.564 82.4782 100.861 81.2683C100.154 80.0346 98.981 79.533 97.3411 79.7635C95.7013 79.994 94.7117 80.7995 94.3726 82.1802C94.0301 83.537 94.0275 85.4157 94.3649 87.8161C94.592 89.4322 94.8758 90.7616 95.2162 91.8044C95.5533 92.8234 96.0538 93.6256 96.7178 94.2109C97.4021 94.769 98.3147 94.968 99.4555 94.8076C100.596 94.6473 101.407 94.2062 101.887 93.4844C102.388 92.7354 102.659 91.8247 102.703 90.7523C102.742 89.656 102.649 88.2999 102.422 86.6838ZM111.632 85.3894C111.057 81.3016 111.389 77.971 112.627 75.3977C113.888 72.821 116.278 71.2855 119.795 70.7912C123.313 70.2968 126.021 71.1159 127.92 73.2483C129.843 75.3774 131.092 78.4858 131.667 82.5737C132.248 86.709 131.908 90.065 130.646 92.6417C129.408 95.215 127.03 96.7489 123.513 97.2432C119.995 97.7375 117.275 96.9202 115.352 94.7911C113.453 92.6587 112.213 89.5248 111.632 85.3894ZM125.678 83.4154C125.34 81.015 124.82 79.2098 124.117 77.9999C123.41 76.7662 122.237 76.2646 120.597 76.4951C118.957 76.7256 117.968 77.5311 117.628 78.9118C117.286 80.2686 117.283 82.1473 117.621 84.5477C117.848 86.1638 118.132 87.4932 118.472 88.536C118.809 89.555 119.31 90.3572 119.974 90.9425C120.658 91.5007 121.57 91.6996 122.711 91.5393C123.852 91.3789 124.663 90.9378 125.143 90.216C125.643 89.467 125.915 88.5563 125.958 87.4839C125.998 86.3877 125.905 85.0315 125.678 83.4154ZM149.806 88.1676C150.971 88.0039 151.966 87.5853 152.792 86.9117C153.619 86.2382 154.221 85.3537 154.601 84.2583L161.303 83.3163C160.971 86.1259 159.857 88.4636 157.962 90.3295C156.064 92.1716 153.63 93.3014 150.659 93.7189C147.712 94.1331 145.06 93.7181 142.704 92.4739C140.372 91.2263 138.628 89.3386 137.473 86.8108L134.693 87.2016L134.247 84.0287L136.493 83.7131C136.439 83.5025 136.382 83.1834 136.322 82.7556C136.258 82.304 136.222 81.9577 136.212 81.7167L133.966 82.0324L133.515 78.8239L136.331 78.4281C136.748 75.7036 137.908 73.4321 139.809 71.6138C141.731 69.7684 144.153 68.6402 147.077 68.2294C150.047 67.8119 152.701 68.2388 155.036 69.5101C157.372 70.7814 159.087 72.7216 160.181 75.3308L153.478 76.2727C152.812 75.3243 151.99 74.6521 151.014 74.2561C150.034 73.8364 148.962 73.7084 147.797 73.8721C146.656 74.0324 145.669 74.4256 144.836 75.0516C144.003 75.6776 143.379 76.4925 142.962 77.4962L148.916 76.6595L149.367 79.8679L142.415 80.8449C142.421 81.0622 142.458 81.4085 142.525 81.8838C142.585 82.3116 142.642 82.6308 142.696 82.8413L149.647 81.8643L150.093 85.0371L144.068 85.8839C144.752 86.7815 145.582 87.4282 146.559 87.8242C147.559 88.2168 148.642 88.3312 149.806 88.1676Z" fill="white"/>
<path d="M73.3486 83.6444L71.3681 83.9227C71.5218 85.0165 72.5331 85.7786 73.6269 85.6249L73.3486 83.6444ZM72.552 77.9761L72.2736 75.9956C71.1798 76.1493 70.4177 77.1606 70.5714 78.2544L72.552 77.9761ZM82.4269 76.5883L84.4075 76.3099C84.2537 75.2161 83.2424 74.454 82.1486 74.6077L82.4269 76.5883ZM86.0844 102.612L86.3627 104.593C87.4566 104.439 88.2187 103.428 88.0649 102.334L86.0844 102.612ZM79.7388 103.504L77.7582 103.783C77.912 104.876 78.9233 105.639 80.0171 105.485L79.7388 103.504ZM76.8779 83.1484L78.8585 82.87C78.7047 81.7762 77.6934 81.0141 76.5996 81.1678L76.8779 83.1484ZM75.3291 83.366L74.5325 77.6977L70.5714 78.2544L71.3681 83.9227L75.3291 83.366ZM72.8303 79.9566L82.7053 78.5688L82.1486 74.6077L72.2736 75.9956L72.8303 79.9566ZM80.4464 76.8666L84.1039 102.891L88.0649 102.334L84.4075 76.3099L80.4464 76.8666ZM85.8061 100.632L79.4604 101.524L80.0171 105.485L86.3627 104.593L85.8061 100.632ZM81.7193 103.226L78.8585 82.87L74.8974 83.4267L77.7582 103.783L81.7193 103.226ZM76.5996 81.1678L73.0703 81.6638L73.6269 85.6249L77.1563 85.1289L76.5996 81.1678ZM89.3708 78.6661L87.5746 77.7865L87.5685 77.7991L89.3708 78.6661ZM104.665 76.5167L103.171 77.8469L103.18 77.8572L104.665 76.5167ZM107.39 95.9101L105.594 95.0305L105.588 95.0431L107.39 95.9101ZM92.0964 98.0595L90.6029 99.3897L90.6122 99.4L92.0964 98.0595ZM100.861 81.2683L99.1253 82.2623L99.1317 82.2733L100.861 81.2683ZM94.3726 82.1802L96.3118 82.6696L96.3148 82.6573L94.3726 82.1802ZM95.2162 91.8044L93.315 92.4251L93.3174 92.4326L95.2162 91.8044ZM96.7178 94.2109L95.3952 95.7111C95.4143 95.728 95.4338 95.7445 95.4536 95.7607L96.7178 94.2109ZM101.887 93.4844L100.224 92.3729L100.222 92.3766L101.887 93.4844ZM102.703 90.7523L104.701 90.8327L104.701 90.8249L102.703 90.7523ZM90.3563 88.3795C89.8134 84.5168 90.1669 81.6249 91.1731 79.5331L87.5685 77.7991C86.099 80.8539 85.789 84.6231 86.3952 88.9361L90.3563 88.3795ZM91.1671 79.5456C92.066 77.7098 93.7803 76.467 96.8178 76.0401L96.2612 72.079C92.2639 72.6408 89.199 74.469 87.5746 77.7865L91.1671 79.5456ZM96.8178 76.0401C99.8564 75.613 101.827 76.3378 103.171 77.8469L106.158 75.1865C103.704 72.4307 100.257 71.5174 96.2612 72.079L96.8178 76.0401ZM103.18 77.8572C104.742 79.586 105.888 82.2625 106.43 86.1204L110.391 85.5637C109.785 81.246 108.433 77.7055 106.149 75.1761L103.18 77.8572ZM106.43 86.1204C106.98 90.0314 106.617 92.9418 105.594 95.0306L109.186 96.7896C110.687 93.725 111.004 89.9234 110.391 85.5637L106.43 86.1204ZM105.588 95.0431C104.712 96.8641 103.017 98.104 99.9787 98.5311L100.535 102.492C104.532 101.93 107.593 100.103 109.192 96.7771L105.588 95.0431ZM99.9787 98.5311C96.9412 98.958 94.9507 98.2358 93.5806 96.7189L90.6122 99.4C93.0881 102.141 96.5382 103.054 100.535 102.492L99.9787 98.5311ZM93.5899 96.7293C92.0486 94.9987 90.9066 92.2951 90.3563 88.3795L86.3952 88.9361C87.0073 93.2912 88.3457 96.8554 90.6029 99.3897L93.5899 96.7293ZM104.402 86.4054C104.051 83.9087 103.485 81.8035 102.59 80.2633L99.1317 82.2733C99.6429 83.1529 100.117 84.658 100.441 86.9621L104.402 86.4054ZM102.596 80.2743C102.053 79.3255 101.269 78.5691 100.237 78.1279C99.2293 77.697 98.1385 77.6318 97.0628 77.783L97.6195 81.744C98.1837 81.6647 98.4994 81.7351 98.6647 81.8058C98.8059 81.8662 98.9622 81.9775 99.1253 82.2623L102.596 80.2743ZM97.0628 77.783C95.9871 77.9341 94.9565 78.2975 94.1064 78.9895C93.236 79.6981 92.6912 80.6412 92.4303 81.703L96.3148 82.6573C96.3931 82.3385 96.5127 82.1885 96.6318 82.0915C96.7712 81.978 97.0553 81.8233 97.6195 81.744L97.0628 77.783ZM92.4334 81.6907C91.9974 83.418 92.0335 85.5978 92.3843 88.0944L96.3454 87.5377C96.0216 85.2336 96.0628 83.656 96.3118 82.6696L92.4334 81.6907ZM92.3843 88.0944C92.6207 89.7764 92.9252 91.2311 93.315 92.4251L97.1175 91.1837C96.8264 90.2922 96.5633 89.088 96.3454 87.5377L92.3843 88.0944ZM93.3174 92.4326C93.7422 93.7167 94.4139 94.8461 95.3952 95.7111L98.0403 92.7106C97.6937 92.405 97.3644 91.9301 97.115 91.1763L93.3174 92.4326ZM95.4536 95.7607C96.6911 96.77 98.2183 97.0012 99.7338 96.7882L99.1771 92.8271C98.411 92.9348 98.1131 92.7681 97.9819 92.661L95.4536 95.7607ZM99.7338 96.7882C101.244 96.5759 102.66 95.9327 103.552 94.5921L100.222 92.3766C100.153 92.4797 99.9482 92.7187 99.1771 92.8271L99.7338 96.7882ZM103.55 94.5958C104.291 93.4865 104.646 92.2021 104.701 90.8327L100.704 90.6718C100.673 91.4473 100.484 91.9843 100.224 92.3729L103.55 94.5958ZM104.701 90.8249C104.747 89.5696 104.639 88.0874 104.402 86.4054L100.441 86.9621C100.659 88.5123 100.738 89.7425 100.704 90.6796L104.701 90.8249ZM112.627 75.3977L110.83 74.5181L110.824 74.5307L112.627 75.3977ZM127.92 73.2483L126.427 74.5785L126.436 74.5888L127.92 73.2483ZM130.646 92.6417L128.85 91.7621L128.844 91.7747L130.646 92.6417ZM115.352 94.7911L113.859 96.1213L113.868 96.1316L115.352 94.7911ZM124.117 77.9999L122.381 78.9939L122.388 79.0049L124.117 77.9999ZM117.628 78.9118L119.568 79.4012L119.571 79.3889L117.628 78.9118ZM118.472 88.536L116.571 89.1567L116.573 89.1642L118.472 88.536ZM119.974 90.9425L118.651 92.4427C118.67 92.4596 118.69 92.4761 118.709 92.4923L119.974 90.9425ZM125.143 90.216L123.48 89.1045L123.478 89.1082L125.143 90.216ZM125.958 87.4839L127.957 87.5643L127.957 87.5565L125.958 87.4839ZM113.612 85.1111C113.069 81.2484 113.423 78.3565 114.429 76.2647L110.824 74.5307C109.355 77.5855 109.045 81.3547 109.651 85.6678L113.612 85.1111ZM114.423 76.2772C115.322 74.4414 117.036 73.1986 120.074 72.7717L119.517 68.8106C115.52 69.3724 112.455 71.2006 110.83 74.5181L114.423 76.2772ZM120.074 72.7717C123.112 72.3446 125.083 73.0694 126.427 74.5785L129.414 71.9181C126.959 69.1623 123.513 68.249 119.517 68.8106L120.074 72.7717ZM126.436 74.5888C127.998 76.3176 129.144 78.9941 129.686 82.852L133.647 82.2953C133.04 77.9776 131.689 74.4371 129.405 71.9077L126.436 74.5888ZM129.686 82.852C130.236 86.763 129.872 89.6734 128.85 91.7622L132.442 93.5212C133.943 90.4566 134.26 86.655 133.647 82.2953L129.686 82.852ZM128.844 91.7747C127.968 93.5957 126.273 94.8356 123.235 95.2627L123.791 99.2237C127.788 98.6621 130.848 96.8343 132.448 93.5087L128.844 91.7747ZM123.235 95.2627C120.197 95.6896 118.207 94.9674 116.836 93.4505L113.868 96.1316C116.344 98.8729 119.794 99.7855 123.791 99.2237L123.235 95.2627ZM116.846 93.4609C115.304 91.7303 114.162 89.0267 113.612 85.1111L109.651 85.6678C110.263 90.0228 111.602 93.587 113.859 96.1213L116.846 93.4609ZM127.658 83.137C127.307 80.6404 126.741 78.5351 125.846 76.9949L122.388 79.0049C122.899 79.8845 123.373 81.3896 123.697 83.6937L127.658 83.137ZM125.852 77.0059C125.309 76.0571 124.525 75.3007 123.493 74.8595C122.485 74.4286 121.394 74.3634 120.319 74.5146L120.875 78.4756C121.44 78.3963 121.755 78.4667 121.921 78.5374C122.062 78.5978 122.218 78.7091 122.381 78.9939L125.852 77.0059ZM120.319 74.5146C119.243 74.6657 118.212 75.0291 117.362 75.7211C116.492 76.4297 115.947 77.3728 115.686 78.4347L119.571 79.3889C119.649 79.0701 119.768 78.9201 119.888 78.8231C120.027 78.7096 120.311 78.5549 120.875 78.4756L120.319 74.5146ZM115.689 78.4223C115.253 80.1496 115.289 82.3294 115.64 84.826L119.601 84.2693C119.277 81.9652 119.319 80.3876 119.568 79.4012L115.689 78.4223ZM115.64 84.826C115.877 86.508 116.181 87.9627 116.571 89.1567L120.373 87.9153C120.082 87.0238 119.819 85.8196 119.601 84.2693L115.64 84.826ZM116.573 89.1642C116.998 90.4483 117.67 91.5777 118.651 92.4427L121.296 89.4422C120.95 89.1366 120.62 88.6617 120.371 87.9079L116.573 89.1642ZM118.709 92.4923C119.947 93.5016 121.474 93.7328 122.99 93.5198L122.433 89.5587C121.667 89.6664 121.369 89.4997 121.238 89.3926L118.709 92.4923ZM122.99 93.5198C124.5 93.3075 125.916 92.6644 126.808 91.3237L123.478 89.1082C123.409 89.2113 123.204 89.4503 122.433 89.5587L122.99 93.5198ZM126.806 91.3274C127.547 90.2181 127.902 88.9337 127.957 87.5643L123.96 87.4034C123.929 88.1789 123.74 88.7159 123.48 89.1045L126.806 91.3274ZM127.957 87.5565C128.003 86.3013 127.894 84.819 127.658 83.137L123.697 83.6937C123.915 85.2439 123.994 86.4741 123.96 87.4113L127.957 87.5565ZM152.792 86.9117L154.056 88.462L154.056 88.462L152.792 86.9117ZM154.601 84.2583L154.322 82.2777C153.579 82.3822 152.956 82.8944 152.711 83.604L154.601 84.2583ZM161.303 83.3163L163.289 83.5512C163.362 82.9353 163.145 82.3204 162.701 81.8867C162.258 81.453 161.639 81.2495 161.024 81.3358L161.303 83.3163ZM157.962 90.3295L159.355 91.7647C159.359 91.7613 159.362 91.7579 159.366 91.7545L157.962 90.3295ZM142.704 92.4739L141.761 94.2374L141.77 94.2424L142.704 92.4739ZM137.473 86.8108L139.292 85.9796C138.925 85.1746 138.071 84.7071 137.195 84.8302L137.473 86.8108ZM134.693 87.2016L132.712 87.4799C132.866 88.5737 133.877 89.3358 134.971 89.1821L134.693 87.2016ZM134.247 84.0287L133.968 82.0482C132.874 82.2019 132.112 83.2133 132.266 84.3071L134.247 84.0287ZM136.493 83.7131L136.771 85.6936C137.334 85.6145 137.837 85.2991 138.154 84.8266C138.471 84.354 138.571 83.7689 138.43 83.2177L136.493 83.7131ZM136.212 81.7167L138.21 81.6368C138.188 81.0722 137.927 80.5435 137.494 80.1814C137.06 79.8193 136.493 79.6575 135.934 79.7362L136.212 81.7167ZM133.966 82.0324L131.986 82.3107C132.139 83.4045 133.151 84.1666 134.244 84.0129L133.966 82.0324ZM133.515 78.8239L133.237 76.8434C132.143 76.9971 131.381 78.0084 131.535 79.1022L133.515 78.8239ZM136.331 78.4281L136.61 80.4086C137.484 80.2857 138.175 79.6036 138.308 78.7306L136.331 78.4281ZM139.809 71.6138L141.191 73.0593L141.194 73.0564L139.809 71.6138ZM155.036 69.5101L155.993 67.7534L155.993 67.7534L155.036 69.5101ZM160.181 75.3308L160.459 77.3113C161.073 77.225 161.612 76.8587 161.919 76.3195C162.226 75.7804 162.265 75.1296 162.025 74.5576L160.181 75.3308ZM153.478 76.2727L151.842 77.4226C152.274 78.037 153.013 78.3578 153.757 78.2533L153.478 76.2727ZM151.014 74.2561L150.226 76.0946C150.238 76.0997 150.25 76.1047 150.262 76.1096L151.014 74.2561ZM144.836 75.0516L146.038 76.6504L146.038 76.6504L144.836 75.0516ZM142.962 77.4962L141.115 76.7299C140.84 77.3929 140.941 78.1525 141.381 78.7202C141.82 79.2879 142.53 79.5766 143.241 79.4767L142.962 77.4962ZM148.916 76.6595L150.896 76.3811C150.743 75.2873 149.731 74.5252 148.637 74.6789L148.916 76.6595ZM149.367 79.8679L149.645 81.8485C150.739 81.6948 151.501 80.6834 151.347 79.5896L149.367 79.8679ZM142.415 80.8449L142.137 78.8644C141.128 79.0062 140.386 79.8842 140.416 80.9029L142.415 80.8449ZM142.696 82.8413L140.758 83.3367C141.01 84.324 141.965 84.9637 142.974 84.8219L142.696 82.8413ZM149.647 81.8643L151.628 81.586C151.474 80.4922 150.463 79.7301 149.369 79.8838L149.647 81.8643ZM150.093 85.0371L150.372 87.0177C151.465 86.864 152.227 85.8526 152.074 84.7588L150.093 85.0371ZM144.068 85.8839L143.79 83.9033C143.087 84.0022 142.489 84.4665 142.219 85.1232C141.949 85.78 142.047 86.5307 142.477 87.0956L144.068 85.8839ZM146.559 87.8242L145.807 89.6777C145.814 89.6805 145.821 89.6832 145.828 89.6859L146.559 87.8242ZM150.084 90.1481C151.572 89.939 152.918 89.3896 154.056 88.462L151.529 85.3615C151.014 85.781 150.369 86.0688 149.528 86.187L150.084 90.1481ZM154.056 88.462C155.195 87.5333 156.001 86.3272 156.491 84.9125L152.711 83.604C152.442 84.3802 152.042 84.9431 151.529 85.3615L154.056 88.462ZM154.879 86.2388L161.581 85.2969L161.024 81.3358L154.322 82.2777L154.879 86.2388ZM159.317 83.0815C159.034 85.4706 158.108 87.3788 156.559 88.9044L159.366 91.7545C161.606 89.5485 162.907 86.7812 163.289 83.5512L159.317 83.0815ZM156.569 88.8943C155.016 90.4022 152.99 91.3716 150.381 91.7384L150.937 95.6994C154.269 95.2312 157.113 93.9409 159.355 91.7647L156.569 88.8943ZM150.381 91.7384C147.799 92.1012 145.58 91.7305 143.638 90.7053L141.77 94.2424C144.541 95.7057 147.625 96.165 150.937 95.6994L150.381 91.7384ZM143.648 90.7103C141.722 89.6802 140.275 88.1308 139.292 85.9796L135.654 87.642C136.981 90.5465 139.022 92.7724 141.761 94.2374L143.648 90.7103ZM137.195 84.8302L134.414 85.221L134.971 89.1821L137.752 88.7913L137.195 84.8302ZM136.673 86.9232L136.227 83.7504L132.266 84.3071L132.712 87.4799L136.673 86.9232ZM134.525 86.0093L136.771 85.6936L136.214 81.7326L133.968 82.0482L134.525 86.0093ZM138.43 83.2177C138.405 83.1182 138.36 82.8884 138.302 82.4772L134.341 83.0339C134.404 83.4784 134.473 83.8869 134.555 84.2085L138.43 83.2177ZM138.302 82.4772C138.241 82.0446 138.216 81.7768 138.21 81.6368L134.214 81.7966C134.227 82.1387 134.275 82.5634 134.341 83.0339L138.302 82.4772ZM135.934 79.7362L133.688 80.0518L134.244 84.0129L136.49 83.6973L135.934 79.7362ZM135.947 81.754L135.496 78.5456L131.535 79.1022L131.986 82.3107L135.947 81.754ZM133.794 80.8044L136.61 80.4086L136.053 76.4476L133.237 76.8434L133.794 80.8044ZM138.308 78.7306C138.662 76.4199 139.625 74.5574 141.191 73.0593L138.427 70.1684C136.19 72.3069 134.835 74.9872 134.354 78.1256L138.308 78.7306ZM141.194 73.0564C142.78 71.5335 144.801 70.5689 147.355 70.2099L146.798 66.2489C143.506 66.7116 140.681 68.0033 138.424 70.1712L141.194 73.0564ZM147.355 70.2099C149.958 69.8441 152.169 70.2264 154.08 71.2667L155.993 67.7534C153.232 66.2511 150.137 65.7796 146.798 66.2489L147.355 70.2099ZM154.08 71.2667C155.99 72.3063 157.406 73.8853 158.336 76.104L162.025 74.5576C160.768 71.558 158.754 69.2565 155.993 67.7534L154.08 71.2667ZM159.902 73.3503L153.2 74.2922L153.757 78.2533L160.459 77.3113L159.902 73.3503ZM155.115 75.1228C154.25 73.8923 153.134 72.9574 151.765 72.4026L150.262 76.1096C150.847 76.3467 151.374 76.7562 151.842 77.4226L155.115 75.1228ZM151.801 72.4176C150.452 71.8396 149.006 71.6824 147.519 71.8915L148.075 75.8526C148.917 75.7343 149.616 75.8332 150.226 76.0946L151.801 72.4176ZM147.519 71.8915C146.079 72.0939 144.766 72.6026 143.635 73.4528L146.038 76.6504C146.573 76.2485 147.233 75.9709 148.075 75.8526L147.519 71.8915ZM143.635 73.4528C142.503 74.303 141.662 75.4107 141.115 76.7299L144.81 78.2625C145.095 77.5743 145.503 77.0522 146.038 76.6504L143.635 73.4528ZM143.241 79.4767L149.194 78.64L148.637 74.6789L142.684 75.5157L143.241 79.4767ZM146.935 76.9378L147.386 80.1463L151.347 79.5896L150.896 76.3811L146.935 76.9378ZM149.088 77.8874L142.137 78.8644L142.693 82.8255L149.645 81.8485L149.088 77.8874ZM140.416 80.9029C140.426 81.2391 140.476 81.6793 140.544 82.1621L144.505 81.6054C144.439 81.1376 144.417 80.8853 144.414 80.787L140.416 80.9029ZM140.544 82.1621C140.607 82.6066 140.676 83.0151 140.758 83.3367L144.633 82.346C144.608 82.2464 144.563 82.0166 144.505 81.6054L140.544 82.1621ZM142.974 84.8219L149.926 83.8449L149.369 79.8838L142.417 80.8608L142.974 84.8219ZM147.667 82.1427L148.113 85.3155L152.074 84.7588L151.628 81.586L147.667 82.1427ZM149.815 83.0566L143.79 83.9033L144.347 87.8644L150.372 87.0177L149.815 83.0566ZM142.477 87.0956C143.362 88.2576 144.475 89.1374 145.807 89.6777L147.31 85.9707C146.689 85.7191 146.142 85.3053 145.66 84.6721L142.477 87.0956ZM145.828 89.6859C147.179 90.216 148.612 90.3551 150.084 90.1481L149.528 86.187C148.671 86.3074 147.94 86.2176 147.289 85.9624L145.828 89.6859Z" fill="#4F0599"/>
</g>
<defs>
<filter id="filter0_d_664_64936" x="36.5501" y="31.5674" width="203.673" height="123.166" filterUnits="userSpaceOnUse" color-interpolation-filters="sRGB">
<feFlood flood-opacity="0" result="BackgroundImageFix"/>
<feColorMatrix in="SourceAlpha" type="matrix" values="0 0 0 0 0 0 0 0 0 0 0 0 0 0 0 0 0 0 127 0" result="hardAlpha"/>
<feOffset dy="1.9341"/>
<feComposite in2="hardAlpha" operator="out"/>
<feColorMatrix type="matrix" values="0 0 0 0 0.831373 0 0 0 0 0.854902 0 0 0 0 0.905882 0 0 0 1 0"/>
<feBlend mode="normal" in2="BackgroundImageFix" result="effect1_dropShadow_664_64936"/>
<feBlend mode="normal" in="SourceGraphic" in2="effect1_dropShadow_664_64936" result="shape"/>
</filter>
<filter id="filter1_d_664_64936" x="72.4768" y="65.3135" width="90.0535" height="40.8652" filterUnits="userSpaceOnUse" color-interpolation-filters="sRGB">
<feFlood flood-opacity="0" result="BackgroundImageFix"/>
<feColorMatrix in="SourceAlpha" type="matrix" values="0 0 0 0 0 0 0 0 0 0 0 0 0 0 0 0 0 0 127 0" result="hardAlpha"/>
<feOffset dy="2"/>
<feComposite in2="hardAlpha" operator="out"/>
<feColorMatrix type="matrix" values="0 0 0 0 0.309804 0 0 0 0 0.0196078 0 0 0 0 0.6 0 0 0 1 0"/>
<feBlend mode="normal" in2="BackgroundImageFix" result="effect1_dropShadow_664_64936"/>
<feBlend mode="normal" in="SourceGraphic" in2="effect1_dropShadow_664_64936" result="shape"/>
</filter>
<radialGradient id="paint0_radial_664_64936" cx="0" cy="0" r="1" gradientUnits="userSpaceOnUse" gradientTransform="translate(205.271 105.258) rotate(-126.737) scale(182.682 234.264)">
<stop offset="0.166667" stop-color="#9D14DD"/>
<stop offset="0.854167" stop-color="#4F0599"/>
</radialGradient>
<clipPath id="clip0_664_64936">
<rect width="231" height="149" fill="white" transform="translate(25 16.999)"/>
</clipPath>
<clipPath id="clip1_664_64936">
<rect width="214" height="87" fill="white" transform="translate(36 92.999)"/>
</clipPath>
</defs>
</svg>
