<svg width="256" height="158" viewBox="0 0 256 158" fill="none" xmlns="http://www.w3.org/2000/svg">
<rect width="600" height="2433" transform="translate(-296 -1240)" fill="white"/>
<path fill-rule="evenodd" clip-rule="evenodd" d="M65.5 160.999C68.7428 160.999 71.924 160.73 75.0232 160.214C86.9815 167.03 100.791 170.932 115.5 170.932C133.199 170.932 149.596 165.283 163.032 155.704C170.638 160.288 179.517 162.933 189 162.933C217.167 162.933 240 139.599 240 111.433C240 84.6841 219.408 62.2943 193.211 60.1077C181.811 28.0713 151.322 4.93164 115.5 4.93164C84.6567 4.93164 57.7666 22.0863 43.6111 47.304C22.1463 56.1088 7 77.4296 7 101.999C7 134.308 33.1913 160.999 65.5 160.999Z" fill="url(#paint0_radial_674_63765)"/>
<path fill-rule="evenodd" clip-rule="evenodd" d="M25.086 92.3196L44.8704 101.259C47.5083 102.451 49.1193 105.242 48.8609 108.173L46.9227 130.15C46.6642 133.08 44.5951 135.483 41.7975 136.102L20.8152 140.745C18.0176 141.364 15.1277 140.059 13.6571 137.511L2.6276 118.403C1.157 115.855 1.44011 112.645 3.32887 110.452L17.4945 93.9994C19.3833 91.8058 22.4481 91.1276 25.086 92.3196Z" fill="#EEEEFF"/>
<path d="M28.4653 102.442C28.7991 102.368 29.131 102.564 29.2418 102.887L29.2633 102.963L29.9988 106.287L30.3243 106.215C32.1217 105.817 33.9082 106.983 34.3144 108.819L34.3879 109.151L37.5307 108.456C37.8902 108.376 38.2475 108.609 38.3288 108.976C38.4042 109.317 38.2151 109.654 37.8999 109.764L37.8249 109.785L34.6821 110.481L35.1234 112.475L38.2662 111.779C38.6257 111.7 38.983 111.933 39.0643 112.3C39.1397 112.641 38.9506 112.978 38.6354 113.088L38.5604 113.109L35.4176 113.804L35.8589 115.799L39.0017 115.103C39.3612 115.024 39.7185 115.257 39.7998 115.624C39.8752 115.965 39.6861 116.301 39.3709 116.412L39.2959 116.433L36.1531 117.128L36.5944 119.123L39.7372 118.427C40.0967 118.348 40.454 118.581 40.5353 118.948C40.6107 119.289 40.4216 119.625 40.1064 119.735L40.0314 119.757L36.8886 120.452L36.9622 120.784C37.3684 122.62 36.2405 124.431 34.4431 124.828L34.1176 124.901L34.8278 128.11C34.9091 128.477 34.6835 128.839 34.324 128.919C33.9902 128.993 33.6583 128.797 33.5475 128.475L33.526 128.398L32.8158 125.189L30.863 125.621L31.5732 128.83C31.6545 129.198 31.4289 129.56 31.0694 129.639C30.7356 129.713 30.4037 129.517 30.2929 129.195L30.2714 129.118L29.5612 125.909L27.6084 126.341L28.3186 129.551C28.3999 129.918 28.1743 130.28 27.8148 130.359C27.481 130.433 27.1491 130.237 27.0383 129.915L27.0168 129.839L26.3065 126.629L24.3538 127.061L25.064 130.271C25.1453 130.638 24.9197 131 24.5602 131.08C24.2264 131.153 23.8945 130.958 23.7837 130.635L23.7622 130.559L23.0519 127.349L22.7265 127.421C20.929 127.819 19.1426 126.653 18.7364 124.817L18.6628 124.485L15.4082 125.205C15.0487 125.285 14.6914 125.052 14.6102 124.685C14.5348 124.344 14.7239 124.007 15.0391 123.897L15.114 123.876L18.3686 123.156L17.9273 121.161L14.6727 121.881C14.3132 121.961 13.9559 121.728 13.8747 121.361C13.7993 121.02 13.9884 120.683 14.3036 120.573L14.3785 120.552L17.6331 119.832L17.1918 117.837L13.9372 118.558C13.5777 118.637 13.2204 118.404 13.1392 118.037C13.0638 117.696 13.2529 117.359 13.5681 117.249L13.643 117.228L16.8976 116.508L16.4563 114.514L13.2017 115.234C12.8422 115.313 12.4849 115.08 12.4037 114.713C12.3283 114.372 12.5174 114.035 12.8326 113.925L12.9075 113.904L16.1621 113.184L16.0886 112.852C15.6824 111.016 16.8102 109.205 18.6077 108.808L18.9331 108.736L18.1976 105.412C18.1164 105.045 18.342 104.682 18.7015 104.603C19.0353 104.529 19.3672 104.725 19.4779 105.047L19.4995 105.124L20.235 108.447L22.1877 108.015L21.4522 104.692C21.371 104.324 21.5966 103.962 21.9561 103.883C22.2899 103.809 22.6218 104.005 22.7325 104.327L22.7541 104.403L23.4896 107.727L25.4423 107.295L24.7068 103.971C24.6256 103.604 24.8512 103.242 25.2107 103.163C25.5445 103.089 25.8764 103.284 25.9872 103.607L26.0087 103.683L26.7442 107.007L28.697 106.575L27.9615 103.251C27.8802 102.884 28.1058 102.522 28.4653 102.442ZM30.6185 107.544L18.9019 110.137C17.8619 110.367 17.1955 111.386 17.3678 112.446L17.3904 112.564L20.0382 124.529C20.2732 125.591 21.2783 126.28 22.3168 126.114L22.4323 126.092L23.3975 125.878C23.4012 125.877 23.4049 125.876 23.4087 125.876L23.4197 125.873L26.6521 125.158C26.6558 125.157 26.6595 125.156 26.6633 125.155L26.6743 125.153L29.9067 124.438C29.9104 124.437 29.9141 124.436 29.9179 124.435L29.9289 124.433L33.1613 123.718C33.165 123.717 33.1687 123.716 33.1725 123.715L33.1835 123.713L34.1489 123.499C35.1888 123.269 35.8552 122.25 35.6829 121.19L35.6603 121.073L35.4423 120.087C35.4414 120.083 35.4405 120.079 35.4397 120.075L35.4372 120.064L34.7068 116.763C34.7059 116.759 34.705 116.755 34.7042 116.752L34.7017 116.74L33.9713 113.439C33.9704 113.435 33.9695 113.432 33.9687 113.428L33.9662 113.416L33.2358 110.115C33.2349 110.111 33.234 110.108 33.2332 110.104L33.2307 110.093L33.0125 109.107C32.7775 108.045 31.7724 107.356 30.7339 107.522L30.6185 107.544Z" fill="#4F0599"/>
<path d="M29.2545 110.637C29.9735 110.478 30.6881 110.944 30.8505 111.678L32.6157 119.656C32.7782 120.39 32.3271 121.114 31.6081 121.273L23.797 123.002C23.0781 123.161 22.3635 122.694 22.201 121.96L20.4358 113.983C20.2733 113.249 20.7245 112.524 21.4434 112.365L29.2545 110.637ZM29.5487 111.966L21.7376 113.695L23.5028 121.672L31.3139 119.944L29.5487 111.966Z" fill="#AE5DF6"/>
<path fill-rule="evenodd" clip-rule="evenodd" d="M94.7811 3.83933L106.894 15.0106C108.509 16.5001 108.986 18.8699 108.077 20.8806L101.257 35.9609C100.348 37.9716 98.258 39.1659 96.081 38.919L79.7535 37.0679C77.5765 36.8211 75.8072 35.1894 75.3711 33.0261L72.1002 16.8018C71.6641 14.6385 72.6603 12.4358 74.5677 11.3457L88.8738 3.16958C90.7812 2.07944 93.1661 2.34982 94.7811 3.83933Z" fill="#EEEEFF"/>
<path d="M90.846 12.1614C96.1612 12.764 99.9814 17.5613 99.3788 22.8764C98.7762 28.1915 93.979 32.0118 88.6638 31.4092C83.3487 30.8066 79.5285 26.0093 80.1311 20.6942C80.7337 15.3791 85.5309 11.5588 90.846 12.1614ZM90.7312 13.1745C86.7598 12.7242 83.1115 15.0337 81.7023 18.5772C81.14 18.9008 80.8031 19.2921 80.7524 19.7386C80.7127 20.0895 80.8529 20.4467 81.1456 20.7976L81.1441 20.809C80.6049 25.5647 84.0231 29.857 88.7787 30.3961C93.5343 30.9353 97.8266 27.5172 98.3658 22.7616C98.3662 22.7575 98.3667 22.7535 98.3671 22.7494C98.731 22.4733 98.9474 22.1567 98.9872 21.8059C99.0378 21.3594 98.797 20.9027 98.3215 20.462C97.7412 16.6923 94.7026 13.6247 90.7312 13.1745Z" fill="#4F0599"/>
<path d="M90.2718 17.2268L90.7404 17.2822C96.4455 17.9839 99.7576 19.4326 99.495 21.8514L99.4937 21.8636C99.399 22.699 98.8809 23.3448 98.0221 23.7846C97.7715 23.9129 97.4643 23.8138 97.336 23.5632C97.2077 23.3126 97.3068 23.0054 97.5574 22.8771C98.1326 22.5825 98.4279 22.2145 98.4807 21.7487L98.4801 21.7538L98.4807 21.7487C98.6618 20.151 95.5545 18.8518 90.1569 18.2399L89.6861 18.189C84.6444 17.6704 81.5302 18.2281 81.269 19.7264L81.2591 19.7906L81.259 19.7962C81.21 20.2285 81.3833 20.6253 81.8038 21.0126L81.8977 21.0954C82.1126 21.2774 82.1393 21.599 81.9573 21.8139C81.7754 22.0288 81.4538 22.0554 81.2389 21.8735C80.508 21.2546 80.1518 20.5123 80.246 19.6814C80.5284 17.1897 84.2703 16.5464 90.2718 17.2268Z" fill="#AE5DF6"/>
<path d="M89.2961 25.8326C89.5558 25.8621 89.7478 26.0819 89.7485 26.3371L89.7452 26.3966L89.2917 30.3982C90.6992 30.2514 92.1449 28.8796 93.1572 26.6405C93.2732 26.3839 93.5752 26.27 93.8317 26.386C94.0882 26.502 94.2022 26.804 94.0862 27.0605C92.8144 29.8735 90.8381 31.5778 88.7893 31.4215L88.6638 31.4096C86.5691 31.1721 84.9729 29.0424 84.3516 25.9514C84.2961 25.6754 84.4748 25.4067 84.7509 25.3512C85.0269 25.2957 85.2956 25.4745 85.3511 25.7505C85.8359 28.1621 86.9384 29.825 88.2785 30.2834L88.7321 26.2817C88.7638 26.002 89.0163 25.8009 89.2961 25.8326ZM90.846 12.1618C93.6613 12.481 95.5247 16.207 95.432 20.8432C95.4264 21.1247 95.1936 21.3483 94.9121 21.3427C94.6307 21.337 94.407 21.1043 94.4127 20.8228C94.4896 16.9769 93.1272 13.9359 91.2316 13.2879L90.4305 20.3519C90.3988 20.6316 90.1463 20.8327 89.8665 20.801C89.6068 20.7715 89.4148 20.5517 89.4141 20.2965L89.4174 20.237L90.2182 13.173C88.2261 13.3801 86.2178 16.0378 85.4314 19.8023C85.3738 20.0778 85.1038 20.2546 84.8282 20.197C84.5526 20.1394 84.3759 19.8694 84.4334 19.5938C85.3815 15.0557 88.0313 11.8427 90.846 12.1618Z" fill="#4F0599"/>
<path d="M86.8438 21.4719L86.8979 21.4968C87.1287 21.6198 87.2263 21.8947 87.1331 22.1323L87.1082 22.1864L86.0772 24.1217C85.865 24.52 85.2893 24.4616 85.1472 24.0543L85.13 23.9937L84.9606 23.2415L84.5894 23.95C84.3817 24.3458 83.8128 24.2966 83.6623 23.8973L83.643 23.8348L83.1241 21.7239C83.0569 21.4505 83.2241 21.1744 83.4975 21.1072C83.7513 21.0448 84.0075 21.1844 84.0966 21.4236L84.1142 21.4805L84.3118 22.2846L84.7028 21.5394C84.9132 21.1384 85.4917 21.1952 85.6343 21.6037L85.6516 21.6645L85.8231 22.4302L86.2083 21.7071C86.3313 21.4763 86.6062 21.3787 86.8438 21.4719ZM91.4025 21.9888L91.4566 22.0137C91.6873 22.1366 91.785 22.4116 91.6918 22.6492L91.6668 22.7033L90.6359 24.6385C90.4237 25.0368 89.8479 24.9785 89.7059 24.5711L89.6886 24.5106L89.5192 23.7584L89.1481 24.4668C88.9404 24.8626 88.3715 24.8135 88.221 24.4142L88.2016 24.3516L87.6828 22.2407C87.6156 21.9673 87.7827 21.6912 88.0561 21.624C88.31 21.5616 88.5662 21.7013 88.6553 21.9404L88.6728 21.9973L88.8705 22.8014L89.2615 22.0562C89.4719 21.6552 90.0503 21.712 90.1929 22.1206L90.2103 22.1813L90.3818 22.9471L90.767 22.2239C90.8899 21.9932 91.1649 21.8955 91.4025 21.9888ZM95.9612 22.5056L96.0153 22.5305C96.246 22.6534 96.3437 22.9284 96.2504 23.166L96.2255 23.2201L95.1946 25.1553C94.9824 25.5537 94.4066 25.4953 94.2646 25.088L94.2473 25.0274L94.0779 24.2752L93.7068 24.9836C93.4991 25.3795 92.9302 25.3303 92.7797 24.931L92.7603 24.8685L92.2415 22.7575C92.1743 22.4841 92.3414 22.208 92.6148 22.1408C92.8687 22.0784 93.1249 22.2181 93.214 22.4573L93.2315 22.5142L93.4292 23.3182L93.8202 22.5731C94.0305 22.1721 94.609 22.2289 94.7516 22.6374L94.7689 22.6982L94.9405 23.4639L95.3257 22.7408C95.4486 22.51 95.7236 22.4124 95.9612 22.5056Z" fill="#AE5DF6"/>
<path fill-rule="evenodd" clip-rule="evenodd" d="M250.904 80.6521L255.785 96.3903C256.436 98.4887 255.661 100.779 253.866 102.063L240.406 111.693C238.611 112.977 236.204 112.962 234.444 111.658L221.244 101.871C219.484 100.566 218.771 98.2672 219.478 96.1768L224.781 80.4985C225.488 78.4081 227.454 77.0015 229.651 77.0144L246.129 77.1113C248.326 77.1242 250.254 78.5537 250.904 80.6521Z" fill="#EEEEFF"/>
<path d="M231.021 91.3512C230.886 91.5337 231.126 92.214 231.837 93.1405C232.648 94.1972 233.929 95.4105 235.434 96.5266C236.939 97.6426 238.473 98.5159 239.719 98.9847C240.769 99.3793 241.475 99.4242 241.649 99.2658L241.668 99.2449L242.487 99.8521C241.547 101.12 238.24 99.8762 234.827 97.3456L234.506 97.1038C231.333 94.6789 229.358 92.0589 230.16 90.8056L230.202 90.744L231.021 91.3512ZM233.754 87.6658C233.619 87.8483 233.858 88.5285 234.569 89.455C235.38 90.5117 236.661 91.7251 238.166 92.8411C239.672 93.9572 241.205 94.8304 242.452 95.2992C243.501 95.6939 244.207 95.7388 244.382 95.5803L244.401 95.5595L245.22 96.1667C244.28 97.4344 240.972 96.1908 237.559 93.6601L237.238 93.4183C234.065 90.9934 232.09 88.3735 232.892 87.1201L232.935 87.0586L233.754 87.6658Z" fill="#AE5DF6"/>
<path d="M243.024 86.2894C246.437 88.8201 248.588 91.6232 247.648 92.8909L239.92 103.314C238.898 104.693 235.489 103.548 232.094 101.031C228.772 98.5677 226.7 95.7031 227.588 94.2752L227.635 94.2063L235.364 83.7828L235.378 83.7633C236.307 82.5674 239.421 83.695 242.699 86.0523L243.024 86.2894ZM240.397 90.6815L240.313 90.6214L240.257 90.5815C240.168 90.5167 240.078 90.451 239.988 90.3843L239.989 90.3853L239.985 90.3822C239.92 90.3342 239.856 90.286 239.792 90.2378C239.786 90.2329 239.779 90.2277 239.772 90.2226L239.792 90.2378C239.661 90.1384 239.531 90.0387 239.403 89.9387C239.393 89.9301 239.381 89.9214 239.37 89.9127C239.33 89.8812 239.291 89.8497 239.251 89.8182C239.147 89.7357 239.045 89.6531 238.945 89.5704C238.911 89.543 238.878 89.5156 238.845 89.4882C238.825 89.4715 238.805 89.4548 238.785 89.4382C238.674 89.3454 238.565 89.2524 238.458 89.1595C238.436 89.1405 238.414 89.1215 238.392 89.1024C238.36 89.0742 238.328 89.0461 238.296 89.018C238.271 88.9957 238.246 88.9735 238.221 88.9513C238.07 88.8163 237.923 88.6814 237.781 88.547C237.762 88.5288 237.743 88.5108 237.724 88.4927C237.634 88.4072 237.546 88.322 237.461 88.237C237.447 88.2236 237.434 88.21 237.42 88.1965C237.41 88.1864 237.4 88.1765 237.39 88.1665C237.334 88.1109 237.28 88.0555 237.226 88.0002C237.202 87.9748 237.177 87.9493 237.152 87.9238C237.129 87.8992 237.106 87.8747 237.082 87.8502C237.073 87.8397 237.062 87.8291 237.052 87.8184C237.02 87.7841 236.988 87.7502 236.957 87.7163C236.877 87.6291 236.798 87.5422 236.722 87.4557C236.706 87.438 236.691 87.4201 236.675 87.4021C236.657 87.3816 236.639 87.3609 236.622 87.3404C236.605 87.3204 236.588 87.3007 236.571 87.281C236.545 87.2507 236.52 87.2203 236.495 87.1901C236.444 87.1288 236.394 87.0679 236.345 87.0074L236.255 86.8928C236.25 86.886 236.245 86.8792 236.239 86.8725C236.227 86.8565 236.215 86.8406 236.203 86.8247C236.185 86.8016 236.168 86.7785 236.15 86.7555C236.134 86.7334 236.118 86.7117 236.102 86.69C236.08 86.661 236.059 86.6319 236.038 86.6028C236.029 86.5899 236.02 86.5771 236.011 86.5642C235.951 86.4811 235.895 86.3989 235.842 86.3176C235.83 86.2998 235.819 86.282 235.807 86.2642C235.79 86.2385 235.774 86.2128 235.758 86.1873C235.745 86.1666 235.732 86.1461 235.72 86.1256C235.712 86.1125 235.704 86.0993 235.696 86.086C235.676 86.0537 235.657 86.0216 235.639 85.9898C235.62 85.9564 235.601 85.9231 235.583 85.89C235.577 85.8805 235.572 85.8709 235.567 85.8613C235.551 85.8318 235.535 85.8025 235.52 85.7733C235.513 85.7607 235.507 85.7485 235.501 85.7362C235.487 85.709 235.473 85.6817 235.46 85.6546C235.434 85.6007 235.409 85.5478 235.386 85.4954L235.378 85.4756L228.467 94.7965L228.443 94.831C227.992 95.556 229.807 98.0665 232.701 100.212C235.639 102.39 238.599 103.384 239.101 102.707L246.025 93.3694C244.888 93.24 243.338 92.575 241.667 91.5313C241.657 91.5248 241.647 91.5188 241.637 91.5127C241.448 91.3945 241.257 91.2709 241.065 91.1428C241.042 91.1274 241.019 91.1121 240.996 91.0967C240.77 90.9445 240.542 90.786 240.313 90.6214L240.416 90.6951C240.409 90.6906 240.403 90.686 240.397 90.6815ZM242.417 87.1084C240.911 85.9923 239.378 85.1191 238.131 84.6503C237.038 84.2392 236.318 84.2076 236.183 84.39C236.163 84.4169 236.151 84.4547 236.147 84.5024C236.147 84.5051 236.147 84.508 236.147 84.5109L236.147 84.5024C236.146 84.5279 236.146 84.5562 236.149 84.5872C236.152 84.6109 236.156 84.6365 236.161 84.6637C236.162 84.6714 236.164 84.6791 236.166 84.6868L236.161 84.6637C236.164 84.6812 236.168 84.6993 236.173 84.7181L236.166 84.6868C236.17 84.7068 236.175 84.7275 236.181 84.749L236.173 84.7181C236.178 84.7382 236.184 84.7589 236.19 84.7804L236.181 84.749C236.186 84.767 236.192 84.7856 236.198 84.8047L236.19 84.7804C236.202 84.8217 236.217 84.8656 236.235 84.912C236.24 84.9256 236.246 84.9392 236.251 84.953L236.235 84.912C236.244 84.9351 236.253 84.9589 236.263 84.9832L236.251 84.953C236.27 85.0011 236.292 85.0517 236.317 85.1046C236.336 85.1451 236.357 85.1866 236.379 85.2294C236.401 85.272 236.425 85.3157 236.45 85.3607C236.476 85.4071 236.503 85.4548 236.533 85.5037C236.562 85.5528 236.594 85.6033 236.627 85.6549L236.683 85.7407C236.722 85.7993 236.763 85.8593 236.807 85.9207C236.817 85.9344 236.826 85.948 236.836 85.9617L236.915 86.0693L236.998 86.1792C237.809 87.236 239.09 88.4493 240.595 89.5654L240.833 89.7395C240.886 89.7777 240.939 89.8156 240.991 89.8531C241.021 89.874 241.05 89.8945 241.079 89.915L240.991 89.8531C241.093 89.9256 241.195 89.9968 241.297 90.0669L241.079 89.915C241.156 89.9692 241.233 90.0227 241.31 90.0755L241.297 90.0669C241.365 90.1139 241.434 90.1605 241.502 90.2064L241.31 90.0755C241.392 90.1321 241.474 90.1879 241.556 90.2429L241.502 90.2064C241.585 90.262 241.667 90.3167 241.749 90.3705L241.556 90.2429C241.634 90.2948 241.711 90.346 241.789 90.3965L241.749 90.3705C241.819 90.4166 241.89 90.462 241.96 90.5067L241.789 90.3965C241.872 90.4506 241.955 90.5038 242.037 90.5561L241.96 90.5067C242.048 90.5631 242.136 90.6184 242.223 90.6727L242.037 90.5561C242.113 90.6039 242.188 90.6509 242.263 90.6972L242.223 90.6727C242.298 90.7186 242.372 90.7638 242.445 90.8082L242.263 90.6972C242.346 90.7481 242.428 90.798 242.51 90.8469L242.445 90.8082C242.518 90.8523 242.592 90.8957 242.664 90.9384L242.51 90.8469C242.588 90.8939 242.667 90.9399 242.744 90.9851L242.664 90.9384C242.739 90.9823 242.814 91.0253 242.888 91.0676L242.744 90.9851C242.827 91.0332 242.91 91.0802 242.992 91.1261L242.888 91.0676C242.962 91.1095 243.035 91.1506 243.109 91.1909L242.992 91.1261C243.068 91.1686 243.143 91.2101 243.218 91.2507L243.109 91.1909C243.186 91.2333 243.262 91.2747 243.338 91.3152L243.218 91.2507C243.3 91.2953 243.382 91.3388 243.463 91.3811L243.338 91.3152C243.413 91.3552 243.488 91.3942 243.562 91.4322L243.463 91.3811C243.531 91.4162 243.598 91.4505 243.664 91.4839L243.562 91.4322C243.641 91.4726 243.719 91.5118 243.797 91.5499L243.664 91.4839C243.745 91.5244 243.824 91.5637 243.903 91.6018L243.797 91.5499C243.868 91.5851 243.939 91.6192 244.009 91.6524L243.903 91.6018C243.973 91.6352 244.041 91.6676 244.11 91.6991L244.009 91.6524C244.085 91.6882 244.16 91.7228 244.235 91.7562L244.11 91.6991C244.182 91.7326 244.254 91.765 244.325 91.7963L244.235 91.7562C244.303 91.7869 244.371 91.8166 244.438 91.8453L244.325 91.7963C244.4 91.8293 244.475 91.8612 244.548 91.8917L244.438 91.8453C244.51 91.8763 244.582 91.9061 244.653 91.9347L244.723 91.9621L244.88 92.0235C244.916 92.0368 244.951 92.0496 244.985 92.0621C245.008 92.0705 245.031 92.0786 245.054 92.0866L244.985 92.0621C245.028 92.0777 245.071 92.0927 245.113 92.1071L245.054 92.0866C245.087 92.0983 245.12 92.1097 245.153 92.1207L245.113 92.1071C245.149 92.1195 245.185 92.1315 245.22 92.1431L245.153 92.1207C245.237 92.1492 245.319 92.1754 245.398 92.1992C245.5 92.2297 245.598 92.2563 245.69 92.2792C245.701 92.2821 245.711 92.2847 245.721 92.2872L245.69 92.2792C246.324 92.4358 246.731 92.4162 246.829 92.2837L246.819 92.2951L246.832 92.2797C246.956 92.0991 246.739 91.4682 246.097 90.6045L246.014 90.4945C245.203 89.4378 243.922 88.2244 242.417 87.1084Z" fill="#4F0599"/>
<g clip-path="url(#clip0_674_63765)">
<g filter="url(#filter0_d_674_63765)">
<path d="M26.5967 61.9578C25.7208 55.7253 30.0632 49.9628 36.2957 49.0869L203.313 25.6141C209.546 24.7382 215.308 29.0805 216.184 35.313L218.278 50.2135C218.615 52.6079 216.948 54.7814 214.756 55.8029C208.343 58.7922 204.345 65.7099 205.381 73.0811C206.417 80.4522 212.167 86 219.156 87.1058C221.544 87.4837 223.745 89.1135 224.082 91.5079L226.176 106.408C227.052 112.641 222.71 118.403 216.477 119.279L49.4595 142.752C43.227 143.628 37.4645 139.286 36.5885 133.053L34.4944 118.153C34.1579 115.758 35.8249 113.585 38.0164 112.563C44.4296 109.574 48.4275 102.656 47.3916 95.2851C46.3556 87.9139 40.6058 82.3661 33.6171 81.2604C31.2289 80.8825 29.0274 79.2527 28.6909 76.8583L26.5967 61.9578Z" fill="white"/>
<path d="M36.1611 48.1292C29.3997 49.0795 24.6888 55.331 25.6391 62.0924L27.7332 76.9929C28.1481 79.9449 30.8119 81.7956 33.466 82.2155C40.0464 83.2567 45.4588 88.4813 46.434 95.4197C47.4091 102.358 43.6465 108.872 37.6079 111.687C35.1723 112.822 33.1219 115.335 33.5368 118.287L35.6309 133.188C36.5811 139.949 42.8327 144.66 49.5941 143.71L216.612 120.237C223.373 119.287 228.084 113.035 227.134 106.274L225.04 91.3733C224.625 88.4213 221.961 86.5706 219.307 86.1506C212.726 85.1095 207.314 79.8848 206.339 72.9465C205.364 66.0082 209.126 59.4941 215.165 56.6794C217.6 55.5442 219.651 53.0309 219.236 50.0789L217.142 35.1785C216.192 28.4171 209.94 23.7062 203.179 24.6564L36.1611 48.1292Z" stroke="#D4DAE7" stroke-width="1.9341"/>
</g>
<path d="M205.278 38.4735C204.515 38.5808 203.963 39.3018 204.068 40.0531L204.554 43.5087C204.626 44.0195 204.284 44.4659 203.765 44.5388L202.026 44.7832C201.263 44.8904 200.711 45.6115 200.821 46.3928C200.926 47.144 201.656 47.685 202.449 47.5735L206.294 47.0331C207.166 46.8186 207.736 46.0031 207.644 45.1274L206.88 39.6885C206.766 38.8772 206.041 38.3663 205.278 38.4735Z" fill="#EEEEFF"/>
<path d="M200.763 42.2346L200.277 38.779C200.205 38.2682 200.547 37.8218 201.066 37.7489L202.805 37.5044C203.568 37.3972 204.12 36.6761 204.01 35.8948C203.87 35.1178 203.175 34.6026 202.382 34.7141L198.537 35.2545C197.665 35.469 197.095 36.2846 197.187 37.1603L197.951 42.5991C198.057 43.3503 198.786 43.8913 199.549 43.7841C200.316 43.7069 200.868 42.9858 200.763 42.2346Z" fill="#EEEEFF"/>
<path d="M202.298 29.455L195.341 30.4328C192.9 30.7759 191.191 33.0079 191.528 35.4118L192.985 45.7786C193.623 50.3159 197.861 53.4587 202.469 52.8111L209.823 51.7775C211.904 51.3013 213.358 49.4728 213.311 47.3652L211.778 36.4574C211.144 31.9501 206.906 28.8074 202.298 29.455ZM210.422 47.4034C210.401 48.1417 209.902 48.7942 209.152 48.9915L202.103 49.9822C199.051 50.4111 196.237 48.3245 195.815 45.3196L194.387 35.1632C194.257 34.2316 194.91 33.3432 195.856 33.2102L202.691 32.2495C205.743 31.8207 208.557 33.9072 208.979 36.9121L210.453 47.3991L210.422 47.4034Z" fill="#EEEEFF"/>
<line x1="177.404" y1="117.077" x2="165.616" y2="33.2003" stroke="#D4DAE7" stroke-width="2" stroke-linecap="round" stroke-dasharray="8 8"/>
<path opacity="0.86" d="M76.3182 28.0208C76.6301 26.7149 77.9417 25.9092 79.2476 26.2211C80.5534 26.5331 81.3592 27.8447 81.0472 29.1505L80.9216 29.676C80.6097 30.9819 79.2981 31.7876 77.9922 31.4756C76.6864 31.1636 75.8806 29.8521 76.1926 28.5462L76.3182 28.0208Z" fill="#6DD0B3"/>
<path opacity="0.91" d="M107.35 36.0147C108.428 36.9661 108.531 38.611 107.579 39.6887C106.628 40.7664 104.983 40.8689 103.905 39.9175L103.472 39.5347C102.394 38.5833 102.291 36.9384 103.243 35.8607C104.194 34.783 105.839 34.6805 106.917 35.6319L107.35 36.0147Z" fill="#6DD0B3"/>
<path opacity="0.89" d="M154.92 54.1403C153.561 53.9631 152.604 52.7183 152.781 51.36C152.958 50.0018 154.203 49.0444 155.562 49.2217L156.108 49.2931C157.466 49.4703 158.424 50.7151 158.246 52.0734C158.069 53.4316 156.824 54.3889 155.466 54.2117L154.92 54.1403Z" fill="#6DD0B3"/>
<path opacity="0.77" d="M183.373 68.9555C183.712 67.7266 184.983 67.0055 186.212 67.3449C187.441 67.6842 188.162 68.9554 187.823 70.1843L187.686 70.6787C187.347 71.9075 186.076 72.6286 184.847 72.2893C183.618 71.95 182.897 70.6787 183.236 69.4499L183.373 68.9555Z" fill="#6DD0B3"/>
<path opacity="0.92" d="M45.5141 30.0073C44.4536 30.8527 42.9086 30.6784 42.0632 29.618C41.2178 28.5576 41.3921 27.0126 42.4525 26.1671L42.8792 25.827C43.9396 24.9815 45.4846 25.1558 46.3301 26.2163C47.1755 27.2767 47.0012 28.8217 45.9408 29.6671L45.5141 30.0073Z" fill="#6DD0B3"/>
<path opacity="0.73" d="M63.0739 38.0195C64.3951 38.6198 64.9794 40.1774 64.3791 41.4986C63.7788 42.8197 62.2212 43.4041 60.9 42.8038L60.3684 42.5622C59.0473 41.9619 58.463 40.4043 59.0633 39.0831C59.6636 37.762 61.2212 37.1776 62.5424 37.7779L63.0739 38.0195Z" fill="#6DD0B3"/>
<path opacity="0.7" d="M113.142 50.5785C112.264 50.5104 111.606 49.7426 111.674 48.8637C111.743 47.9848 112.51 47.3276 113.389 47.3958L113.743 47.4233C114.622 47.4914 115.279 48.2592 115.211 49.1381C115.143 50.017 114.375 50.6742 113.496 50.606L113.142 50.5785Z" fill="#6DD0B3"/>
<path opacity="0.91" d="M148.186 58.6964C149.275 58.5518 150.275 59.3173 150.42 60.4063C150.564 61.4953 149.799 62.4953 148.71 62.6399L148.271 62.698C147.182 62.8426 146.182 62.0771 146.038 60.9881C145.893 59.8991 146.659 58.8992 147.748 58.7546L148.186 58.6964Z" fill="#6DD0B3"/>
<path opacity="0.97" d="M196.335 89.2178C197.363 88.5355 198.75 88.8161 199.432 89.8445C200.115 90.8728 199.834 92.2596 198.806 92.9419L198.392 93.2165C197.363 93.8988 195.977 93.6182 195.294 92.5898C194.612 91.5615 194.893 90.1747 195.921 89.4924L196.335 89.2178Z" fill="#6DD0B3"/>
<path d="M37.4867 51.9647C36.2211 52.2701 34.9475 51.4916 34.6422 50.2259C34.3369 48.9603 35.1153 47.6868 36.381 47.3814L36.8902 47.2586C38.1559 46.9532 39.4294 47.7317 39.7347 48.9974C40.0401 50.263 39.2616 51.5365 37.996 51.8419L37.4867 51.9647Z" fill="#6DD0B3"/>
<path opacity="0.84" d="M54.6863 51.8681C55.2536 53.2332 54.6067 54.7997 53.2417 55.3669C51.8766 55.9341 50.3101 55.2873 49.7429 53.9222L49.5147 53.3729C48.9474 52.0078 49.5942 50.4414 50.9593 49.8742C52.3244 49.3069 53.8909 49.9537 54.4581 51.3188L54.6863 51.8681Z" fill="#6DD0B3"/>
<path opacity="0.81" d="M122.448 97.2206C123.53 96.3582 125.106 96.536 125.968 97.6177C126.83 98.6993 126.653 100.275 125.571 101.138L125.136 101.485C124.054 102.347 122.478 102.169 121.616 101.087C120.754 100.006 120.931 98.4299 122.013 97.5676L122.448 97.2206Z" fill="#6DD0B3"/>
<path opacity="0.9" d="M135.501 102.204C134.924 101.301 135.189 100.102 136.092 99.5252C136.995 98.9485 138.194 99.2131 138.771 100.116L139.003 100.479C139.58 101.382 139.315 102.582 138.412 103.158C137.509 103.735 136.31 103.471 135.733 102.568L135.501 102.204Z" fill="#6DD0B3"/>
<path opacity="0.87" d="M182.405 105.84C182.501 107.043 181.603 108.096 180.4 108.192C179.197 108.288 178.144 107.391 178.048 106.188L178.009 105.704C177.913 104.5 178.81 103.447 180.014 103.351C181.217 103.255 182.27 104.153 182.366 105.356L182.405 105.84Z" fill="#6DD0B3"/>
<path opacity="0.84" d="M15.9414 90.1692C15.0408 89.9706 14.4718 89.0795 14.6704 88.1789C14.869 87.2784 15.7601 86.7093 16.6606 86.9079L17.023 86.9878C17.9236 87.1864 18.4926 88.0775 18.294 88.9781C18.0954 89.8786 17.2044 90.4477 16.3038 90.2491L15.9414 90.1692Z" fill="#6DD0B3"/>
<path opacity="0.99" d="M77.2011 85.9973C76.9358 87.4377 75.553 88.3904 74.1125 88.1251C72.6721 87.8597 71.7194 86.4769 71.9847 85.0365L72.0915 84.4569C72.3568 83.0164 73.7396 82.0638 75.1801 82.3291C76.6205 82.5944 77.5732 83.9772 77.3079 85.4177L77.2011 85.9973Z" fill="#6DD0B3"/>
<path opacity="0.85" d="M90.2724 101.572C89.4068 102.023 88.3388 101.688 87.887 100.822C87.4351 99.9567 87.7706 98.8886 88.6362 98.4368L88.9845 98.255C89.8501 97.8032 90.9181 98.1386 91.37 99.0042C91.8218 99.8699 91.4864 100.938 90.6207 101.39L90.2724 101.572Z" fill="#6DD0B3"/>
<path opacity="0.9" d="M155.272 123.812C155.263 125.032 154.266 126.014 153.045 126.005C151.825 125.995 150.843 124.998 150.852 123.778L150.856 123.287C150.865 122.066 151.862 121.084 153.083 121.094C154.303 121.103 155.285 122.1 155.276 123.32L155.272 123.812Z" fill="#6DD0B3"/>
<path opacity="0.85" d="M181.733 137.82C181.625 136.713 182.435 135.728 183.541 135.62C184.648 135.512 185.633 136.322 185.741 137.429L185.784 137.874C185.892 138.981 185.082 139.966 183.975 140.074C182.868 140.182 181.884 139.372 181.776 138.265L181.733 137.82Z" fill="#6DD0B3"/>
<path opacity="0.99" d="M16.764 116.778C16.3517 117.479 15.4488 117.714 14.7473 117.301C14.0457 116.889 13.8111 115.986 14.2233 115.285L14.3892 115.002C14.8014 114.301 15.7043 114.066 16.4059 114.479C17.1075 114.891 17.342 115.794 16.9298 116.495L16.764 116.778Z" fill="#6DD0B3"/>
<path opacity="0.76" d="M67.1402 111.459C66.3136 111.803 65.3651 111.411 65.0217 110.584C64.6782 109.758 65.0699 108.809 65.8964 108.466L66.229 108.328C67.0556 107.984 68.0041 108.376 68.3476 109.202C68.691 110.029 68.2994 110.978 67.4728 111.321L67.1402 111.459Z" fill="#6DD0B3"/>
<path opacity="0.71" d="M105.162 149.66C104.269 149.892 103.357 149.356 103.126 148.464C102.894 147.571 103.429 146.66 104.322 146.428L104.681 146.335C105.574 146.103 106.485 146.638 106.717 147.531C106.949 148.423 106.413 149.335 105.521 149.567L105.162 149.66Z" fill="#6DD0B3"/>
<path opacity="0.84" d="M123.994 152.666C124.564 153.407 124.425 154.471 123.684 155.042C122.942 155.612 121.878 155.473 121.307 154.732L121.078 154.433C120.507 153.691 120.646 152.628 121.388 152.057C122.13 151.487 123.194 151.625 123.764 152.367L123.994 152.666Z" fill="#6DD0B3"/>
<path opacity="0.84" d="M163.814 160.624C162.69 160.674 161.738 159.803 161.687 158.679C161.637 157.554 162.508 156.602 163.632 156.551L164.085 156.531C165.209 156.481 166.162 157.352 166.212 158.476C166.262 159.601 165.391 160.553 164.267 160.603L163.814 160.624Z" fill="#6DD0B3"/>
</g>
<g clip-path="url(#clip1_674_63765)">
<circle cx="82.9998" cy="179.999" r="46" fill="#46048B"/>
<ellipse cx="165.078" cy="154.726" rx="19.7395" ry="19.9417" fill="#46048B"/>
<circle cx="221" cy="153.066" r="28" fill="#46048B"/>
<circle cx="181" cy="153.999" r="33" fill="#46048B"/>
<ellipse cx="220.083" cy="145.105" rx="4.54256" ry="4.5891" fill="#46048B"/>
<ellipse cx="239.245" cy="149.777" rx="19.7395" ry="19.9417" fill="#46048B"/>
<ellipse cx="69.7655" cy="157.619" rx="14.6188" ry="14.7686" fill="#46048B"/>
<ellipse cx="38.9585" cy="167.717" rx="23.6213" ry="23.8633" fill="#46048B"/>
<ellipse cx="13.0254" cy="166.714" rx="23.6213" ry="23.8633" fill="#46048B"/>
<ellipse cx="139.968" cy="165.463" rx="19.7395" ry="19.9417" fill="#46048B"/>
<ellipse cx="88.7639" cy="165.463" rx="19.7395" ry="19.9417" fill="#46048B"/>
<ellipse cx="106.907" cy="159.609" rx="16.2349" ry="16.4012" fill="#EEEEFF"/>
<ellipse cx="133.763" cy="155.452" rx="16.2349" ry="16.4012" fill="#EEEEFF"/>
<ellipse cx="148.435" cy="162.145" rx="16.2349" ry="16.4012" fill="#EEEEFF"/>
<ellipse cx="179.004" cy="147.539" rx="3.73607" ry="3.77434" fill="#EEEEFF"/>
<ellipse cx="171.531" cy="164.282" rx="16.2349" ry="16.4012" fill="#EEEEFF"/>
<ellipse cx="50" cy="180.499" rx="44" ry="44.5" fill="#EEEEFF"/>
<circle cx="62.5" cy="165.499" r="19.5" fill="#EEEEFF"/>
<ellipse cx="30.0362" cy="166.135" rx="19.4275" ry="19.6266" fill="#EEEEFF"/>
<ellipse cx="8.70683" cy="165.311" rx="19.4275" ry="19.6266" fill="#EEEEFF"/>
<ellipse cx="113.112" cy="164.282" rx="16.2349" ry="16.4012" fill="#EEEEFF"/>
<ellipse cx="87.6949" cy="163.992" rx="21.9562" ry="22.1811" fill="#EEEEFF"/>
<ellipse cx="109.072" cy="167.538" rx="25.3808" ry="25.6408" fill="white"/>
<circle cx="175.5" cy="155.566" r="30.5" fill="white"/>
<ellipse cx="145.536" cy="166.452" rx="25.3808" ry="25.6408" fill="white"/>
<ellipse cx="202" cy="157.566" rx="17" ry="17.5" fill="white"/>
<ellipse cx="241.604" cy="154.594" rx="5.84077" ry="5.9006" fill="white"/>
<ellipse cx="226" cy="153.566" rx="29" ry="29.5" fill="white"/>
<circle cx="35" cy="169.999" r="29" fill="white"/>
<ellipse cx="8.71794" cy="183.668" rx="30.372" ry="30.6831" fill="white"/>
<ellipse cx="138.595" cy="180.772" rx="25.3808" ry="25.6408" fill="white"/>
<ellipse cx="72.7529" cy="177.772" rx="25.3808" ry="25.6408" fill="white"/>
</g>
<g filter="url(#filter1_d_674_63765)">
<path d="M61.3486 75.6444L60.552 69.9761L70.4269 68.5883L74.0844 94.6125L67.7388 95.5043L64.8779 75.1484L61.3486 75.6444ZM76.3757 80.6578C75.8012 76.57 76.1329 73.2394 77.3708 70.6661C78.6325 68.0894 81.0221 66.5539 84.5395 66.0596C88.0569 65.5652 90.7653 66.3843 92.6645 68.5167C94.5876 70.6458 95.8363 73.7542 96.4108 77.842C96.992 81.9774 96.6518 85.3334 95.3901 87.9101C94.1522 90.4834 91.7745 92.0173 88.2571 92.5116C84.7397 93.0059 82.0194 92.1886 80.0964 90.0595C78.1971 87.9271 76.9569 84.7932 76.3757 80.6578ZM90.4217 78.6838C90.0843 76.2834 89.5641 74.4782 88.8608 73.2683C88.1543 72.0346 86.981 71.533 85.3411 71.7635C83.7013 71.994 82.7117 72.7995 82.3726 74.1802C82.0301 75.537 82.0275 77.4157 82.3649 79.8161C82.592 81.4322 82.8758 82.7616 83.2162 83.8044C83.5533 84.8234 84.0538 85.6256 84.7178 86.2109C85.4021 86.769 86.3147 86.968 87.4555 86.8076C88.5962 86.6473 89.4067 86.2062 89.887 85.4844C90.3876 84.7354 90.6595 83.8247 90.7027 82.7523C90.7425 81.656 90.6488 80.2999 90.4217 78.6838ZM99.6316 77.3894C99.0571 73.3016 99.3888 69.971 100.627 67.3977C101.888 64.821 104.278 63.2855 107.795 62.7912C111.313 62.2968 114.021 63.1159 115.92 65.2483C117.843 67.3774 119.092 70.4858 119.667 74.5737C120.248 78.709 119.908 82.065 118.646 84.6417C117.408 87.215 115.03 88.7489 111.513 89.2432C107.995 89.7375 105.275 88.9202 103.352 86.7911C101.453 84.6587 100.213 81.5248 99.6316 77.3894ZM113.678 75.4154C113.34 73.015 112.82 71.2098 112.117 69.9999C111.41 68.7662 110.237 68.2646 108.597 68.4951C106.957 68.7256 105.968 69.5311 105.628 70.9118C105.286 72.2686 105.283 74.1473 105.621 76.5477C105.848 78.1638 106.132 79.4932 106.472 80.536C106.809 81.555 107.31 82.3572 107.974 82.9425C108.658 83.5007 109.57 83.6996 110.711 83.5393C111.852 83.3789 112.663 82.9378 113.143 82.216C113.643 81.467 113.915 80.5563 113.958 79.4839C113.998 78.3877 113.905 77.0315 113.678 75.4154ZM137.806 80.1676C138.971 80.0039 139.966 79.5853 140.792 78.9117C141.619 78.2382 142.221 77.3537 142.601 76.2583L149.303 75.3163C148.971 78.1259 147.857 80.4636 145.962 82.3295C144.064 84.1716 141.63 85.3014 138.659 85.7189C135.712 86.1331 133.06 85.7181 130.704 84.4739C128.372 83.2263 126.628 81.3386 125.473 78.8108L122.693 79.2016L122.247 76.0287L124.493 75.7131C124.439 75.5025 124.382 75.1834 124.322 74.7556C124.258 74.304 124.222 73.9577 124.212 73.7167L121.966 74.0324L121.515 70.8239L124.331 70.4281C124.748 67.7036 125.908 65.4321 127.809 63.6138C129.731 61.7684 132.153 60.6402 135.077 60.2294C138.047 59.8119 140.701 60.2388 143.036 61.5101C145.372 62.7814 147.087 64.7216 148.181 67.3308L141.478 68.2727C140.812 67.3243 139.99 66.6521 139.014 66.2561C138.034 65.8364 136.962 65.7084 135.797 65.8721C134.656 66.0324 133.669 66.4256 132.836 67.0516C132.003 67.6776 131.379 68.4925 130.962 69.4962L136.916 68.6595L137.367 71.8679L130.415 72.8449C130.421 73.0622 130.458 73.4085 130.525 73.8838C130.585 74.3116 130.642 74.6308 130.696 74.8413L137.647 73.8643L138.093 77.0371L132.068 77.8839C132.752 78.7815 133.582 79.4282 134.559 79.8242C135.559 80.2168 136.642 80.3312 137.806 80.1676Z" fill="white"/>
<path d="M61.3486 75.6444L59.3681 75.9227C59.5218 77.0165 60.5331 77.7786 61.6269 77.6249L61.3486 75.6444ZM60.552 69.9761L60.2736 67.9956C59.1798 68.1493 58.4177 69.1606 58.5714 70.2544L60.552 69.9761ZM70.4269 68.5883L72.4075 68.3099C72.2537 67.2161 71.2424 66.454 70.1486 66.6077L70.4269 68.5883ZM74.0844 94.6125L74.3627 96.593C75.4566 96.4393 76.2187 95.428 76.0649 94.3342L74.0844 94.6125ZM67.7388 95.5043L65.7582 95.7827C65.912 96.8765 66.9233 97.6386 68.0171 97.4849L67.7388 95.5043ZM64.8779 75.1484L66.8585 74.87C66.7047 73.7762 65.6934 73.0141 64.5996 73.1678L64.8779 75.1484ZM63.3291 75.366L62.5325 69.6977L58.5714 70.2544L59.3681 75.9227L63.3291 75.366ZM60.8303 71.9566L70.7053 70.5688L70.1486 66.6077L60.2736 67.9956L60.8303 71.9566ZM68.4464 68.8666L72.1039 94.8908L76.0649 94.3342L72.4075 68.3099L68.4464 68.8666ZM73.8061 92.632L67.4604 93.5238L68.0171 97.4849L74.3627 96.593L73.8061 92.632ZM69.7193 95.226L66.8585 74.87L62.8974 75.4267L65.7582 95.7827L69.7193 95.226ZM64.5996 73.1678L61.0703 73.6638L61.6269 77.6249L65.1563 77.1289L64.5996 73.1678ZM77.3708 70.6661L75.5746 69.7865L75.5685 69.7991L77.3708 70.6661ZM92.6645 68.5167L91.171 69.8469L91.1803 69.8572L92.6645 68.5167ZM95.3901 87.9101L93.5938 87.0305L93.5878 87.0431L95.3901 87.9101ZM80.0964 90.0595L78.6029 91.3897L78.6122 91.4L80.0964 90.0595ZM88.8608 73.2683L87.1253 74.2623L87.1317 74.2733L88.8608 73.2683ZM82.3726 74.1802L84.3118 74.6696L84.3148 74.6573L82.3726 74.1802ZM83.2162 83.8044L81.315 84.4251L81.3174 84.4326L83.2162 83.8044ZM84.7178 86.2109L83.3952 87.7111C83.4143 87.728 83.4338 87.7445 83.4536 87.7607L84.7178 86.2109ZM89.887 85.4844L88.2242 84.3729L88.2218 84.3766L89.887 85.4844ZM90.7027 82.7523L92.7011 82.8327L92.7013 82.8249L90.7027 82.7523ZM78.3563 80.3795C77.8134 76.5168 78.1669 73.6249 79.1731 71.5331L75.5685 69.7991C74.099 72.8539 73.789 76.6231 74.3952 80.9361L78.3563 80.3795ZM79.1671 71.5456C80.066 69.7098 81.7803 68.467 84.8178 68.0401L84.2612 64.079C80.2639 64.6408 77.199 66.469 75.5746 69.7865L79.1671 71.5456ZM84.8178 68.0401C87.8564 67.613 89.827 68.3378 91.171 69.8469L94.158 67.1865C91.7036 64.4307 88.2574 63.5174 84.2612 64.079L84.8178 68.0401ZM91.1803 69.8572C92.7418 71.586 93.8881 74.2625 94.4303 78.1204L98.3914 77.5637C97.7846 73.246 96.4333 69.7055 94.1488 67.1761L91.1803 69.8572ZM94.4303 78.1204C94.98 82.0314 94.6166 84.9418 93.5939 87.0306L97.1863 88.7896C98.6869 85.725 99.0041 81.9234 98.3914 77.5637L94.4303 78.1204ZM93.5878 87.0431C92.7118 88.8641 91.0173 90.104 87.9787 90.5311L88.5354 94.4921C92.5317 93.9305 95.5926 92.1027 97.1924 88.7771L93.5878 87.0431ZM87.9787 90.5311C84.9412 90.958 82.9507 90.2358 81.5806 88.7189L78.6122 91.4C81.0881 94.1413 84.5382 95.0539 88.5354 94.4921L87.9787 90.5311ZM81.5899 88.7293C80.0486 86.9987 78.9066 84.2951 78.3563 80.3795L74.3952 80.9361C75.0073 85.2912 76.3457 88.8554 78.6029 91.3897L81.5899 88.7293ZM92.4022 78.4054C92.0514 75.9087 91.4852 73.8035 90.59 72.2633L87.1317 74.2733C87.6429 75.1529 88.1173 76.658 88.4412 78.9621L92.4022 78.4054ZM90.5963 72.2743C90.0529 71.3255 89.2692 70.5691 88.2372 70.1279C87.2293 69.697 86.1385 69.6318 85.0628 69.783L85.6195 73.744C86.1837 73.6647 86.4994 73.7351 86.6647 73.8058C86.8059 73.8662 86.9622 73.9775 87.1253 74.2623L90.5963 72.2743ZM85.0628 69.783C83.9871 69.9341 82.9565 70.2975 82.1064 70.9895C81.236 71.6981 80.6912 72.6412 80.4303 73.703L84.3148 74.6573C84.3931 74.3385 84.5127 74.1885 84.6318 74.0915C84.7712 73.978 85.0553 73.8233 85.6195 73.744L85.0628 69.783ZM80.4334 73.6907C79.9974 75.418 80.0335 77.5978 80.3843 80.0944L84.3454 79.5377C84.0216 77.2336 84.0628 75.656 84.3118 74.6696L80.4334 73.6907ZM80.3843 80.0944C80.6207 81.7764 80.9252 83.2311 81.315 84.4251L85.1175 83.1837C84.8264 82.2922 84.5633 81.088 84.3454 79.5377L80.3843 80.0944ZM81.3174 84.4326C81.7422 85.7167 82.4139 86.8461 83.3952 87.7111L86.0403 84.7106C85.6937 84.405 85.3644 83.9301 85.115 83.1763L81.3174 84.4326ZM83.4536 87.7607C84.6911 88.77 86.2183 89.0012 87.7338 88.7882L87.1771 84.8271C86.411 84.9348 86.1131 84.7681 85.9819 84.661L83.4536 87.7607ZM87.7338 88.7882C89.2443 88.5759 90.6603 87.9327 91.5521 86.5921L88.2218 84.3766C88.1532 84.4797 87.9482 84.7187 87.1771 84.8271L87.7338 88.7882ZM91.5497 86.5958C92.2912 85.4865 92.6459 84.2021 92.701 82.8327L88.7043 82.6718C88.6731 83.4473 88.484 83.9843 88.2242 84.3729L91.5497 86.5958ZM92.7013 82.8249C92.7469 81.5696 92.6386 80.0874 92.4022 78.4054L88.4412 78.9621C88.659 80.5123 88.738 81.7425 88.704 82.6796L92.7013 82.8249ZM100.627 67.3977L98.8304 66.5181L98.8244 66.5307L100.627 67.3977ZM115.92 65.2483L114.427 66.5785L114.436 66.5889L115.92 65.2483ZM118.646 84.6417L116.85 83.7621L116.844 83.7747L118.646 84.6417ZM103.352 86.7911L101.859 88.1213L101.868 88.1316L103.352 86.7911ZM112.117 69.9999L110.381 70.9939L110.388 71.0049L112.117 69.9999ZM105.628 70.9118L107.568 71.4013L107.571 71.3889L105.628 70.9118ZM106.472 80.536L104.571 81.1567L104.573 81.1642L106.472 80.536ZM107.974 82.9425L106.651 84.4427C106.67 84.4596 106.69 84.4761 106.709 84.4923L107.974 82.9425ZM113.143 82.216L111.48 81.1045L111.478 81.1082L113.143 82.216ZM113.958 79.4839L115.957 79.5643L115.957 79.5565L113.958 79.4839ZM101.612 77.1111C101.069 73.2484 101.423 70.3565 102.429 68.2647L98.8244 66.5307C97.3548 69.5855 97.0449 73.3547 97.651 77.6678L101.612 77.1111ZM102.423 68.2772C103.322 66.4414 105.036 65.1986 108.074 64.7717L107.517 60.8106C103.52 61.3724 100.455 63.2006 98.8304 66.5181L102.423 68.2772ZM108.074 64.7717C111.112 64.3446 113.083 65.0694 114.427 66.5785L117.414 63.9181C114.959 61.1623 111.513 60.249 107.517 60.8106L108.074 64.7717ZM114.436 66.5889C115.998 68.3176 117.144 70.9941 117.686 74.852L121.647 74.2953C121.04 69.9776 119.689 66.4371 117.405 63.9077L114.436 66.5889ZM117.686 74.852C118.236 78.763 117.872 81.6734 116.85 83.7622L120.442 85.5212C121.943 82.4566 122.26 78.655 121.647 74.2953L117.686 74.852ZM116.844 83.7747C115.968 85.5957 114.273 86.8356 111.235 87.2627L111.791 91.2237C115.788 90.6621 118.848 88.8343 120.448 85.5087L116.844 83.7747ZM111.235 87.2627C108.197 87.6896 106.207 86.9674 104.836 85.4505L101.868 88.1316C104.344 90.8729 107.794 91.7855 111.791 91.2237L111.235 87.2627ZM104.846 85.4609C103.304 83.7303 102.162 81.0267 101.612 77.1111L97.651 77.6678C98.2631 82.0228 99.6015 85.587 101.859 88.1213L104.846 85.4609ZM115.658 75.137C115.307 72.6404 114.741 70.5351 113.846 68.9949L110.388 71.0049C110.899 71.8845 111.373 73.3896 111.697 75.6937L115.658 75.137ZM113.852 69.0059C113.309 68.0571 112.525 67.3007 111.493 66.8595C110.485 66.4286 109.394 66.3634 108.319 66.5146L108.875 70.4756C109.44 70.3963 109.755 70.4667 109.921 70.5374C110.062 70.5978 110.218 70.7091 110.381 70.9939L113.852 69.0059ZM108.319 66.5146C107.243 66.6657 106.212 67.0291 105.362 67.7211C104.492 68.4297 103.947 69.3728 103.686 70.4347L107.571 71.3889C107.649 71.0701 107.768 70.9201 107.888 70.8231C108.027 70.7096 108.311 70.5549 108.875 70.4756L108.319 66.5146ZM103.689 70.4223C103.253 72.1496 103.289 74.3294 103.64 76.826L107.601 76.2693C107.277 73.9652 107.319 72.3876 107.568 71.4012L103.689 70.4223ZM103.64 76.826C103.877 78.508 104.181 79.9627 104.571 81.1567L108.373 79.9153C108.082 79.0238 107.819 77.8196 107.601 76.2693L103.64 76.826ZM104.573 81.1642C104.998 82.4483 105.67 83.5777 106.651 84.4427L109.296 81.4422C108.95 81.1366 108.62 80.6617 108.371 79.9079L104.573 81.1642ZM106.709 84.4923C107.947 85.5016 109.474 85.7328 110.99 85.5198L110.433 81.5587C109.667 81.6664 109.369 81.4997 109.238 81.3926L106.709 84.4923ZM110.99 85.5198C112.5 85.3075 113.916 84.6644 114.808 83.3237L111.478 81.1082C111.409 81.2113 111.204 81.4503 110.433 81.5587L110.99 85.5198ZM114.806 83.3274C115.547 82.2181 115.902 80.9337 115.957 79.5643L111.96 79.4034C111.929 80.1789 111.74 80.7159 111.48 81.1045L114.806 83.3274ZM115.957 79.5565C116.003 78.3013 115.894 76.819 115.658 75.137L111.697 75.6937C111.915 77.2439 111.994 78.4741 111.96 79.4113L115.957 79.5565ZM140.792 78.9117L142.056 80.462L140.792 78.9117ZM142.601 76.2583L142.322 74.2777C141.579 74.3822 140.956 74.8944 140.711 75.604L142.601 76.2583ZM149.303 75.3163L151.289 75.5512C151.362 74.9353 151.145 74.3204 150.701 73.8867C150.258 73.453 149.639 73.2495 149.024 73.3358L149.303 75.3163ZM145.962 82.3295L147.355 83.7647C147.359 83.7613 147.362 83.7579 147.366 83.7545L145.962 82.3295ZM130.704 84.4739L129.761 86.2374L129.77 86.2424L130.704 84.4739ZM125.473 78.8108L127.292 77.9796C126.925 77.1746 126.071 76.7071 125.195 76.8302L125.473 78.8108ZM122.693 79.2016L120.712 79.4799C120.866 80.5737 121.877 81.3358 122.971 81.1821L122.693 79.2016ZM122.247 76.0287L121.968 74.0482C120.874 74.2019 120.112 75.2133 120.266 76.3071L122.247 76.0287ZM124.493 75.7131L124.771 77.6936C125.334 77.6145 125.837 77.2991 126.154 76.8266C126.471 76.354 126.571 75.7689 126.43 75.2177L124.493 75.7131ZM124.212 73.7167L126.21 73.6368C126.188 73.0722 125.927 72.5435 125.494 72.1814C125.06 71.8193 124.493 71.6575 123.934 71.7362L124.212 73.7167ZM121.966 74.0324L119.986 74.3107C120.139 75.4045 121.151 76.1666 122.244 76.0129L121.966 74.0324ZM121.515 70.8239L121.237 68.8434C120.143 68.9971 119.381 70.0084 119.535 71.1022L121.515 70.8239ZM124.331 70.4281L124.61 72.4086C125.484 72.2857 126.175 71.6036 126.308 70.7306L124.331 70.4281ZM127.809 63.6138L129.191 65.0593L129.194 65.0564L127.809 63.6138ZM143.036 61.5101L143.993 59.7534L143.993 59.7534L143.036 61.5101ZM148.181 67.3308L148.459 69.3113C149.073 69.225 149.612 68.8587 149.919 68.3195C150.226 67.7804 150.265 67.1296 150.025 66.5576L148.181 67.3308ZM141.478 68.2727L139.842 69.4226C140.274 70.037 141.013 70.3578 141.757 70.2533L141.478 68.2727ZM139.014 66.2561L138.226 68.0946C138.238 68.0997 138.25 68.1047 138.262 68.1096L139.014 66.2561ZM132.836 67.0516L134.038 68.6504L134.038 68.6504L132.836 67.0516ZM130.962 69.4962L129.115 68.7299C128.84 69.3929 128.941 70.1525 129.381 70.7202C129.82 71.2879 130.53 71.5766 131.241 71.4767L130.962 69.4962ZM136.916 68.6595L138.896 68.3811C138.743 67.2873 137.731 66.5252 136.637 66.6789L136.916 68.6595ZM137.367 71.8679L137.645 73.8485C138.739 73.6948 139.501 72.6834 139.347 71.5896L137.367 71.8679ZM130.415 72.8449L130.137 70.8644C129.128 71.0062 128.386 71.8842 128.416 72.9029L130.415 72.8449ZM130.696 74.8413L128.758 75.3367C129.01 76.324 129.965 76.9637 130.974 76.8219L130.696 74.8413ZM137.647 73.8643L139.628 73.586C139.474 72.4922 138.463 71.7301 137.369 71.8838L137.647 73.8643ZM138.093 77.0371L138.372 79.0177C139.465 78.864 140.227 77.8526 140.074 76.7588L138.093 77.0371ZM132.068 77.8839L131.79 75.9033C131.087 76.0022 130.489 76.4665 130.219 77.1232C129.949 77.78 130.047 78.5307 130.477 79.0956L132.068 77.8839ZM134.559 79.8242L133.807 81.6777C133.814 81.6805 133.821 81.6832 133.828 81.6859L134.559 79.8242ZM138.084 82.1481C139.572 81.939 140.918 81.3896 142.056 80.462L139.529 77.3615C139.014 77.781 138.369 78.0688 137.528 78.187L138.084 82.1481ZM142.056 80.462C143.195 79.5333 144.001 78.3272 144.491 76.9125L140.711 75.604C140.442 76.3802 140.042 76.9431 139.529 77.3615L142.056 80.462ZM142.879 78.2388L149.581 77.2969L149.024 73.3358L142.322 74.2777L142.879 78.2388ZM147.317 75.0815C147.034 77.4706 146.108 79.3788 144.559 80.9044L147.366 83.7545C149.606 81.5485 150.907 78.7812 151.289 75.5512L147.317 75.0815ZM144.569 80.8943C143.016 82.4022 140.99 83.3716 138.381 83.7384L138.937 87.6994C142.269 87.2312 145.113 85.9409 147.355 83.7647L144.569 80.8943ZM138.381 83.7384C135.799 84.1012 133.58 83.7305 131.638 82.7053L129.77 86.2424C132.541 87.7057 135.625 88.165 138.937 87.6994L138.381 83.7384ZM131.648 82.7103C129.722 81.6802 128.275 80.1308 127.292 77.9796L123.654 79.642C124.981 82.5465 127.022 84.7724 129.761 86.2374L131.648 82.7103ZM125.195 76.8302L122.414 77.221L122.971 81.1821L125.752 80.7913L125.195 76.8302ZM124.673 78.9232L124.227 75.7504L120.266 76.3071L120.712 79.4799L124.673 78.9232ZM122.525 78.0093L124.771 77.6936L124.214 73.7326L121.968 74.0482L122.525 78.0093ZM126.43 75.2177C126.405 75.1182 126.36 74.8884 126.302 74.4772L122.341 75.0339C122.404 75.4784 122.473 75.8869 122.555 76.2085L126.43 75.2177ZM126.302 74.4772C126.241 74.0446 126.216 73.7768 126.21 73.6368L122.214 73.7966C122.227 74.1387 122.275 74.5634 122.341 75.0339L126.302 74.4772ZM123.934 71.7362L121.688 72.0518L122.244 76.0129L124.49 75.6973L123.934 71.7362ZM123.947 73.754L123.496 70.5456L119.535 71.1022L119.986 74.3107L123.947 73.754ZM121.794 72.8044L124.61 72.4086L124.053 68.4476L121.237 68.8434L121.794 72.8044ZM126.308 70.7306C126.662 68.4199 127.625 66.5574 129.191 65.0593L126.427 62.1684C124.19 64.3069 122.835 66.9872 122.354 70.1256L126.308 70.7306ZM129.194 65.0564C130.78 63.5335 132.801 62.5689 135.355 62.2099L134.798 58.2489C131.506 58.7116 128.681 60.0033 126.424 62.1712L129.194 65.0564ZM135.355 62.2099C137.958 61.8441 140.169 62.2264 142.08 63.2667L143.993 59.7534C141.232 58.2511 138.137 57.7796 134.798 58.2489L135.355 62.2099ZM142.08 63.2667C143.99 64.3063 145.406 65.8853 146.336 68.104L150.025 66.5576C148.768 63.558 146.754 61.2565 143.993 59.7534L142.08 63.2667ZM147.902 65.3503L141.2 66.2922L141.757 70.2533L148.459 69.3113L147.902 65.3503ZM143.115 67.1228C142.25 65.8923 141.134 64.9574 139.765 64.4026L138.262 68.1096C138.847 68.3467 139.374 68.7562 139.842 69.4226L143.115 67.1228ZM139.801 64.4176C138.452 63.8396 137.006 63.6824 135.519 63.8915L136.075 67.8526C136.917 67.7343 137.616 67.8332 138.226 68.0946L139.801 64.4176ZM135.519 63.8915C134.079 64.0939 132.766 64.6026 131.635 65.4528L134.038 68.6504C134.573 68.2485 135.233 67.9709 136.075 67.8526L135.519 63.8915ZM131.635 65.4528C130.503 66.303 129.662 67.4107 129.115 68.7299L132.81 70.2625C133.095 69.5742 133.503 69.0522 134.038 68.6504L131.635 65.4528ZM131.241 71.4767L137.194 70.64L136.637 66.6789L130.684 67.5157L131.241 71.4767ZM134.935 68.9378L135.386 72.1463L139.347 71.5896L138.896 68.3811L134.935 68.9378ZM137.088 69.8874L130.137 70.8644L130.693 74.8255L137.645 73.8485L137.088 69.8874ZM128.416 72.9029C128.426 73.2391 128.476 73.6793 128.544 74.1621L132.505 73.6054C132.439 73.1376 132.417 72.8853 132.414 72.787L128.416 72.9029ZM128.544 74.1621C128.607 74.6066 128.676 75.0151 128.758 75.3367L132.633 74.346C132.608 74.2464 132.563 74.0166 132.505 73.6054L128.544 74.1621ZM130.974 76.8219L137.926 75.8449L137.369 71.8838L130.417 72.8608L130.974 76.8219ZM135.667 74.1427L136.113 77.3155L140.074 76.7588L139.628 73.586L135.667 74.1427ZM137.815 75.0566L131.79 75.9033L132.347 79.8644L138.372 79.0177L137.815 75.0566ZM130.477 79.0956C131.362 80.2576 132.475 81.1374 133.807 81.6777L135.31 77.9707C134.689 77.7191 134.142 77.3053 133.66 76.6721L130.477 79.0956ZM133.828 81.6859C135.179 82.216 136.612 82.3551 138.084 82.1481L137.528 78.187C136.671 78.3074 135.94 78.2176 135.289 77.9624L133.828 81.6859Z" fill="#4F0599"/>
</g>
<g filter="url(#filter2_d_674_63765)">
<path d="M69.8801 108.886L71.2976 99.8444L75.2627 99.2872L72.6575 112.05L68.0607 112.696L62.0386 101.146L66.0254 100.585L69.8801 108.886ZM84.0973 110.62C82.9064 110.787 81.7959 110.684 80.7659 110.311C79.7504 109.935 78.9003 109.314 78.2157 108.447C77.5457 107.579 77.1218 106.513 76.9443 105.249C76.7687 104 76.8906 102.865 77.3098 101.843C77.727 100.807 78.3791 99.9674 79.2663 99.3243C80.1534 98.6813 81.1925 98.2761 82.3834 98.1087C83.5744 97.9413 84.6849 98.0444 85.7149 98.418C86.7449 98.7917 87.6033 99.419 88.2899 100.3C88.9745 101.166 89.4045 102.224 89.5801 103.473C89.7556 104.722 89.6275 105.866 89.1958 106.904C88.7766 107.926 88.1162 108.759 87.2145 109.404C86.3274 110.047 85.2883 110.453 84.0973 110.62ZM83.6442 107.396C84.3559 107.296 84.9219 106.949 85.3422 106.357C85.7771 105.763 85.9261 104.979 85.7893 104.006C85.6526 103.033 85.3005 102.32 84.7332 101.866C84.1805 101.411 83.5483 101.233 82.8366 101.333C82.1104 101.435 81.5444 101.781 81.1386 102.371C80.7307 102.947 80.5962 103.729 80.735 104.716C80.8718 105.69 81.2093 106.405 81.7475 106.862C82.3003 107.318 82.9325 107.496 83.6442 107.396ZM102.706 95.4302L104.415 107.587L100.689 108.11L100.457 106.455C100.155 107.045 99.7002 107.553 99.0936 107.979C98.4994 108.388 97.8102 108.648 97.0259 108.758C96.0964 108.889 95.2472 108.801 94.4784 108.494C93.7075 108.173 93.0709 107.648 92.5685 106.919C92.0661 106.19 91.7405 105.295 91.5914 104.235L90.5933 97.1326L94.2969 96.6121L95.2246 103.213C95.3389 104.027 95.6383 104.629 96.1228 105.02C96.6073 105.411 97.2053 105.556 97.917 105.456C98.6432 105.354 99.1853 105.049 99.5432 104.539C99.9011 104.03 100.023 103.368 99.9086 102.555L98.9809 95.9538L102.706 95.4302ZM105.496 101.237C105.318 99.9729 105.417 98.8334 105.793 97.8179C106.183 96.8004 106.8 95.9731 107.643 95.3362C108.502 94.6972 109.526 94.294 110.717 94.1267C112.242 93.9123 113.569 94.1331 114.698 94.7891C115.841 95.443 116.675 96.4736 117.199 97.8811L113.234 98.4384C112.769 97.5558 112.057 97.1819 111.099 97.3166C110.416 97.4125 109.909 97.7578 109.578 98.3523C109.245 98.9323 109.148 99.7161 109.286 100.704C109.425 101.691 109.736 102.425 110.218 102.906C110.698 103.371 111.279 103.556 111.962 103.46C112.921 103.325 113.502 102.77 113.705 101.793L117.67 101.236C117.551 102.704 117.032 103.918 116.116 104.876C115.199 105.834 113.985 106.419 112.474 106.632C111.284 106.799 110.188 106.694 109.187 106.316C108.2 105.937 107.379 105.311 106.724 104.441C106.083 103.568 105.673 102.5 105.496 101.237ZM126.027 92.0194C127.421 91.8234 128.605 92.131 129.578 92.9422C130.549 93.7388 131.148 94.9432 131.374 96.5553L132.373 103.658L128.669 104.178L127.741 97.5769C127.627 96.7636 127.327 96.1614 126.843 95.7703C126.359 95.3793 125.76 95.2338 125.049 95.3338C124.337 95.4338 123.802 95.7386 123.444 96.248C123.087 96.7574 122.965 97.4188 123.079 98.2322L124.007 104.833L120.281 105.357L118.016 89.2353L121.741 88.7117L122.528 94.3107C122.83 93.7202 123.285 93.2193 123.894 92.8079C124.503 92.3966 125.214 92.1337 126.027 92.0194ZM145.539 95.4089C145.588 95.7574 145.617 96.1236 145.627 96.5073L137.195 97.6923C137.36 98.4393 137.681 98.9866 138.159 99.3341C138.65 99.665 139.208 99.7866 139.832 99.6988C140.762 99.5682 141.353 99.0852 141.606 98.2499L145.571 97.6926C145.48 98.52 145.211 99.291 144.763 100.006C144.33 100.718 143.74 101.312 142.992 101.787C142.244 102.263 141.376 102.57 140.389 102.709C139.198 102.876 138.102 102.771 137.101 102.393C136.1 102.015 135.272 101.391 134.616 100.521C133.96 99.6502 133.544 98.5831 133.366 97.3196C133.189 96.056 133.288 94.9164 133.663 93.9009C134.054 92.8834 134.678 92.0551 135.536 91.4162C136.394 90.7772 137.426 90.373 138.631 90.2036C139.808 90.0382 140.888 90.1382 141.872 90.5034C142.857 90.8686 143.668 91.473 144.305 92.3166C144.956 93.1581 145.367 94.1889 145.539 95.4089ZM141.589 94.9643C141.499 94.3253 141.209 93.8475 140.721 93.5312C140.232 93.2148 139.661 93.1025 139.007 93.1944C138.383 93.2821 137.878 93.5382 137.493 93.9625C137.123 94.3848 136.934 94.9372 136.926 95.6195L141.589 94.9643ZM150.688 90.753C151.029 90.0236 151.501 89.4242 152.101 88.9548C152.7 88.4708 153.398 88.1726 154.197 88.0604L154.751 92.0036L153.727 92.1475C152.798 92.2782 152.129 92.5795 151.722 93.0515C151.312 93.5089 151.178 94.2387 151.318 95.2409L152.111 100.883L148.386 101.407L146.678 89.2505L150.403 88.7269L150.688 90.753Z" fill="white"/>
<path d="M69.8801 108.886L68.0662 109.728C68.4371 110.527 69.2866 110.989 70.1585 110.866C71.0304 110.744 71.7196 110.065 71.856 109.195L69.8801 108.886ZM71.2976 99.8444L71.0193 97.8639C70.1474 97.9864 69.4581 98.6648 69.3218 99.5346L71.2976 99.8444ZM75.2627 99.2872L77.2223 99.6872C77.3522 99.0506 77.1648 98.3906 76.7198 97.9173C76.2749 97.4439 75.6277 97.2162 74.9843 97.3066L75.2627 99.2872ZM72.6575 112.05L72.9359 114.03C73.7744 113.913 74.4478 113.28 74.6171 112.45L72.6575 112.05ZM68.0607 112.696L66.2873 113.621C66.6787 114.371 67.5006 114.794 68.3391 114.677L68.0607 112.696ZM62.0386 101.146L61.7603 99.1652C61.1169 99.2556 60.5576 99.6528 60.2603 100.231C59.963 100.808 59.9648 101.494 60.2652 102.07L62.0386 101.146ZM66.0254 100.585L67.8394 99.743C67.4685 98.9444 66.619 98.4823 65.7471 98.6048L66.0254 100.585ZM71.856 109.195L73.2735 100.154L69.3218 99.5346L67.9043 108.576L71.856 109.195ZM71.576 101.825L75.541 101.268L74.9843 97.3066L71.0193 97.8639L71.576 101.825ZM73.3031 98.8872L70.698 111.65L74.6171 112.45L77.2223 99.6872L73.3031 98.8872ZM72.3792 110.069L67.7824 110.715L68.3391 114.677L72.9359 114.03L72.3792 110.069ZM69.8342 111.771L63.8121 100.221L60.2652 102.07L66.2873 113.621L69.8342 111.771ZM62.317 103.126L66.3038 102.566L65.7471 98.6048L61.7603 99.1652L62.317 103.126ZM64.2115 101.428L68.0662 109.728L71.6941 108.043L67.8394 99.743L64.2115 101.428ZM80.7659 110.311L80.072 112.186L80.0839 112.191L80.7659 110.311ZM78.2157 108.447L76.6322 109.669C76.6369 109.675 76.6417 109.681 76.6464 109.687L78.2157 108.447ZM77.3098 101.843L79.1601 102.602L79.1651 102.59L77.3098 101.843ZM79.2663 99.3243L80.4401 100.944L79.2663 99.3243ZM85.7149 98.418L85.0329 100.298L85.7149 98.418ZM88.2899 100.3L86.7124 101.529L86.7206 101.54L88.2899 100.3ZM89.1958 106.904L87.3491 106.136L87.3456 106.145L89.1958 106.904ZM87.2145 109.404L86.0507 107.778L86.0407 107.785L87.2145 109.404ZM85.3422 106.357L83.7281 105.176C83.7224 105.184 83.7168 105.192 83.7112 105.2L85.3422 106.357ZM84.7332 101.866L83.4614 103.41C83.469 103.416 83.4767 103.422 83.4845 103.428L84.7332 101.866ZM81.1386 102.371L82.7705 103.528C82.776 103.52 82.7813 103.512 82.7866 103.505L81.1386 102.371ZM81.7475 106.862L80.4522 108.386C80.4599 108.393 80.4678 108.399 80.4756 108.406L81.7475 106.862ZM83.819 108.639C82.9193 108.766 82.1415 108.682 81.4478 108.43L80.0839 112.191C81.4502 112.686 82.8935 112.809 84.3757 112.6L83.819 108.639ZM81.4598 108.435C80.7961 108.189 80.2466 107.792 79.785 107.207L76.6464 109.687C77.5541 110.836 78.7046 111.681 80.072 112.186L81.4598 108.435ZM79.7993 107.226C79.3735 106.674 79.0621 105.947 78.9248 104.971L74.9637 105.528C75.1816 107.078 75.7179 108.484 76.6322 109.669L79.7993 107.226ZM78.9248 104.971C78.7915 104.022 78.8937 103.251 79.1601 102.602L75.4595 101.084C74.8874 102.478 74.746 103.978 74.9637 105.528L78.9248 104.971ZM79.1651 102.59C79.4446 101.896 79.8638 101.361 80.4401 100.944L78.0925 97.705C76.8945 98.5734 76.0094 99.7181 75.4545 101.096L79.1651 102.59ZM80.4401 100.944C81.0376 100.511 81.7621 100.216 82.6618 100.089L82.1051 96.1281C80.6229 96.3365 79.2693 96.852 78.0925 97.705L80.4401 100.944ZM82.6618 100.089C83.5615 99.9628 84.3392 100.047 85.0329 100.298L86.3969 96.5379C85.0306 96.0423 83.5873 95.9198 82.1051 96.1281L82.6618 100.089ZM85.0329 100.298C85.702 100.541 86.2524 100.939 86.7124 101.529L89.8674 99.0705C88.9542 97.8988 87.7879 97.0425 86.3969 96.5379L85.0329 100.298ZM86.7206 101.54C87.1555 102.09 87.4662 102.803 87.5995 103.752L91.5606 103.195C91.3428 101.645 90.7935 100.243 89.8592 99.0601L86.7206 101.54ZM87.5995 103.752C87.7315 104.69 87.6272 105.467 87.3491 106.136L91.0425 107.672C91.6279 106.265 91.7798 104.754 91.5606 103.195L87.5995 103.752ZM87.3456 106.145C87.0697 106.817 86.6479 107.35 86.0508 107.778L88.3782 111.031C89.5844 110.168 90.4835 109.034 91.0461 107.663L87.3456 106.145ZM86.0407 107.785C85.4432 108.218 84.7187 108.513 83.819 108.639L84.3757 112.6C85.8579 112.392 87.2115 111.877 88.3883 111.024L86.0407 107.785ZM83.9225 109.376C85.1856 109.199 86.2382 108.55 86.9732 107.515L83.7112 105.2C83.6055 105.349 83.5261 105.393 83.3658 105.415L83.9225 109.376ZM86.9563 107.538C87.7902 106.398 87.9542 105.039 87.7699 103.728L83.8088 104.284C83.898 104.919 83.7639 105.127 83.7281 105.176L86.9563 107.538ZM87.7699 103.728C87.5876 102.431 87.0717 101.175 85.982 100.304L83.4845 103.428C83.5294 103.464 83.7175 103.635 83.8088 104.284L87.7699 103.728ZM86.0051 100.323C85.0181 99.5094 83.8229 99.1747 82.5582 99.3525L83.1149 103.314C83.2736 103.291 83.3429 103.312 83.4614 103.41L86.0051 100.323ZM82.5582 99.3525C81.2919 99.5304 80.2225 100.174 79.4905 101.238L82.7866 103.505C82.8663 103.389 82.9289 103.34 83.1149 103.314L82.5582 99.3525ZM79.5066 101.215C78.7009 102.353 78.5741 103.711 78.7545 104.995L82.7155 104.438C82.6183 103.746 82.7605 103.542 82.7705 103.528L79.5066 101.215ZM78.7545 104.995C78.9328 106.263 79.4168 107.506 80.4522 108.386L83.0429 105.339C83.0017 105.304 82.8108 105.116 82.7155 104.438L78.7545 104.995ZM80.4756 108.406C81.4627 109.219 82.6578 109.554 83.9225 109.376L83.3658 105.415C83.2072 105.437 83.1379 105.417 83.0194 105.319L80.4756 108.406ZM102.706 95.4302L104.687 95.1519C104.533 94.0581 103.522 93.296 102.428 93.4497L102.706 95.4302ZM104.415 107.587L104.693 109.567C105.787 109.414 106.549 108.402 106.395 107.308L104.415 107.587ZM100.689 108.11L98.7088 108.389C98.8625 109.482 99.8739 110.245 100.968 110.091L100.689 108.11ZM100.457 106.455L102.437 106.176C102.316 105.312 101.649 104.627 100.788 104.482C99.9282 104.338 99.0735 104.767 98.6762 105.544L100.457 106.455ZM99.0936 107.979L100.228 109.626C100.233 109.623 100.238 109.619 100.243 109.616L99.0936 107.979ZM94.4784 108.494L93.7092 110.341C93.7186 110.345 93.728 110.348 93.7374 110.352L94.4784 108.494ZM92.5685 106.919L90.9216 108.054L92.5685 106.919ZM90.5933 97.1326L90.315 95.1521C89.2211 95.3058 88.459 96.3171 88.6128 97.4109L90.5933 97.1326ZM94.2969 96.6121L96.2774 96.3337C96.1237 95.2399 95.1124 94.4778 94.0186 94.6315L94.2969 96.6121ZM96.1228 105.02L94.8666 106.576L96.1228 105.02ZM99.5432 104.539L97.9067 103.389L99.5432 104.539ZM98.9809 95.9538L98.7025 93.9733C97.6087 94.127 96.8466 95.1383 97.0003 96.2321L98.9809 95.9538ZM100.726 95.7086L102.434 107.865L106.395 107.308L104.687 95.1519L100.726 95.7086ZM104.136 105.606L100.411 106.13L100.968 110.091L104.693 109.567L104.136 105.606ZM102.67 107.832L102.437 106.176L98.4761 106.733L98.7088 108.389L102.67 107.832ZM98.6762 105.544C98.539 105.812 98.3164 106.081 97.9444 106.342L100.243 109.616C101.084 109.025 101.77 108.278 102.237 107.366L98.6762 105.544ZM97.9589 106.332C97.6447 106.549 97.2549 106.707 96.7476 106.778L97.3043 110.739C98.3655 110.59 99.3542 110.228 100.228 109.626L97.9589 106.332ZM96.7476 106.778C96.1157 106.867 95.6235 106.798 95.2193 106.637L93.7374 110.352C94.8709 110.804 96.0771 110.911 97.3043 110.739L96.7476 106.778ZM95.2476 106.648C94.8534 106.484 94.5135 106.217 94.2155 105.784L90.9216 108.054C91.6282 109.079 92.5616 109.863 93.7092 110.341L95.2476 106.648ZM94.2155 105.784C93.9224 105.359 93.6867 104.773 93.572 103.956L89.6109 104.513C89.7942 105.817 90.2099 107.021 90.9216 108.054L94.2155 105.784ZM93.572 103.956L92.5738 96.8542L88.6128 97.4109L89.6109 104.513L93.572 103.956ZM90.8716 99.1131L94.5752 98.5926L94.0186 94.6315L90.315 95.1521L90.8716 99.1131ZM92.3164 96.8904L93.2441 103.492L97.2052 102.935L96.2774 96.3337L92.3164 96.8904ZM93.2441 103.492C93.4059 104.643 93.8746 105.775 94.8666 106.576L97.379 103.464C97.3784 103.463 97.3577 103.449 97.3258 103.384C97.2903 103.313 97.2388 103.174 97.2052 102.935L93.2441 103.492ZM94.8666 106.576C95.8496 107.369 97.0281 107.601 98.1954 107.437L97.6387 103.476C97.492 103.496 97.4232 103.483 97.4075 103.479C97.3989 103.477 97.396 103.475 97.3956 103.475C97.3952 103.475 97.3899 103.472 97.379 103.464L94.8666 106.576ZM98.1954 107.437C99.3636 107.273 100.447 106.732 101.18 105.689L97.9067 103.389C97.9032 103.394 97.9009 103.397 97.8997 103.398C97.8985 103.4 97.8978 103.4 97.8976 103.401C97.8973 103.401 97.8967 103.401 97.8952 103.402C97.8938 103.404 97.8908 103.406 97.8856 103.408C97.8675 103.419 97.7975 103.453 97.6387 103.476L98.1954 107.437ZM101.18 105.689C101.913 104.646 102.051 103.428 101.889 102.277L97.9281 102.833C97.9617 103.072 97.9505 103.22 97.9361 103.299C97.9231 103.369 97.9071 103.389 97.9067 103.389L101.18 105.689ZM101.889 102.277L100.961 95.6754L97.0003 96.2321L97.9281 102.833L101.889 102.277ZM99.2592 97.9343L102.985 97.4108L102.428 93.4497L98.7025 93.9733L99.2592 97.9343ZM105.793 97.8179L103.925 97.1018C103.923 97.1092 103.92 97.1166 103.917 97.124L105.793 97.8179ZM107.643 95.3362L106.449 93.732L106.438 93.7401L107.643 95.3362ZM114.698 94.7891L113.693 96.5184L113.705 96.5252L114.698 94.7891ZM117.199 97.8811L117.477 99.8617C118.077 99.7773 118.606 99.4256 118.917 98.9051C119.227 98.3846 119.284 97.7516 119.073 97.1837L117.199 97.8811ZM113.234 98.4384L111.464 99.3701C111.857 100.117 112.676 100.536 113.512 100.419L113.234 98.4384ZM109.578 98.3523L111.312 99.3485C111.317 99.3409 111.321 99.3332 111.325 99.3255L109.578 98.3523ZM110.218 102.906L108.807 104.323C108.813 104.329 108.819 104.335 108.825 104.341L110.218 102.906ZM113.705 101.793L113.427 99.8129C112.591 99.9303 111.919 100.559 111.747 101.386L113.705 101.793ZM117.67 101.236L119.664 101.398C119.713 100.793 119.484 100.198 119.042 99.7812C118.601 99.3645 117.993 99.1711 117.392 99.2556L117.67 101.236ZM116.116 104.876L114.67 103.493L116.116 104.876ZM109.187 106.316L108.468 108.183L108.481 108.187L109.187 106.316ZM106.724 104.441L105.112 105.625C105.116 105.631 105.121 105.638 105.126 105.644L106.724 104.441ZM107.476 100.958C107.336 99.9638 107.427 99.1658 107.669 98.5118L103.917 97.124C103.408 98.501 103.3 99.9821 103.515 101.515L107.476 100.958ZM107.66 98.534C107.921 97.8546 108.313 97.3364 108.849 96.9323L106.438 93.7401C105.286 94.6098 104.445 95.7461 103.925 97.1018L107.66 98.534ZM108.838 96.9403C109.395 96.5255 110.095 96.2338 110.995 96.1072L110.439 92.1461C108.957 92.3543 107.608 92.869 106.449 93.7321L108.838 96.9403ZM110.995 96.1072C112.159 95.9436 113.018 96.1263 113.693 96.5184L115.703 93.0598C114.12 92.14 112.325 91.8811 110.439 92.1461L110.995 96.1072ZM113.705 96.5252C114.386 96.9144 114.94 97.5447 115.324 98.5785L119.073 97.1837C118.41 95.4026 117.297 93.9715 115.691 93.0529L113.705 96.5252ZM116.92 95.9006L112.955 96.4578L113.512 100.419L117.477 99.8617L116.92 95.9006ZM115.003 97.5066C114.628 96.7941 114.074 96.1417 113.282 95.7255C112.484 95.3066 111.628 95.2225 110.82 95.336L111.377 99.2971C111.457 99.2859 111.49 99.2911 111.488 99.2907C111.486 99.2905 111.478 99.2892 111.465 99.285C111.452 99.2807 111.436 99.2745 111.421 99.2665C111.388 99.2488 111.374 99.2332 111.379 99.2387C111.386 99.2464 111.418 99.2832 111.464 99.3701L115.003 97.5066ZM110.82 95.336C109.527 95.5178 108.471 96.229 107.831 97.3791L111.325 99.3255C111.334 99.31 111.341 99.2995 111.345 99.2932C111.348 99.29 111.349 99.2877 111.35 99.2863C111.351 99.2849 111.352 99.2842 111.352 99.2842C111.352 99.2842 111.352 99.2848 111.351 99.2858C111.35 99.2868 111.348 99.2882 111.346 99.2898C111.342 99.2931 111.338 99.2968 111.332 99.3005C111.321 99.3085 111.313 99.3112 111.315 99.3105C111.318 99.3094 111.337 99.3028 111.377 99.2971L110.82 95.336ZM107.844 97.3561C107.204 98.4705 107.134 99.761 107.306 100.982L111.267 100.425C111.161 99.6713 111.286 99.3942 111.312 99.3485L107.844 97.3561ZM107.306 100.982C107.478 102.208 107.902 103.421 108.807 104.323L111.629 101.488C111.57 101.429 111.372 101.174 111.267 100.425L107.306 100.982ZM108.825 104.341C109.764 105.252 110.968 105.62 112.24 105.441L111.684 101.48C111.64 101.486 111.616 101.485 111.61 101.484C111.604 101.484 111.609 101.484 111.62 101.488C111.632 101.491 111.64 101.496 111.642 101.497C111.644 101.498 111.633 101.492 111.61 101.47L108.825 104.341ZM112.24 105.441C113.048 105.327 113.848 105.01 114.499 104.388C115.146 103.77 115.499 102.99 115.663 102.201L111.747 101.386C111.727 101.482 111.706 101.526 111.702 101.535C111.698 101.542 111.707 101.523 111.735 101.497C111.747 101.485 111.76 101.475 111.772 101.467C111.783 101.459 111.791 101.456 111.792 101.455C111.794 101.454 111.764 101.468 111.684 101.48L112.24 105.441ZM113.983 103.774L117.948 103.217L117.392 99.2556L113.427 99.8129L113.983 103.774ZM115.677 101.074C115.59 102.138 115.234 102.904 114.67 103.493L117.561 106.259C118.83 104.931 119.511 103.27 119.664 101.398L115.677 101.074ZM114.67 103.493C114.11 104.079 113.332 104.492 112.196 104.651L112.753 108.612C114.638 108.347 116.287 107.589 117.561 106.259L114.67 103.493ZM112.196 104.651C111.295 104.778 110.543 104.69 109.893 104.445L108.481 108.187C109.833 108.698 111.272 108.82 112.753 108.612L112.196 104.651ZM109.905 104.45C109.279 104.209 108.759 103.819 108.321 103.238L105.126 105.644C105.999 106.804 107.121 107.664 108.468 108.183L109.905 104.45ZM108.335 103.257C107.923 102.695 107.616 101.953 107.476 100.958L103.515 101.515C103.731 103.048 104.243 104.442 105.112 105.625L108.335 103.257ZM129.578 92.9422L128.297 94.4784C128.301 94.4817 128.305 94.4851 128.309 94.4884L129.578 92.9422ZM132.373 103.658L132.651 105.638C133.745 105.484 134.507 104.473 134.353 103.379L132.373 103.658ZM128.669 104.178L126.688 104.456C126.842 105.55 127.853 106.312 128.947 106.159L128.669 104.178ZM126.843 95.7703L125.587 97.3266L125.587 97.3266L126.843 95.7703ZM123.444 96.248L125.081 97.3977L125.081 97.3977L123.444 96.248ZM124.007 104.833L124.285 106.814C125.379 106.66 126.141 105.649 125.987 104.555L124.007 104.833ZM120.281 105.357L118.301 105.635C118.455 106.729 119.466 107.491 120.56 107.337L120.281 105.357ZM118.016 89.2353L117.737 87.2548C116.643 87.4085 115.881 88.4198 116.035 89.5136L118.016 89.2353ZM121.741 88.7117L123.722 88.4334C123.568 87.3396 122.556 86.5775 121.463 86.7312L121.741 88.7117ZM122.528 94.3107L120.547 94.589C120.669 95.4528 121.336 96.1383 122.196 96.283C123.056 96.4277 123.911 95.9982 124.308 95.2217L122.528 94.3107ZM123.894 92.8079L122.774 91.1509L122.774 91.1509L123.894 92.8079ZM126.305 93.9999C127.21 93.8728 127.809 94.0713 128.297 94.4784L130.859 91.406C129.401 90.1908 127.633 89.7741 125.749 90.0389L126.305 93.9999ZM128.309 94.4884C128.788 94.8813 129.216 95.5668 129.394 96.8337L133.355 96.277C133.08 94.3196 132.31 92.5963 130.847 91.396L128.309 94.4884ZM129.394 96.8337L130.392 103.936L134.353 103.379L133.355 96.277L129.394 96.8337ZM132.094 101.677L128.391 102.198L128.947 106.159L132.651 105.638L132.094 101.677ZM130.649 103.9L129.722 97.2986L125.761 97.8553L126.688 104.456L130.649 103.9ZM129.722 97.2986C129.56 96.1474 129.091 95.0148 128.099 94.2141L125.587 97.3266C125.587 97.3271 125.608 97.3414 125.64 97.4056C125.676 97.4771 125.727 97.6161 125.761 97.8553L129.722 97.2986ZM128.099 94.2141C127.116 93.4206 125.938 93.1892 124.77 93.3533L125.327 97.3143C125.474 97.2937 125.543 97.3074 125.558 97.3112C125.567 97.3133 125.57 97.3149 125.57 97.3151C125.571 97.3153 125.576 97.3178 125.587 97.3266L128.099 94.2141ZM124.77 93.3533C123.603 93.5173 122.534 94.0646 121.808 95.0982L125.081 97.3977C125.089 97.3863 125.093 97.3824 125.094 97.382C125.094 97.3817 125.096 97.3795 125.104 97.3751C125.118 97.3671 125.18 97.335 125.327 97.3143L124.77 93.3533ZM121.808 95.0982C121.075 96.1414 120.937 97.3594 121.098 98.5105L125.06 97.9538C125.026 97.7146 125.037 97.5668 125.052 97.4883C125.065 97.4178 125.08 97.3984 125.081 97.3977L121.808 95.0982ZM121.098 98.5105L122.026 105.112L125.987 104.555L125.06 97.9538L121.098 98.5105ZM123.728 102.853L120.003 103.376L120.56 107.337L124.285 106.814L123.728 102.853ZM122.262 105.079L119.996 88.9569L116.035 89.5136L118.301 105.635L122.262 105.079ZM118.294 91.2158L122.019 90.6923L121.463 86.7312L117.737 87.2548L118.294 91.2158ZM119.76 88.9901L120.547 94.589L124.508 94.0323L123.722 88.4334L119.76 88.9901ZM124.308 95.2217C124.441 94.963 124.654 94.7081 125.014 94.465L122.774 91.1509C121.917 91.7305 121.219 92.4775 120.747 93.3997L124.308 95.2217ZM125.014 94.465C125.342 94.2433 125.758 94.0769 126.305 93.9999L125.749 90.0389C124.67 90.1905 123.663 90.5498 122.774 91.1509L125.014 94.465ZM145.627 96.5073L145.905 98.4879C146.911 98.3465 147.651 97.4734 147.626 96.4579L145.627 96.5073ZM137.195 97.6923L136.917 95.7117C136.365 95.7893 135.871 96.0934 135.553 96.5508C135.235 97.0083 135.123 97.5776 135.242 98.1217L137.195 97.6923ZM138.159 99.3341L136.984 100.952C137.003 100.966 137.022 100.979 137.041 100.992L138.159 99.3341ZM141.606 98.2499L141.328 96.2693C140.556 96.3778 139.918 96.9246 139.692 97.6704L141.606 98.2499ZM145.571 97.6926L147.559 97.9114C147.627 97.2978 147.407 96.6873 146.964 96.2574C146.521 95.8274 145.904 95.6262 145.293 95.7121L145.571 97.6926ZM144.763 100.006L143.068 98.9439C143.063 98.9515 143.059 98.9592 143.054 98.9669L144.763 100.006ZM142.992 101.787L144.065 103.475L142.992 101.787ZM137.101 102.393L136.395 104.264L137.101 102.393ZM134.616 100.521L136.214 99.3177L134.616 100.521ZM133.663 93.9009L131.796 93.1849C131.793 93.1922 131.79 93.1996 131.788 93.207L133.663 93.9009ZM135.536 91.4162L136.73 93.0203L135.536 91.4162ZM141.872 90.5034L141.177 92.3785L141.177 92.3785L141.872 90.5034ZM144.304 92.3166L142.708 93.5217C142.713 93.5281 142.718 93.5345 142.723 93.5409L144.304 92.3166ZM141.589 94.9643L141.867 96.9449C142.961 96.7911 143.723 95.7798 143.569 94.686L141.589 94.9643ZM140.721 93.5312L141.807 91.8522L141.807 91.8522L140.721 93.5312ZM137.493 93.9625L136.012 92.6192C136.004 92.6275 135.997 92.6358 135.989 92.6442L137.493 93.9625ZM136.926 95.6195L134.927 95.5968C134.92 96.1797 135.168 96.7365 135.606 97.1215C136.043 97.5064 136.627 97.6812 137.205 97.6001L136.926 95.6195ZM143.558 95.6872C143.596 95.9535 143.619 96.2429 143.627 96.5568L147.626 96.4579C147.615 96.0043 147.58 95.5614 147.519 95.1305L143.558 95.6872ZM145.348 94.5268L136.917 95.7117L137.474 99.6728L145.905 98.4879L145.348 94.5268ZM135.242 98.1217C135.48 99.2028 136.005 100.241 136.984 100.952L139.335 97.716C139.334 97.7157 139.316 97.7043 139.284 97.6505C139.249 97.5908 139.195 97.4719 139.149 97.2628L135.242 98.1217ZM137.041 100.992C137.97 101.619 139.032 101.831 140.111 101.679L139.554 97.7183C139.384 97.7422 139.33 97.7114 139.277 97.6758L137.041 100.992ZM140.111 101.679C140.855 101.575 141.601 101.308 142.238 100.787C142.884 100.26 143.296 99.5713 143.52 98.8293L139.692 97.6704C139.676 97.7231 139.664 97.7387 139.669 97.7319C139.674 97.7232 139.688 97.7061 139.708 97.6897C139.727 97.674 139.735 97.6731 139.718 97.6801C139.699 97.6878 139.648 97.7051 139.554 97.7183L140.111 101.679ZM141.884 100.23L145.849 99.6732L145.293 95.7121L141.328 96.2693L141.884 100.23ZM143.583 97.4738C143.525 97.9978 143.358 98.4812 143.068 98.9439L146.458 101.067C147.063 100.101 147.435 99.0422 147.559 97.9114L143.583 97.4738ZM143.054 98.9669C142.79 99.4007 142.424 99.7783 141.919 100.1L144.065 103.475C145.055 102.846 145.87 102.036 146.472 101.044L143.054 98.9669ZM141.919 100.1C141.441 100.404 140.851 100.624 140.11 100.728L140.667 104.689C141.902 104.516 143.047 104.122 144.065 103.475L141.919 100.1ZM140.11 100.728C139.21 100.855 138.457 100.767 137.807 100.522L136.395 104.264C137.747 104.775 139.186 104.897 140.667 104.689L140.11 100.728ZM137.807 100.522C137.167 100.281 136.646 99.8916 136.214 99.3177L133.018 101.724C133.897 102.891 135.032 103.75 136.395 104.264L137.807 100.522ZM136.214 99.3177C135.794 98.7609 135.485 98.0267 135.347 97.0412L131.386 97.5979C131.602 99.1395 132.126 100.539 133.018 101.724L136.214 99.3177ZM135.347 97.0412C135.207 96.0468 135.297 95.2488 135.539 94.5948L131.788 93.207C131.278 94.584 131.17 96.0651 131.386 97.5979L135.347 97.0412ZM135.531 94.617C135.788 93.9463 136.182 93.4285 136.73 93.0203L134.341 89.8121C133.173 90.6817 132.319 91.8205 131.796 93.1849L135.531 94.617ZM136.73 93.0203C137.284 92.6078 137.99 92.3134 138.91 92.1841L138.353 88.223C136.862 88.4326 135.504 88.9466 134.341 89.8121L136.73 93.0203ZM138.91 92.1841C139.801 92.0588 140.542 92.1431 141.177 92.3785L142.568 88.6283C141.234 88.1333 139.814 88.0177 138.353 88.223L138.91 92.1841ZM141.177 92.3785C141.801 92.61 142.3 92.9807 142.708 93.5217L145.901 91.1114C145.035 89.9653 143.913 89.1272 142.568 88.6283L141.177 92.3785ZM142.723 93.5409C143.13 94.0664 143.428 94.7569 143.558 95.6872L147.519 95.1305C147.307 93.6208 146.782 92.2498 145.886 91.0923L142.723 93.5409ZM143.569 94.686C143.408 93.5424 142.839 92.5202 141.807 91.8522L139.634 95.2101C139.638 95.2128 139.632 95.2094 139.621 95.1984C139.61 95.1872 139.601 95.1744 139.593 95.1628C139.587 95.1515 139.587 95.1482 139.59 95.1582C139.594 95.1687 139.601 95.1954 139.608 95.2427L143.569 94.686ZM141.807 91.8522C140.861 91.2394 139.791 91.0645 138.729 91.2138L139.285 95.1749C139.53 95.1405 139.603 95.1902 139.634 95.2101L141.807 91.8522ZM138.729 91.2138C137.691 91.3597 136.743 91.8125 136.012 92.6192L138.975 95.3058C139.013 95.2638 139.074 95.2046 139.285 95.1749L138.729 91.2138ZM135.989 92.6442C135.241 93.4984 134.939 94.5442 134.927 95.5968L138.926 95.6423C138.928 95.4786 138.951 95.3852 138.966 95.3409C138.98 95.3016 138.991 95.2881 138.997 95.2809L135.989 92.6442ZM137.205 97.6001L141.867 96.9449L141.31 92.9838L136.648 93.639L137.205 97.6001ZM150.688 90.753L148.707 91.0313C148.83 91.9078 149.515 92.5991 150.39 92.7307C151.265 92.8624 152.123 92.4032 152.499 91.6017L150.688 90.753ZM152.101 88.9548L153.333 90.5304C153.342 90.5236 153.35 90.5168 153.359 90.5099L152.101 88.9548ZM154.197 88.0604L156.178 87.782C156.024 86.6882 155.013 85.9261 153.919 86.0798L154.197 88.0604ZM154.751 92.0036L155.03 93.9841C156.123 93.8304 156.886 92.8191 156.732 91.7253L154.751 92.0036ZM151.722 93.0515L153.212 94.3857C153.22 94.3767 153.227 94.3677 153.235 94.3587L151.722 93.0515ZM152.111 100.883L152.39 102.864C153.484 102.71 154.246 101.699 154.092 100.605L152.111 100.883ZM148.386 101.407L146.405 101.685C146.559 102.779 147.571 103.541 148.664 103.388L148.386 101.407ZM146.678 89.2505L146.399 87.2699C145.305 87.4237 144.543 88.435 144.697 89.5288L146.678 89.2505ZM150.403 88.7269L152.383 88.4486C152.23 87.3547 151.218 86.5926 150.125 86.7464L150.403 88.7269ZM152.499 91.6017C152.715 91.1402 152.994 90.7954 153.333 90.5304L150.869 87.3791C150.007 88.053 149.344 88.9071 148.877 89.9042L152.499 91.6017ZM153.359 90.5099C153.662 90.265 154.018 90.1053 154.475 90.0409L153.919 86.0798C152.779 86.24 151.738 86.6766 150.843 87.3997L153.359 90.5099ZM152.217 88.3387L152.771 92.282L156.732 91.7253L156.178 87.782L152.217 88.3387ZM154.473 90.0231L153.449 90.167L154.006 94.1281L155.03 93.9841L154.473 90.0231ZM153.449 90.167C152.274 90.3321 151.059 90.7591 150.208 91.7442L153.235 94.3587C153.2 94.3998 153.321 94.2242 154.006 94.1281L153.449 90.167ZM150.232 91.7172C149.234 92.831 149.167 94.3026 149.338 95.5192L153.299 94.9625C153.248 94.6024 153.263 94.3964 153.28 94.3041C153.295 94.2252 153.299 94.2883 153.212 94.3857L150.232 91.7172ZM149.338 95.5192L150.131 101.162L154.092 100.605L153.299 94.9625L149.338 95.5192ZM151.833 98.9029L148.108 99.4265L148.664 103.388L152.39 102.864L151.833 98.9029ZM150.367 101.129L148.658 88.9721L144.697 89.5288L146.405 101.685L150.367 101.129ZM146.956 91.231L150.681 90.7074L150.125 86.7464L146.399 87.2699L146.956 91.231ZM148.422 89.0052L148.707 91.0313L152.668 90.4746L152.383 88.4486L148.422 89.0052Z" fill="#4F0599"/>
</g>
<defs>
<filter id="filter0_d_674_63765" x="24.55" y="23.5674" width="203.673" height="123.166" filterUnits="userSpaceOnUse" color-interpolation-filters="sRGB">
<feFlood flood-opacity="0" result="BackgroundImageFix"/>
<feColorMatrix in="SourceAlpha" type="matrix" values="0 0 0 0 0 0 0 0 0 0 0 0 0 0 0 0 0 0 127 0" result="hardAlpha"/>
<feOffset dy="1.9341"/>
<feComposite in2="hardAlpha" operator="out"/>
<feColorMatrix type="matrix" values="0 0 0 0 0.831373 0 0 0 0 0.854902 0 0 0 0 0.905882 0 0 0 1 0"/>
<feBlend mode="normal" in2="BackgroundImageFix" result="effect1_dropShadow_674_63765"/>
<feBlend mode="normal" in="SourceGraphic" in2="effect1_dropShadow_674_63765" result="shape"/>
</filter>
<filter id="filter1_d_674_63765" x="60.4768" y="57.3135" width="90.0535" height="40.8652" filterUnits="userSpaceOnUse" color-interpolation-filters="sRGB">
<feFlood flood-opacity="0" result="BackgroundImageFix"/>
<feColorMatrix in="SourceAlpha" type="matrix" values="0 0 0 0 0 0 0 0 0 0 0 0 0 0 0 0 0 0 127 0" result="hardAlpha"/>
<feOffset dy="2"/>
<feComposite in2="hardAlpha" operator="out"/>
<feColorMatrix type="matrix" values="0 0 0 0 0.309804 0 0 0 0 0.0196078 0 0 0 0 0.6 0 0 0 1 0"/>
<feBlend mode="normal" in2="BackgroundImageFix" result="effect1_dropShadow_674_63765"/>
<feBlend mode="normal" in="SourceGraphic" in2="effect1_dropShadow_674_63765" result="shape"/>
</filter>
<filter id="filter2_d_674_63765" x="61.4814" y="84.2256" width="94.467" height="31.251" filterUnits="userSpaceOnUse" color-interpolation-filters="sRGB">
<feFlood flood-opacity="0" result="BackgroundImageFix"/>
<feColorMatrix in="SourceAlpha" type="matrix" values="0 0 0 0 0 0 0 0 0 0 0 0 0 0 0 0 0 0 127 0" result="hardAlpha"/>
<feOffset dy="2"/>
<feComposite in2="hardAlpha" operator="out"/>
<feColorMatrix type="matrix" values="0 0 0 0 0.309804 0 0 0 0 0.0196078 0 0 0 0 0.6 0 0 0 1 0"/>
<feBlend mode="normal" in2="BackgroundImageFix" result="effect1_dropShadow_674_63765"/>
<feBlend mode="normal" in="SourceGraphic" in2="effect1_dropShadow_674_63765" result="shape"/>
</filter>
<radialGradient id="paint0_radial_674_63765" cx="0" cy="0" r="1" gradientUnits="userSpaceOnUse" gradientTransform="translate(193.271 97.2584) rotate(-126.737) scale(182.682 234.264)">
<stop offset="0.166667" stop-color="#9D14DD"/>
<stop offset="0.854167" stop-color="#4F0599"/>
</radialGradient>
<clipPath id="clip0_674_63765">
<rect width="231" height="149" fill="white" transform="translate(13 8.99902)"/>
</clipPath>
<clipPath id="clip1_674_63765">
<rect width="214" height="87" fill="white" transform="translate(24 84.999)"/>
</clipPath>
</defs>
</svg>
