<svg width="600" height="118" viewBox="0 0 600 118" fill="none" xmlns="http://www.w3.org/2000/svg">
<g clip-path="url(#clip0_674_63892)">
<ellipse cx="295.303" cy="61.1809" rx="50.7861" ry="51.3064" fill="#46048B"/>
<ellipse cx="418.976" cy="64.0408" rx="50.7861" ry="51.3064" fill="#46048B"/>
<ellipse cx="464.875" cy="61.1809" rx="50.7861" ry="51.3064" fill="#46048B"/>
<ellipse cx="560.497" cy="39.2849" rx="11.6872" ry="11.8069" fill="#46048B"/>
<ellipse cx="537.122" cy="91.6648" rx="50.7861" ry="51.3064" fill="#46048B"/>
<ellipse cx="609.795" cy="51.3064" rx="50.7861" ry="51.3064" fill="#46048B"/>
<ellipse cx="173.757" cy="71.4851" rx="37.6115" ry="37.9968" fill="#46048B"/>
<ellipse cx="94.4968" cy="97.4604" rx="60.7734" ry="61.396" fill="#46048B"/>
<ellipse cx="27.7734" cy="94.8842" rx="60.7734" ry="61.396" fill="#46048B"/>
<ellipse cx="354.377" cy="91.6648" rx="50.7861" ry="51.3064" fill="#46048B"/>
<ellipse cx="222.631" cy="91.6648" rx="50.7861" ry="51.3064" fill="#46048B"/>
<ellipse cx="336.902" cy="110.078" rx="64.0276" ry="64.6835" fill="#EEEEFF"/>
<ellipse cx="442.819" cy="93.6835" rx="64.0276" ry="64.6835" fill="#EEEEFF"/>
<ellipse cx="500.685" cy="120.078" rx="64.0276" ry="64.6835" fill="#EEEEFF"/>
<ellipse cx="591.77" cy="128.51" rx="64.0276" ry="64.6835" fill="#EEEEFF"/>
<ellipse cx="133.665" cy="103.069" rx="47.4179" ry="47.9037" fill="#EEEEFF"/>
<ellipse cx="33.7389" cy="135.817" rx="76.6188" ry="77.4037" fill="#EEEEFF"/>
<ellipse cx="-50.3812" cy="132.569" rx="76.6188" ry="77.4037" fill="#EEEEFF"/>
<ellipse cx="361.377" cy="128.51" rx="64.0276" ry="64.6835" fill="#EEEEFF"/>
<ellipse cx="195.281" cy="128.51" rx="64.0276" ry="64.6835" fill="#EEEEFF"/>
<ellipse cx="15.3529" cy="172.203" rx="100.097" ry="101.123" fill="white"/>
<ellipse cx="259.106" cy="123.123" rx="100.097" ry="101.123" fill="white"/>
<ellipse cx="159.158" cy="175.809" rx="100.097" ry="101.123" fill="white"/>
<ellipse cx="349.571" cy="172.203" rx="100.097" ry="101.123" fill="white"/>
<ellipse cx="538.037" cy="129.046" rx="23.0349" ry="23.2709" fill="white"/>
<ellipse cx="491.669" cy="124.294" rx="100.097" ry="101.123" fill="white"/>
<ellipse cx="635.203" cy="152.74" rx="100.097" ry="101.123" fill="white"/>
</g>
<defs>
<clipPath id="clip0_674_63892">
<rect width="600" height="118" fill="white"/>
</clipPath>
</defs>
</svg>
