<svg width="600" height="100" viewBox="0 0 600 100" fill="none" xmlns="http://www.w3.org/2000/svg">
<g clip-path="url(#clip0_664_65288)">
<ellipse cx="-39.5013" cy="166.353" rx="109.656" ry="110.78" fill="#EEEEFF"/>
<ellipse cx="141.896" cy="138.275" rx="109.656" ry="110.78" fill="#EEEEFF"/>
<ellipse cx="241.001" cy="183.48" rx="109.656" ry="110.78" fill="#EEEEFF"/>
<ellipse cx="447.466" cy="84.8233" rx="25.2347" ry="25.4933" fill="#EEEEFF"/>
<ellipse cx="396.997" cy="197.919" rx="109.656" ry="110.78" fill="#EEEEFF"/>
<ellipse cx="553.911" cy="110.779" rx="109.656" ry="110.78" fill="#EEEEFF"/>
<ellipse cx="2.41624" cy="197.919" rx="109.656" ry="110.78" fill="#EEEEFF"/>
<ellipse cx="66.3622" cy="161.239" rx="81.8957" ry="82.7346" fill="white"/>
<ellipse cx="201.837" cy="140.269" rx="81.8957" ry="82.7346" fill="white"/>
<ellipse cx="275.852" cy="174.03" rx="81.8957" ry="82.7346" fill="white"/>
<ellipse cx="430.048" cy="100.349" rx="18.8463" ry="19.0394" fill="white"/>
<ellipse cx="392.356" cy="184.814" rx="81.8957" ry="82.7346" fill="white"/>
<ellipse cx="509.546" cy="119.734" rx="81.8957" ry="82.7346" fill="white"/>
<ellipse cx="97.6682" cy="184.814" rx="81.8957" ry="82.7346" fill="white"/>
<ellipse cx="49.0716" cy="176.202" rx="100.097" ry="101.123" fill="#4F0599"/>
<ellipse cx="261.097" cy="160.122" rx="100.097" ry="101.123" fill="#4F0599"/>
<ellipse cx="192.877" cy="179.808" rx="100.097" ry="101.123" fill="#4F0599"/>
<ellipse cx="383.5" cy="175.999" rx="81.5" ry="82" fill="#4F0599"/>
<ellipse cx="571.756" cy="133.045" rx="23.0349" ry="23.2709" fill="#4F0599"/>
<ellipse cx="605.388" cy="138.293" rx="100.097" ry="101.123" fill="#4F0599"/>
<ellipse cx="517.097" cy="147.122" rx="100.097" ry="101.123" fill="#4F0599"/>
<ellipse cx="668.922" cy="156.74" rx="100.097" ry="101.123" fill="#4F0599"/>
</g>
<rect width="600" height="763" transform="translate(0 122)" fill="#4F0599"/>
<defs>
<clipPath id="clip0_664_65288">
<rect width="600" height="122" fill="white" transform="translate(0 -0.000976562)"/>
</clipPath>
</defs>
</svg>
