<svg width="600" height="346" viewBox="0 0 600 346" fill="none" xmlns="http://www.w3.org/2000/svg">
<g clip-path="url(#clip0_674_63768)">
<g opacity="0.4">
<path opacity="0.88" d="M67.3474 -2.20324C69.0285 -2.53002 70.6563 -1.43209 70.983 0.249041C71.3098 1.93018 70.2119 3.55791 68.5308 3.88469L67.8543 4.01618C66.1732 4.34296 64.5455 3.24504 64.2187 1.5639C63.8919 -0.117234 64.9898 -1.74497 66.671 -2.07175L67.3474 -2.20324Z" fill="#FFF1BF"/>
<path opacity="0.75" d="M130.004 8.79651C131.294 8.54565 132.544 9.3885 132.795 10.6791C133.046 11.9696 132.203 13.2192 130.912 13.4701L130.393 13.571C129.102 13.8219 127.853 12.979 127.602 11.6885C127.351 10.3979 128.194 9.14831 129.485 8.89745L130.004 8.79651Z" fill="#FFF1BF"/>
<path opacity="0.97" d="M217.418 13.0561C216.562 13.9123 215.173 13.9123 214.317 13.0561C213.461 12.1998 213.461 10.8115 214.317 9.95528L214.662 9.61075C215.518 8.75449 216.906 8.75449 217.762 9.61075C218.619 10.467 218.619 11.8553 217.762 12.7115L217.418 13.0561Z" fill="#FFF1BF"/>
<path opacity="0.83" d="M236.67 27.3313C237.867 27.6076 238.613 28.8017 238.337 29.9984C238.061 31.1952 236.867 31.9414 235.67 31.6651L235.188 31.5539C233.992 31.2776 233.245 30.0835 233.522 28.8867C233.798 27.69 234.992 26.9438 236.189 27.2201L236.67 27.3313Z" fill="#FFF1BF"/>
<path opacity="0.71" d="M353.491 26.2723C352.446 27.518 350.589 27.6805 349.343 26.6353C348.097 25.59 347.935 23.7329 348.98 22.4872L349.401 21.986C350.446 20.7403 352.303 20.5778 353.549 21.6231C354.795 22.6683 354.957 24.5255 353.912 25.7711L353.491 26.2723Z" fill="#FFF1BF"/>
<path opacity="0.87" d="M447.412 28.6617C446.777 27.8189 446.946 26.6209 447.788 25.9859C448.631 25.3508 449.829 25.5192 450.464 26.3619L450.72 26.701C451.355 27.5438 451.186 28.7418 450.344 29.3768C449.501 30.0119 448.303 29.8435 447.668 29.0008L447.412 28.6617Z" fill="#FFF1BF"/>
<path opacity="0.71" d="M479.419 10.7217C481.097 10.1764 482.9 11.0948 483.445 12.7729C483.99 14.451 483.072 16.2535 481.394 16.7987L480.718 17.0181C479.04 17.5634 477.238 16.645 476.693 14.9669C476.147 13.2887 477.066 11.4863 478.744 10.9411L479.419 10.7217Z" fill="#FFF1BF"/>
<path d="M570.646 38.7753C572.684 38.8821 574.25 40.6213 574.143 42.6598C574.037 44.6982 572.298 46.2641 570.259 46.1573L569.439 46.1143C567.4 46.0075 565.834 44.2684 565.941 42.2299C566.048 40.1914 567.787 38.6255 569.826 38.7323L570.646 38.7753Z" fill="#FFF1BF"/>
<path opacity="0.97" d="M44.8638 73.2839C43.5854 73.2169 42.6034 72.1263 42.6704 70.8479C42.7374 69.5695 43.828 68.5875 45.1064 68.6545L45.6208 68.6815C46.8991 68.7485 47.8811 69.8391 47.8141 71.1175C47.7472 72.3958 46.6565 73.3779 45.3781 73.3109L44.8638 73.2839Z" fill="#FFF1BF"/>
<path opacity="0.79" d="M141.934 93.1465C143.555 93.6421 144.468 95.3582 143.972 96.9794C143.477 98.6007 141.76 99.5131 140.139 99.0174L139.487 98.818C137.866 98.3224 136.953 96.6063 137.449 94.9851C137.945 93.3638 139.661 92.4514 141.282 92.947L141.934 93.1465Z" fill="#FFF1BF"/>
<path opacity="0.72" d="M211.005 79.902C209.462 80.7929 207.488 80.2642 206.598 78.7211C205.707 77.1781 206.235 75.2049 207.778 74.314L208.399 73.9556C209.942 73.0647 211.916 73.5934 212.806 75.1364C213.697 76.6795 213.169 78.6527 211.626 79.5436L211.005 79.902Z" fill="#FFF1BF"/>
<path opacity="0.93" d="M225.323 60.9246C226.252 62.3014 225.888 64.1703 224.512 65.099C223.135 66.0276 221.266 65.6643 220.337 64.2875L219.963 63.7336C219.035 62.3568 219.398 60.4879 220.775 59.5592C222.152 58.6305 224.021 58.9938 224.949 60.3706L225.323 60.9246Z" fill="#FFF1BF"/>
<path opacity="0.85" d="M362.054 54.4855C362.815 53.2679 364.419 52.8976 365.636 53.6584C366.854 54.4193 367.224 56.0232 366.463 57.2408L366.157 57.7308C365.396 58.9484 363.793 59.3187 362.575 58.5578C361.357 57.797 360.987 56.1931 361.748 54.9754L362.054 54.4855Z" fill="#FFF1BF"/>
<path opacity="0.93" d="M414.178 54.7985C413.061 54.5611 412.348 53.4633 412.585 52.3465C412.823 51.2298 413.92 50.5169 415.037 50.7542L415.487 50.8497C416.603 51.0871 417.316 52.1849 417.079 53.3017C416.842 54.4185 415.744 55.1314 414.627 54.894L414.178 54.7985Z" fill="#FFF1BF"/>
<path opacity="0.94" d="M496.857 76.9178C497.746 75.997 499.213 75.9714 500.134 76.8606C501.055 77.7499 501.081 79.2172 500.191 80.1381L499.834 80.5086C498.944 81.4294 497.477 81.4551 496.556 80.5658C495.635 79.6766 495.61 78.2092 496.499 77.2883L496.857 76.9178Z" fill="#FFF1BF"/>
<path opacity="0.75" d="M581.236 75.5615C580.501 74.6209 580.668 73.2627 581.609 72.5278C582.549 71.7929 583.907 71.9597 584.642 72.9003L584.938 73.2788C585.673 74.2193 585.506 75.5776 584.566 76.3125C583.625 77.0473 582.267 76.8806 581.532 75.94L581.236 75.5615Z" fill="#FFF1BF"/>
<path opacity="0.88" d="M100.808 129.248C100.924 127.921 102.094 126.94 103.42 127.056C104.747 127.172 105.729 128.342 105.613 129.669L105.566 130.203C105.45 131.53 104.28 132.511 102.953 132.395C101.626 132.279 100.645 131.109 100.761 129.782L100.808 129.248Z" fill="#FFF1BF"/>
<path opacity="0.82" d="M191.703 101.178C192.747 99.9771 194.567 99.8498 195.768 100.894C196.969 101.938 197.097 103.758 196.053 104.959L195.632 105.443C194.588 106.644 192.768 106.771 191.567 105.727C190.366 104.683 190.239 102.863 191.283 101.662L191.703 101.178Z" fill="#FFF1BF"/>
<path opacity="0.8" d="M262.071 120.569C263.847 120.191 265.594 121.326 265.971 123.102C266.349 124.879 265.215 126.625 263.438 127.003L262.723 127.155C260.947 127.533 259.2 126.399 258.822 124.622C258.445 122.845 259.579 121.099 261.356 120.721L262.071 120.569Z" fill="#FFF1BF"/>
<path opacity="0.81" d="M340.024 139.544C340.65 137.913 342.48 137.098 344.111 137.725C345.742 138.351 346.557 140.181 345.931 141.812L345.679 142.468C345.053 144.099 343.223 144.914 341.592 144.288C339.961 143.662 339.146 141.832 339.772 140.201L340.024 139.544Z" fill="#FFF1BF"/>
<path opacity="0.91" d="M423.232 132.58C424.034 131.719 425.382 131.672 426.242 132.475C427.103 133.277 427.15 134.625 426.347 135.485L426.025 135.831C425.222 136.691 423.875 136.738 423.014 135.936C422.154 135.134 422.107 133.786 422.909 132.926L423.232 132.58Z" fill="#FFF1BF"/>
<path opacity="0.85" d="M523.308 140.424C521.506 141.382 519.268 140.698 518.309 138.896C517.351 137.093 518.035 134.855 519.837 133.897L520.563 133.512C522.365 132.553 524.603 133.237 525.561 135.04C526.52 136.842 525.835 139.08 524.033 140.038L523.308 140.424Z" fill="#FFF1BF"/>
<path opacity="0.9" d="M580.008 120.219C581.105 119.266 582.766 119.382 583.72 120.479C584.673 121.576 584.557 123.237 583.46 124.191L583.019 124.574C581.922 125.528 580.26 125.411 579.307 124.315C578.354 123.218 578.47 121.556 579.567 120.603L580.008 120.219Z" fill="#FFF1BF"/>
<path opacity="0.72" d="M51.1642 188.56C49.4815 188.354 48.2849 186.822 48.4915 185.139C48.6981 183.457 50.2297 182.26 51.9123 182.467L52.5894 182.55C54.2721 182.756 55.4686 184.288 55.262 185.971C55.0554 187.653 53.5239 188.85 51.8412 188.643L51.1642 188.56Z" fill="#FFF1BF"/>
<path opacity="0.88" d="M108.779 191.075C107.568 189.864 107.568 187.9 108.779 186.689C109.99 185.478 111.954 185.478 113.165 186.689L113.652 187.176C114.863 188.387 114.863 190.351 113.652 191.562C112.441 192.773 110.477 192.773 109.266 191.562L108.779 191.075Z" fill="#FFF1BF"/>
<path opacity="0.9" d="M180.586 189.296C181.619 188.298 183.265 188.327 184.262 189.36C185.26 190.393 185.231 192.039 184.198 193.036L183.783 193.437C182.75 194.435 181.104 194.406 180.107 193.373C179.109 192.34 179.138 190.694 180.171 189.697L180.586 189.296Z" fill="#FFF1BF"/>
<path opacity="0.73" d="M243.569 178.455C241.725 178.063 240.547 176.25 240.939 174.406C241.331 172.561 243.144 171.384 244.989 171.776L245.731 171.934C247.575 172.326 248.753 174.139 248.361 175.983C247.969 177.827 246.156 179.005 244.311 178.613L243.569 178.455Z" fill="#FFF1BF"/>
<path opacity="0.83" d="M363.506 144.617C363.849 146.383 362.696 148.093 360.93 148.436C359.164 148.779 357.454 147.626 357.111 145.86L356.973 145.149C356.629 143.383 357.783 141.673 359.549 141.33C361.315 140.987 363.025 142.14 363.368 143.906L363.506 144.617Z" fill="#FFF1BF"/>
<path opacity="0.73" d="M396.372 184.883C395.094 183.247 395.384 180.885 397.02 179.607C398.656 178.329 401.018 178.619 402.296 180.255L402.81 180.913C404.088 182.549 403.798 184.911 402.162 186.189C400.527 187.467 398.164 187.177 396.886 185.541L396.372 184.883Z" fill="#FFF1BF"/>
<path opacity="0.89" d="M499.08 195.447C498.357 193.744 499.152 191.776 500.856 191.053C502.56 190.33 504.527 191.124 505.25 192.828L505.541 193.514C506.265 195.218 505.47 197.185 503.766 197.909C502.062 198.632 500.095 197.837 499.371 196.133L499.08 195.447Z" fill="#FFF1BF"/>
<path opacity="0.89" d="M552.394 161.238C551.058 162.282 549.129 162.045 548.085 160.709C547.042 159.373 547.278 157.444 548.614 156.4L549.152 155.98C550.488 154.937 552.417 155.173 553.461 156.509C554.504 157.845 554.267 159.774 552.932 160.818L552.394 161.238Z" fill="#FFF1BF"/>
</g>
<path opacity="0.27" d="M299.645 345.564C221.617 345.564 158.363 327.885 158.363 306.077C158.363 284.27 221.617 266.591 299.645 266.591C377.673 266.591 440.928 284.27 440.928 306.077C440.928 327.885 377.673 345.564 299.645 345.564Z" fill="#FF4588"/>
<path opacity="0.13" d="M299.644 336.676C239.179 336.676 190.163 322.977 190.163 306.078C190.163 289.178 239.179 275.479 299.644 275.479C360.109 275.479 409.125 289.178 409.125 306.078C409.125 322.977 360.109 336.676 299.644 336.676Z" stroke="#FF4588" stroke-width="0.489973" stroke-miterlimit="10"/>
<path opacity="0.17" d="M420.868 271.898C425.902 262.76 431.744 249.476 426.413 248.027C421.082 246.577 411.486 257.655 407.007 262.877C402.529 268.099 395.919 275.79 391.014 274.182C386.109 272.574 391.014 262.237 385.683 261.652C382.697 261.102 384.104 268.793 376.087 265.508C370.969 263.411 370.329 238.48 359.88 237.414C349.431 236.349 345.838 252.516 327.483 251.145C309.127 249.773 311.441 240.28 299.728 235.331C288.016 230.382 279.222 258.094 270.237 257.814C261.252 257.534 252.161 250.048 246.098 251.935C242.381 253.557 243.234 258.562 238.756 259.495C234.278 260.428 195.893 215.466 188.43 218.876C180.966 222.285 212.119 263.284 202.717 271.898C197.599 276.27 187.577 262.503 186.937 269.243C186.297 275.983 205.276 304.963 205.276 304.963C205.276 304.963 202.291 274.767 296.546 274.767C390.801 274.767 397.267 300.975 389.308 306.175C381.349 311.374 407.86 295.514 420.868 271.898Z" fill="#A990FC"/>
<g opacity="0.7">
<path opacity="0.3" d="M359.899 327.166L973.243 -594.413H-182.958V-297.318L223.654 307.707L359.899 327.166Z" fill="url(#paint0_linear_674_63768)"/>
<path opacity="0.3" d="M271.746 294.367L8.70346 -262.207H100.723C100.723 -262.207 276.62 300.105 279.587 297.184C282.553 294.262 271.746 294.367 271.746 294.367Z" fill="url(#paint1_linear_674_63768)"/>
<path opacity="0.3" d="M288.107 295.055L226.877 -262.207H332.053L301.135 297.195L288.107 295.055Z" fill="url(#paint2_linear_674_63768)"/>
<path opacity="0.3" d="M451.034 -261.867H557.696L327.875 301.943L309.342 298.086L451.034 -261.867Z" fill="url(#paint3_linear_674_63768)"/>
<path opacity="0.3" d="M268.649 294.367L5.60727 -262.207H97.6268C97.6268 -262.207 273.523 300.105 276.49 297.184C279.457 294.262 268.649 294.367 268.649 294.367Z" fill="url(#paint4_linear_674_63768)"/>
<path opacity="0.3" d="M285.011 295.055L223.781 -262.207H328.957L298.039 297.195L285.011 295.055Z" fill="url(#paint5_linear_674_63768)"/>
<path opacity="0.3" d="M447.938 -261.867H554.599L324.777 301.943L306.245 298.086L447.938 -261.867Z" fill="url(#paint6_linear_674_63768)"/>
</g>
<path opacity="0.48" d="M298.882 315.808C265.399 315.808 238.256 308.222 238.256 298.864C238.256 289.506 265.399 281.919 298.882 281.919C332.365 281.919 359.508 289.506 359.508 298.864C359.508 308.222 332.365 315.808 298.882 315.808Z" fill="#FF4588"/>
<path d="M245.39 197.127C240.316 176.282 245.165 165.215 253.284 160.718C253.706 159.751 254.147 158.793 254.619 157.853C264.595 137.993 285.494 124.32 309.667 124.32C311.135 124.32 312.589 124.375 314.031 124.475C316.872 124.67 319.696 125.057 322.484 125.635C350.181 131.393 370.959 155.423 370.959 184.198C370.959 188.084 370.575 191.961 369.811 195.772C373.034 204.98 372.74 217.065 363.102 227.384C350.864 240.487 334.113 245.762 318.88 246.703C319.309 247.354 319.683 248.04 320 248.752C321.319 251.773 322.243 254.951 322.751 258.208C323.438 258.005 324.124 257.797 324.81 257.584C324.873 257.565 324.942 257.539 325.006 257.519C325.848 257.246 326.807 256.859 327.798 256.529C327.756 256.411 327.721 256.291 327.683 256.171C327.119 254.426 326.968 252.55 327.555 251.146C328.713 248.374 332.887 248.61 335.321 248.255C336.783 248.042 337.087 247.755 338.161 248.579C339.252 249.416 339.874 250.709 340.347 251.974C341.052 253.86 342.356 256.867 341.171 258.546C341.171 258.546 333.309 264.24 328.874 265.969C328.618 266.069 328.363 266.174 328.106 266.27C325.793 267.139 323.28 268.232 320.748 267.935C318.806 267.708 317.372 266.353 315.96 265.107C312.894 262.4 310.719 259.019 308.999 255.365C308.744 256.487 308.632 257.637 308.666 258.787C308.667 258.801 308.666 258.817 308.666 258.831C308.722 259.952 308.851 261.368 308.899 262.878C308.965 264.971 308.871 267.245 308.206 269.172C309.137 270.405 310.229 272.062 311.578 274.268C313.41 277.263 315.42 281.093 317.191 284.65C319.955 290.203 322.136 295.092 322.136 295.092C322.136 295.092 330.27 305.112 328.634 306.079C328.623 306.085 328.617 306.096 328.605 306.101C327.02 306.862 318.511 301.626 315.313 298.643V296.157C315.313 296.157 310.793 291.899 306.077 286.804C302.323 282.749 298.445 278.164 296.618 274.769C296.59 274.717 296.574 274.664 296.549 274.612C292.002 274.958 286.52 274.786 281.871 273.394L271.881 281.809C271.881 281.809 272.09 282.221 272.418 282.875C273.723 285.477 276.942 291.981 276.715 292.322C276.471 292.686 264.763 295.026 260.949 294.579C260.307 294.504 259.882 294.353 259.78 294.097C259.353 292.89 268.398 289.409 268.398 289.409C268.398 289.409 265.621 285.57 263.852 282.59C263.31 281.739 262.856 280.835 262.498 279.891C261.958 278.109 269.18 267.833 272.675 263.007C272.794 261.999 273.005 261.003 273.304 260.033C273.326 259.961 273.353 259.887 273.376 259.815C272.143 260.539 270.8 261.34 269.592 261.581C268.355 261.828 267.428 261.139 266.363 260.539C264.661 259.582 262.969 258.587 261.324 257.535C259.402 256.306 257.525 254.956 255.705 253.536C254.257 252.407 252.845 251.235 251.48 250.04C249.895 248.651 248.37 247.195 246.889 245.697C246.056 244.853 245.465 244.363 245.509 243.127C245.581 242.346 245.806 241.587 246.17 240.893C246.502 240.189 246.895 239.509 247.191 238.924C247.752 237.816 248.382 236.272 249.552 235.668C251.555 234.636 256.845 236.134 258.045 238.108C259.224 240.047 258.038 243.129 257.004 245.447C258.054 246.024 259.059 246.599 259.966 247.007C260.024 247.033 260.081 247.061 260.139 247.087C261.805 247.84 263.449 248.634 265.102 249.415C266.07 249.873 267.099 250.276 268.039 250.807C268.154 250.697 268.268 250.588 268.378 250.481C270.185 248.715 272.138 247.106 274.217 245.671C275.584 244.739 277.025 243.919 278.525 243.22C279.327 242.939 280.134 242.678 280.95 242.458C282.187 242.117 283.457 241.904 284.739 241.823C269.506 236.363 252.043 224.46 245.39 197.127Z" fill="#FF4588" stroke="#FF4588" stroke-width="4.92601" stroke-miterlimit="10"/>
<path opacity="0.36" d="M245.39 197.127C240.316 176.282 245.165 165.215 253.284 160.718C253.706 159.751 254.147 158.793 254.619 157.853C264.595 137.993 285.494 124.32 309.667 124.32C311.135 124.32 312.589 124.375 314.031 124.475C316.872 124.67 319.696 125.057 322.484 125.635C350.181 131.393 370.959 155.423 370.959 184.198C370.959 188.084 370.575 191.961 369.811 195.772C373.034 204.98 372.74 217.065 363.102 227.384C350.864 240.487 334.113 245.762 318.88 246.703C319.309 247.354 319.683 248.04 320 248.752C321.319 251.773 322.243 254.951 322.751 258.208C323.438 258.005 324.124 257.797 324.81 257.584C324.873 257.565 324.942 257.539 325.006 257.519C325.848 257.246 326.807 256.859 327.798 256.529C327.756 256.411 327.721 256.291 327.683 256.171C327.119 254.426 326.968 252.55 327.555 251.146C328.713 248.374 332.887 248.61 335.321 248.255C336.783 248.042 337.087 247.755 338.161 248.579C339.252 249.416 339.874 250.709 340.347 251.974C341.052 253.86 342.356 256.867 341.171 258.546C341.171 258.546 333.309 264.24 328.874 265.969C328.618 266.069 328.363 266.174 328.106 266.27C325.793 267.139 323.28 268.232 320.748 267.935C318.806 267.708 317.372 266.353 315.96 265.107C312.894 262.4 310.719 259.019 308.999 255.365C308.744 256.487 308.632 257.637 308.666 258.787C308.667 258.801 308.666 258.817 308.666 258.831C308.722 259.952 308.851 261.368 308.899 262.878C308.965 264.971 308.871 267.245 308.206 269.172C309.137 270.405 310.229 272.062 311.578 274.268C313.41 277.263 315.42 281.093 317.191 284.65C319.955 290.203 322.136 295.092 322.136 295.092C322.136 295.092 330.27 305.112 328.634 306.079C328.623 306.085 328.617 306.096 328.605 306.101C327.02 306.862 318.511 301.626 315.313 298.643V296.157C315.313 296.157 310.793 291.899 306.077 286.804C302.323 282.749 298.445 278.164 296.618 274.769C296.59 274.717 296.574 274.664 296.549 274.612C292.002 274.958 286.52 274.786 281.871 273.394L271.881 281.809C271.881 281.809 272.09 282.221 272.418 282.875C273.723 285.477 276.942 291.981 276.715 292.322C276.471 292.686 264.763 295.026 260.949 294.579C260.307 294.504 259.882 294.353 259.78 294.097C259.353 292.89 268.398 289.409 268.398 289.409C268.398 289.409 265.621 285.57 263.852 282.59C263.31 281.739 262.856 280.835 262.498 279.891C261.958 278.109 269.18 267.833 272.675 263.007C272.794 261.999 273.005 261.003 273.304 260.033C273.326 259.961 273.353 259.887 273.376 259.815C272.143 260.539 270.8 261.34 269.592 261.581C268.355 261.828 267.428 261.139 266.363 260.539C264.661 259.582 262.969 258.587 261.324 257.535C259.402 256.306 257.525 254.956 255.705 253.536C254.257 252.407 252.845 251.235 251.48 250.04C249.895 248.651 248.37 247.195 246.889 245.697C246.056 244.853 245.465 244.363 245.509 243.127C245.581 242.346 245.806 241.587 246.17 240.893C246.502 240.189 246.895 239.509 247.191 238.924C247.752 237.816 248.382 236.272 249.552 235.668C251.555 234.636 256.845 236.134 258.045 238.108C259.224 240.047 258.038 243.129 257.004 245.447C258.054 246.024 259.059 246.599 259.966 247.007C260.024 247.033 260.081 247.061 260.139 247.087C261.805 247.84 263.449 248.634 265.102 249.415C266.07 249.873 267.099 250.276 268.039 250.807C268.154 250.697 268.268 250.588 268.378 250.481C270.185 248.715 272.138 247.106 274.217 245.671C275.584 244.739 277.025 243.919 278.525 243.22C279.327 242.939 280.134 242.678 280.95 242.458C282.187 242.117 283.457 241.904 284.739 241.823C269.506 236.363 252.043 224.46 245.39 197.127Z" fill="#FF4588" stroke="#FF4588" stroke-width="22.4407" stroke-miterlimit="10"/>
<path opacity="0.17" d="M384.817 237.69C385.973 235.018 388.383 233.19 391.054 232.181C394.603 230.857 398.519 230.909 402.032 232.325C402.906 232.682 403.719 233.174 404.441 233.783C405.617 234.525 406.531 235.615 407.057 236.902C408.024 239.36 407.085 241.755 404.81 243.034C403.548 243.743 402.13 244.064 400.754 244.471C399.025 244.891 397.474 245.847 396.323 247.203C394.671 249.22 393.234 251.49 390.279 251.235C387.554 251.001 385.552 248.957 384.639 246.491C383.598 243.638 383.662 240.499 384.817 237.69Z" fill="#A990FC"/>
<path opacity="0.17" d="M170.477 234.179C170.838 233.625 171.331 233.169 171.911 232.851C172.49 232.533 173.14 232.362 173.801 232.355C177.245 232.223 180.535 235.951 181.837 238.814C182.242 239.626 182.47 240.515 182.505 241.422C182.54 242.329 182.381 243.233 182.039 244.074C181.617 245.085 180.859 245.921 179.893 246.44C179.497 246.777 179.002 246.977 178.482 247.01C176.78 247.077 175.039 245.585 173.941 244.437C172.607 243.036 171.562 241.386 170.868 239.581C170.262 238.012 169.558 235.755 170.477 234.179Z" fill="#A990FC"/>
<path d="M278.384 253.088C279.077 252.833 278.782 251.721 278.076 251.972L277.938 252.021C277.841 252.047 277.753 252.099 277.681 252.17C277.61 252.241 277.559 252.329 277.533 252.426C277.495 252.722 277.531 253.024 277.639 253.303C275.486 255.007 272.831 257.285 270.236 257.814C267.182 258.437 262.918 255.157 260.527 253.49C260.1 253.193 259.683 252.884 259.263 252.579C259.541 252.358 259.789 252.102 260.002 251.818C260.513 251.138 260.794 250.313 260.806 249.462C260.817 248.612 260.558 247.78 260.066 247.086C261.732 247.839 263.376 248.632 265.028 249.414C265.997 249.871 267.026 250.275 267.966 250.805C268.081 250.695 268.195 250.587 268.305 250.48C270.112 248.714 272.065 247.104 274.144 245.669C275.511 244.737 276.952 243.918 278.452 243.218C279.254 242.937 280.061 242.676 280.877 242.457C283.187 241.761 285.63 241.622 288.004 242.051C289.271 242.366 290.514 242.768 291.725 243.254C292.467 244.551 292.75 246.081 292.138 247.337C290.904 249.87 288.02 251.144 285.676 252.415C285.424 252.551 285.171 252.686 284.919 252.822C283.6 253.748 282.246 254.622 280.902 255.463C280.32 254.535 278.974 252.871 278.384 253.088Z" fill="#A990FC"/>
<path d="M260.002 251.819C259.789 252.103 259.54 252.359 259.262 252.58C256.847 250.826 254.517 248.959 252.171 247.114C249.832 245.275 246.891 243.73 246.097 240.893C246.429 240.189 246.821 239.509 247.118 238.924C247.679 237.816 248.309 236.271 249.479 235.668C251.482 234.635 256.772 236.133 257.971 238.107C259.15 240.047 257.965 243.128 256.931 245.447C257.981 246.024 258.986 246.599 259.893 247.007C259.951 247.033 260.008 247.061 260.066 247.087C260.558 247.781 260.817 248.613 260.805 249.464C260.794 250.314 260.512 251.139 260.002 251.819Z" fill="#51069D"/>
<path d="M274.727 259.016C273.182 259.799 271.215 261.243 269.52 261.581C268.283 261.828 267.356 261.139 266.29 260.539C264.589 259.582 262.896 258.587 261.252 257.535C259.329 256.306 257.452 254.956 255.633 253.536C256.921 253.699 258.223 253.357 259.263 252.58C259.683 252.885 260.101 253.195 260.527 253.492C262.919 255.159 267.182 258.438 270.237 257.816C272.831 257.286 275.486 255.008 277.639 253.304C277.532 253.025 277.495 252.724 277.533 252.427C277.559 252.33 277.611 252.242 277.682 252.171C277.753 252.1 277.841 252.049 277.938 252.022L278.076 251.973C278.782 251.722 279.078 252.834 278.384 253.089C278.974 252.872 280.321 254.536 280.902 255.464C280.586 255.662 280.269 255.86 279.955 256.054C278.247 257.107 276.517 258.109 274.727 259.016Z" fill="#672CBC"/>
<path d="M252.172 247.114C254.518 248.959 256.848 250.826 259.263 252.58C258.223 253.356 256.921 253.699 255.633 253.536C254.185 252.407 252.772 251.235 251.408 250.039C249.822 248.65 248.297 247.195 246.817 245.696C245.984 244.853 245.393 244.363 245.437 243.126C245.509 242.346 245.734 241.587 246.098 240.893C246.892 243.73 249.833 245.275 252.172 247.114Z" fill="#350072"/>
<path d="M278.75 270.877C275.299 273.493 271.809 276.299 268.908 279.496C267.812 280.704 268.189 282.011 268.952 283.298C267.205 283.28 265.468 283.042 263.781 282.59C263.239 281.739 262.785 280.835 262.427 279.891C261.717 277.547 274.44 260.5 274.44 260.5L282.062 269.244C280.877 269.427 279.768 269.942 278.865 270.73C278.817 270.771 278.778 270.821 278.75 270.877Z" fill="#A990FC"/>
<path d="M268.328 289.408C268.328 289.408 265.551 285.569 263.782 282.589C265.468 283.041 267.206 283.279 268.952 283.297C269.613 284.413 270.564 285.515 271.098 286.526C271.576 287.43 272.477 288.657 272.589 289.677C272.736 291.009 271.674 291.025 270.51 291.342C268.4 291.916 266.29 292.49 264.188 293.094C263.436 293.31 261.463 293.691 260.878 294.579C260.237 294.503 259.811 294.352 259.709 294.096C259.282 292.889 268.328 289.408 268.328 289.408Z" fill="#51069D"/>
<path d="M271.809 281.809C271.809 281.809 272.018 282.22 272.346 282.875C271.237 283.16 270.096 283.303 268.951 283.298C268.188 282.01 267.811 280.704 268.907 279.495C271.808 276.298 275.298 273.493 278.749 270.877C278.777 270.82 278.816 270.771 278.863 270.73C279.767 269.942 280.876 269.427 282.061 269.244L284.035 271.509L271.809 281.809Z" fill="#672CBC"/>
<path d="M264.187 293.095C266.289 292.491 268.398 291.917 270.509 291.343C271.673 291.026 272.735 291.01 272.588 289.678C272.476 288.658 271.574 287.431 271.097 286.527C270.563 285.516 269.612 284.414 268.951 283.298C270.096 283.303 271.237 283.161 272.346 282.875C273.65 285.477 276.87 291.981 276.643 292.321C276.399 292.686 264.691 295.026 260.877 294.579C261.461 293.691 263.435 293.311 264.187 293.095Z" fill="#350072"/>
<path d="M305.295 246.439C291.38 244.715 255.554 239.179 245.318 197.127C235.083 155.076 265.221 152.803 281.144 164.025C297.066 175.248 305.295 246.439 305.295 246.439Z" fill="#A990FC"/>
<path d="M266.546 149.6C268.151 146.27 271.517 143.49 274.375 141.265C277.29 138.991 280.487 137.105 283.888 135.652C287.616 134.064 291.666 132.899 295.754 132.984C297.664 133.024 301.679 133.074 302.154 135.578C302.761 138.786 296.191 139.317 294.313 139.781C291.526 140.469 288.739 141.151 286.011 142.008C286.001 142.013 285.991 142.016 285.981 142.02C282.115 143.658 278.451 145.918 275.66 149.091C273.817 151.186 271.081 155.054 267.711 154.308C265.365 153.788 265.73 151.294 266.546 149.6Z" fill="white"/>
<path d="M263.313 158.679C263.751 158.632 264.195 158.68 264.614 158.819C265.032 158.958 265.416 159.185 265.739 159.486C266.133 159.744 266.458 160.095 266.685 160.508C266.912 160.921 267.034 161.383 267.042 161.853C267.106 164.018 264.451 165.719 262.57 166.065C260.575 166.432 258.976 165.139 259.072 163.094C259.14 161.975 259.604 160.917 260.381 160.108C261.158 159.3 262.197 158.793 263.313 158.679Z" fill="white"/>
<path d="M249.383 172.968C249.51 177.142 250.491 181.31 253.178 184.611C256.359 188.52 261.178 191.158 265.704 193.185C275.557 197.599 286.408 198.638 297.078 197.641C307.857 196.635 318.45 194.173 328.566 190.32C337.208 186.992 345.357 181.915 350.427 173.973C355.666 165.768 355.864 156.267 352.222 147.358C348.461 138.16 340.095 133.002 331.37 129.066C328.453 127.749 325.461 126.604 322.411 125.635C350.108 131.392 370.886 155.423 370.886 184.197C370.886 217.267 343.444 244.076 309.594 244.076C275.743 244.076 248.302 217.267 248.302 184.197C248.302 180.428 248.664 176.668 249.383 172.968Z" fill="#350072"/>
<path d="M254.547 157.853C254.183 159.815 254.289 161.836 254.857 163.749C256.914 170.219 263.253 173.607 269.413 175.242C284.771 179.318 302.642 180.107 317.382 173.455C323.556 170.669 330.215 166.366 332.976 159.908C335.618 153.727 334.783 146.508 332.45 140.371C329.933 133.754 325.61 128.844 319.019 126.098C317.379 125.421 315.687 124.878 313.959 124.475C316.8 124.669 319.624 125.057 322.412 125.635C325.463 126.604 328.454 127.749 331.371 129.066C340.096 133.002 348.462 138.16 352.223 147.358C355.866 156.267 355.667 165.768 350.429 173.973C345.358 181.915 337.209 186.992 328.568 190.32C318.451 194.173 307.858 196.635 297.079 197.641C286.41 198.638 275.559 197.599 265.705 193.185C261.179 191.158 256.36 188.52 253.179 184.611C250.492 181.31 249.512 177.142 249.384 172.968C250.406 167.717 252.143 162.632 254.547 157.853Z" fill="#51069D"/>
<path d="M332.45 140.371C334.784 146.508 335.619 153.726 332.976 159.908C330.216 166.366 323.557 170.669 317.382 173.455C302.643 180.107 284.772 179.318 269.413 175.242C263.254 173.607 256.915 170.219 254.858 163.749C254.29 161.835 254.184 159.815 254.548 157.853C264.524 137.993 285.423 124.32 309.596 124.32C311.064 124.32 312.518 124.375 313.96 124.475C315.688 124.878 317.38 125.421 319.02 126.098C325.611 128.844 329.934 133.754 332.45 140.371Z" fill="#672CBC"/>
<path d="M276.894 138.591C280.948 135.517 285.451 132.699 290.248 130.943C294.317 129.452 299.577 128.776 303.475 131.176C306.252 132.885 303.888 135.215 301.618 135.661C301.425 135.699 301.233 135.736 301.041 135.774C299.137 136.428 297.02 136.713 295.129 137.157C292.185 137.792 289.346 138.839 286.695 140.267C282.029 142.878 278.869 147.184 274.507 150.159C272.489 151.536 268.41 152.208 268.5 148.576C268.606 144.341 273.928 140.839 276.894 138.591Z" fill="white"/>
<path d="M262.044 159.016C262.148 158.748 262.289 158.496 262.462 158.267C263.33 157.124 266.356 155.491 267.858 156.395C268.286 156.531 268.68 156.757 269.014 157.058C269.347 157.36 269.611 157.729 269.789 158.142C269.967 158.554 270.053 159 270.043 159.449C270.033 159.899 269.926 160.34 269.73 160.744C268.757 162.763 265.595 164.025 263.509 163.208C261.605 162.462 261.254 160.548 262.044 159.016Z" fill="white"/>
<path d="M253.046 207.575C253.034 207.932 253.104 208.287 253.251 208.612C253.397 208.937 253.617 209.225 253.893 209.451C255.03 210.476 256.521 210.181 257.801 209.653C260.283 208.628 262.597 207.65 265.259 207.171C270.947 206.148 276.814 206.876 282.296 208.581C287.767 210.282 292.879 212.934 297.815 215.805C302.206 218.359 306.548 221.106 311.369 222.792C320.059 225.833 329.289 224.222 334.509 216.196C340.064 207.654 339.372 195.953 346.867 188.554C351.004 184.47 356.598 183.433 361.76 186.273C364.944 188.023 367.202 190.81 369.015 193.885C372.958 203.282 373.34 216.344 363.03 227.383C345.117 246.561 317.537 248.976 299.198 245.566C265.078 237.043 252.283 209.199 252.283 209.199C252.467 208.847 252.664 208.263 253.046 207.575Z" fill="#A990FC"/>
<path d="M361.76 186.273C356.597 183.433 351.003 184.47 346.867 188.554C339.371 195.953 340.064 207.654 334.509 216.196C329.289 224.222 320.059 225.833 311.369 222.792C306.547 221.105 302.206 218.36 297.815 215.805C292.878 212.934 287.767 210.282 282.296 208.581C276.814 206.876 270.947 206.148 265.259 207.171C262.596 207.65 260.283 208.628 257.8 209.653C256.521 210.181 255.03 210.476 253.892 209.451C253.617 209.225 253.397 208.937 253.25 208.612C253.103 208.287 253.033 207.932 253.046 207.575C254.451 205.047 258.374 201.121 273.466 202.238C292.658 203.659 310.713 223.405 324.929 218.007C339.146 212.608 334.312 178.372 357.343 181.355C361.264 182.018 366.107 186.956 369.014 193.884C367.201 190.81 364.943 188.023 361.76 186.273Z" fill="white"/>
<path d="M351.258 216.363C346.145 214.389 343.946 207.759 346.346 201.554C348.745 195.349 354.834 191.919 359.946 193.893C365.058 195.867 367.258 202.497 364.858 208.702C362.459 214.907 356.37 218.337 351.258 216.363Z" fill="#FF4588" stroke="#F42162" stroke-width="0.533377" stroke-miterlimit="10"/>
<path d="M354.397 210.955C351.746 209.932 350.605 206.493 351.85 203.275C353.094 200.057 356.252 198.279 358.903 199.302C361.554 200.326 362.695 203.764 361.451 206.982C360.206 210.2 357.048 211.979 354.397 210.955Z" fill="white"/>
<path d="M292.348 241.793C293.269 239.921 295.482 238.932 297.422 238.568C300.976 237.903 307.313 238.884 307.401 243.524C307.4 243.546 307.397 243.567 307.39 243.587C307.417 243.583 307.444 243.578 307.471 243.574C307.48 243.573 307.485 243.587 307.479 243.594C304.474 246.414 297.11 246.692 293.224 244.84C293.171 244.866 293.113 244.878 293.054 244.876C292.995 244.873 292.937 244.856 292.887 244.825C291.734 244.202 291.816 242.876 292.348 241.793Z" fill="#350072"/>
<path d="M298.585 245.209C303.009 247.758 302.58 252.987 300.816 257.365C300.611 257.337 300.406 257.309 300.203 257.28C296.531 256.758 292.85 256.239 289.152 255.947C284.595 255.588 279.481 255.44 274.723 256.327C277.329 251.09 282.002 245.862 287.409 243.376C291.299 242.982 295.396 243.372 298.585 245.209Z" fill="#672CBC"/>
<path d="M289.036 259.875C292.349 260.153 295.623 260.586 298.881 261.103C298.815 261.205 298.75 261.307 298.684 261.406C295.598 266.016 291.811 270.427 286.051 271.34C281.56 272.051 277.496 270.608 273.801 268.329C273.426 267.822 273.098 267.282 272.824 266.715C272.282 264.855 272.475 262.52 273.231 260.032C274.997 259.77 276.775 259.603 278.559 259.533C282.055 259.443 285.553 259.557 289.036 259.875Z" fill="#672CBC"/>
<path d="M289.151 255.947C292.85 256.239 296.53 256.758 300.202 257.28C300.405 257.309 300.61 257.337 300.815 257.365C300.288 258.668 299.641 259.919 298.882 261.102C295.623 260.585 292.35 260.152 289.037 259.875C285.554 259.557 282.056 259.443 278.56 259.533C276.776 259.603 274.998 259.77 273.232 260.032C273.625 258.758 274.124 257.518 274.722 256.327C279.48 255.44 284.594 255.588 289.151 255.947Z" fill="#51069D"/>
<path d="M313.498 243.167L312.539 244.978C310.945 249.438 308.399 254.532 308.593 258.785C306.082 258.041 303.376 257.717 300.814 257.364C302.579 252.986 303.008 247.757 298.584 245.208C295.394 243.371 291.298 242.981 287.408 243.375C289.237 242.506 291.218 242.002 293.24 241.888C305.182 241.356 310.406 242.634 313.498 243.167Z" fill="#51069D"/>
<path d="M286.052 271.339C291.812 270.426 295.599 266.015 298.685 261.405C298.751 261.307 298.816 261.204 298.882 261.102C302.205 261.63 305.511 262.245 308.827 262.877C308.961 267.111 308.448 272.091 303.85 273.426C297.968 275.134 279.912 276.648 273.802 268.328C277.497 270.607 281.561 272.05 286.052 271.339Z" fill="#51069D"/>
<path d="M300.814 257.365C303.376 257.718 306.082 258.041 308.593 258.786C308.594 258.8 308.593 258.815 308.594 258.83C308.65 259.95 308.779 261.367 308.826 262.877C305.511 262.245 302.204 261.63 298.881 261.102C299.641 259.919 300.288 258.668 300.814 257.365Z" fill="#350072"/>
<path d="M309.422 243.503C311.092 243.677 312.646 244.438 313.808 245.649C315.617 247.486 316.6 249.986 317.51 252.35C318.62 255.236 320.127 258.305 320.581 261.429C320.625 261.503 320.666 261.578 320.712 261.652C321.332 261.49 321.95 261.324 322.565 261.142C322.7 261.102 322.839 261.054 322.978 261.01C322.935 261.468 322.978 261.93 323.104 262.372C323.816 264.902 326.406 265.902 328.802 265.968C328.546 266.068 328.291 266.173 328.034 266.269C325.721 267.138 323.208 268.231 320.675 267.934C318.733 267.706 317.299 266.352 315.888 265.106C312.226 261.873 309.832 257.681 307.971 253.207C307.339 251.723 306.959 250.145 306.847 248.536C306.844 248.514 306.839 248.492 306.836 248.47C306.543 245.925 307.749 244.274 309.422 243.503Z" fill="#A990FC"/>
<path d="M323.105 262.373C322.979 261.93 322.936 261.468 322.978 261.01C324.723 260.445 326.71 259.546 328.584 259.329C328.262 258.493 328 257.635 327.803 256.762C327.805 256.601 327.77 256.442 327.699 256.298C327.681 256.248 327.65 256.205 327.611 256.17C327.047 254.425 326.896 252.55 327.483 251.145C328.641 248.373 332.815 248.609 335.249 248.254C336.711 248.041 337.015 247.755 338.089 248.579C339.18 249.416 339.802 250.709 340.275 251.973C340.981 253.859 342.284 256.867 341.099 258.545C341.099 258.545 333.237 264.239 328.802 265.968C326.406 265.902 323.817 264.902 323.105 262.373Z" fill="#51069D"/>
<path d="M312.231 242.922C314.24 243.028 315.792 243.562 316.971 244.699C316.986 244.711 317.003 244.72 317.018 244.731C318.3 245.816 319.299 247.196 319.928 248.752C321.247 251.773 322.171 254.951 322.679 258.208C323.366 258.005 324.052 257.797 324.738 257.584C324.801 257.565 324.87 257.54 324.934 257.519C323.937 258.494 323.102 259.676 322.978 261.011C322.84 261.056 322.7 261.103 322.566 261.143C321.951 261.325 321.332 261.492 320.713 261.653C320.667 261.58 320.626 261.504 320.581 261.43C320.128 258.307 318.62 255.237 317.51 252.351C316.601 249.987 315.618 247.488 313.809 245.65C312.647 244.439 311.093 243.679 309.423 243.505C310.13 243.183 310.895 243.011 311.672 242.998C311.755 242.948 311.847 242.915 311.943 242.902C312.039 242.889 312.137 242.896 312.231 242.922Z" fill="#672CBC"/>
<path d="M327.698 256.298C327.769 256.442 327.805 256.601 327.802 256.762C328 257.635 328.261 258.493 328.583 259.329C326.71 259.546 324.722 260.445 322.978 261.01C323.101 259.675 323.936 258.493 324.933 257.518C325.775 257.245 326.735 256.858 327.726 256.528C327.684 256.41 327.649 256.29 327.61 256.17C327.65 256.204 327.68 256.248 327.698 256.298Z" fill="#350072"/>
<path d="M314.759 286.578C313.197 283.117 311.776 279.583 309.908 276.288C308.245 273.357 305.741 267.757 301.977 267.025C301.489 266.938 300.99 266.927 300.499 266.994C301.198 266.516 301.977 266.168 302.8 265.968C305.217 265.542 306.814 266.595 311.505 274.266C313.337 277.261 315.347 281.091 317.118 284.648C316.506 285.479 315.695 286.143 314.759 286.578Z" fill="#672CBC"/>
<path d="M320.192 296.889C318.669 295.023 317.678 292.489 316.573 290.36C315.929 289.12 315.336 287.854 314.761 286.579C315.697 286.144 316.508 285.48 317.119 284.649C319.884 290.203 322.065 295.091 322.065 295.091C322.065 295.091 330.198 305.112 328.562 306.078C328.399 304.852 327.041 303.432 325.927 302.231C324.152 300.316 321.841 298.909 320.192 296.889Z" fill="#350072"/>
<path d="M301.979 267.025C305.742 267.757 308.247 273.357 309.909 276.289C311.777 279.583 313.199 283.117 314.761 286.578C312.292 287.745 309.068 287.414 306.005 286.803C302.252 282.748 298.374 278.163 296.547 274.768C295.004 271.903 297.922 268.635 300.5 266.995C300.992 266.928 301.491 266.938 301.979 267.025Z" fill="#A990FC"/>
<path d="M315.241 298.643V296.156C315.241 296.156 310.722 291.899 306.005 286.803C309.068 287.414 312.291 287.745 314.761 286.579C315.336 287.854 315.93 289.12 316.573 290.36C317.678 292.489 318.669 295.022 320.193 296.889C321.841 298.909 324.152 300.316 325.927 302.23C327.041 303.432 328.399 304.852 328.562 306.078C328.552 306.085 328.545 306.095 328.534 306.101C326.948 306.861 318.44 301.626 315.241 298.643Z" fill="#51069D"/>
<path d="M284.216 265.97C279.965 265.42 277.005 261.221 277.605 256.592C278.204 251.962 282.137 248.655 286.388 249.205C290.638 249.754 293.598 253.953 292.999 258.583C292.399 263.212 288.467 266.52 284.216 265.97Z" fill="#51069D"/>
<path d="M283.506 264.441C280.029 263.992 277.609 260.558 278.099 256.772C278.59 252.987 281.805 250.282 285.281 250.732C288.758 251.181 291.178 254.615 290.688 258.401C290.197 262.186 286.982 264.891 283.506 264.441Z" fill="white"/>
<path d="M283.327 263.05C280.556 262.692 278.627 259.955 279.018 256.938C279.409 253.921 281.972 251.766 284.742 252.124C287.512 252.482 289.441 255.219 289.05 258.236C288.66 261.253 286.097 263.408 283.327 263.05Z" fill="#FF4588"/>
<path opacity="0.41" d="M420.868 271.899C412.752 283.076 406.367 292.47 389.308 306.175C372.248 319.88 334.717 327.552 293.56 327.552C252.403 327.552 210.18 311.57 205.276 304.964C200.371 298.358 191.841 282.961 186.937 269.244C186.937 269.244 195.68 289.569 203.996 287.358C208.688 286.579 208.261 282.589 213.806 282.59C219.35 282.59 223.615 291.966 229.586 300.063C235.557 308.161 236.332 311.144 245.434 313.701C254.536 316.258 259.641 310.718 272.229 310.505C279.912 310.078 281.574 317.963 292.472 317.536C303.369 317.11 313.005 294.697 325.78 295.036C336.209 295.036 339.621 311.144 352.629 309.652C365.637 308.16 366.277 297.467 375.66 295.036C381.844 293.244 385.264 301.876 393.786 298.398C402.308 294.92 420.868 271.899 420.868 271.899Z" fill="#A990FC"/>
<path opacity="0.3" d="M299.73 147.137C221.655 147.137 158.363 137.946 158.363 126.609C158.363 115.272 221.655 106.081 299.73 106.081C377.804 106.081 441.096 115.272 441.096 126.609C441.096 137.946 377.804 147.137 299.73 147.137Z" stroke="url(#paint7_linear_674_63768)" stroke-width="2.45282" stroke-miterlimit="10"/>
<path opacity="0.3" d="M299.729 97.8746C200.456 97.8746 119.978 86.1885 119.978 71.773C119.978 57.3575 200.456 45.6714 299.729 45.6714C399.003 45.6714 479.48 57.3575 479.48 71.773C479.48 86.1885 399.003 97.8746 299.729 97.8746Z" stroke="url(#paint8_linear_674_63768)" stroke-width="3.11882" stroke-miterlimit="10"/>
</g>
<defs>
<linearGradient id="paint0_linear_674_63768" x1="415.247" y1="237.46" x2="380.371" y2="-948.776" gradientUnits="userSpaceOnUse">
<stop stop-color="#6304FF"/>
<stop offset="0.9966" stop-color="#FF0462" stop-opacity="0"/>
</linearGradient>
<linearGradient id="paint1_linear_674_63768" x1="210457" y1="419237" x2="201875" y2="-654893" gradientUnits="userSpaceOnUse">
<stop stop-color="#AE5CFF"/>
<stop offset="0.9966" stop-color="#FF0462" stop-opacity="0"/>
</linearGradient>
<linearGradient id="paint2_linear_674_63768" x1="-94972.9" y1="620818" x2="-117117" y2="-453340" gradientUnits="userSpaceOnUse">
<stop stop-color="#C892FF"/>
<stop offset="0.9966" stop-color="#FF0462" stop-opacity="0"/>
</linearGradient>
<linearGradient id="paint3_linear_674_63768" x1="-145561" y1="624970" x2="-155094" y2="-458449" gradientUnits="userSpaceOnUse">
<stop stop-color="#AE5CFF"/>
<stop offset="0.9966" stop-color="#FF0462" stop-opacity="0"/>
</linearGradient>
<linearGradient id="paint4_linear_674_63768" x1="131.768" y1="213.736" x2="147.744" y2="-116.199" gradientUnits="userSpaceOnUse">
<stop offset="0.140625" stop-color="#AE5CFF"/>
<stop offset="0.3125" stop-color="#FF0462" stop-opacity="0.370629"/>
<stop offset="0.4375" stop-color="#FF0462" stop-opacity="0"/>
</linearGradient>
<linearGradient id="paint5_linear_674_63768" x1="272.673" y1="213.736" x2="313.36" y2="-111.888" gradientUnits="userSpaceOnUse">
<stop offset="0.140625" stop-color="#AE5CFF"/>
<stop offset="0.3125" stop-color="#FF0462" stop-opacity="0.370629"/>
<stop offset="0.4375" stop-color="#FF0462" stop-opacity="0"/>
</linearGradient>
<linearGradient id="paint6_linear_674_63768" x1="421.693" y1="217.826" x2="439.419" y2="-114.543" gradientUnits="userSpaceOnUse">
<stop offset="0.140625" stop-color="#AE5CFF"/>
<stop offset="0.3125" stop-color="#FF0462" stop-opacity="0.370629"/>
<stop offset="0.4375" stop-color="#FF0462" stop-opacity="0"/>
</linearGradient>
<linearGradient id="paint7_linear_674_63768" x1="309006" y1="-4748.32" x2="309011" y2="-1054.49" gradientUnits="userSpaceOnUse">
<stop stop-color="#FF0462"/>
<stop offset="0.9966" stop-color="#FF0462" stop-opacity="0"/>
</linearGradient>
<linearGradient id="paint8_linear_674_63768" x1="393049" y1="-12509.4" x2="393056" y2="-6537.36" gradientUnits="userSpaceOnUse">
<stop stop-color="#FF0462"/>
<stop offset="0.9966" stop-color="#FF0462" stop-opacity="0"/>
</linearGradient>
<clipPath id="clip0_674_63768">
<rect width="993.687" height="607.771" fill="white" transform="matrix(-1 0 0 1 717.688 -262)"/>
</clipPath>
</defs>
</svg>
