<svg width="160" height="67" viewBox="0 0 160 67" fill="none" xmlns="http://www.w3.org/2000/svg">
<path d="M48.0014 28.337C48.5948 27.9572 49.2771 27.7819 49.9595 27.8111C50.6418 27.7819 51.3539 27.9572 51.9769 28.2786C52.6296 28.6291 53.1636 29.1258 53.5493 29.7101C53.6383 29.8561 53.8163 29.9438 53.9943 29.973H54.0833C54.2317 29.973 54.38 29.9146 54.4987 29.8269L55.8338 28.7168C56.1008 28.4831 56.1008 28.1033 55.9228 27.8696C55.2107 26.9932 54.3207 26.2628 53.2823 25.7662C52.2736 25.2987 51.1462 25.065 49.9892 25.0942C48.2981 25.0942 46.963 25.474 45.9543 26.292C44.9456 27.11 44.4116 28.3078 44.4116 29.8269C44.4116 32.2809 46.1916 33.9169 49.7518 34.7933C50.9682 35.1439 51.8286 35.5237 52.3626 35.9327C52.8373 36.3124 53.0746 36.8967 53.0153 37.481C53.045 38.0361 52.8373 38.5619 52.3923 38.9125C51.9472 39.2923 51.2649 39.4676 50.3452 39.4676C49.5145 39.4676 48.6541 39.2338 47.9421 38.8248C47.2004 38.3574 46.5477 37.7731 46.073 37.0136C45.984 36.8675 45.806 36.7507 45.628 36.7507H45.5389C45.3906 36.7507 45.2423 36.8091 45.1236 36.8967L43.7292 38.0945C43.4622 38.3282 43.4325 38.6788 43.6402 38.9125C44.4116 39.935 45.3906 40.7822 46.518 41.3665C47.6157 41.9508 48.8321 42.2721 50.1078 42.2721C51.1462 42.3013 52.1846 42.0968 53.1043 41.6586C53.935 41.308 54.6767 40.7238 55.1811 39.9642C55.6854 39.2338 55.9524 38.3574 55.9524 37.481C55.9524 35.9619 55.4481 34.7933 54.4394 33.9169C53.49 33.1281 52.1846 32.5438 50.5232 32.0764C49.3068 31.7843 48.4167 31.4337 47.9421 31.0539C47.5267 30.7326 47.2894 30.2359 47.319 29.6808C47.3487 29.1258 47.586 28.6291 48.0014 28.337Z" fill="white"/>
<path d="M67.9703 39.1448L66.7539 38.3268C66.4869 38.1515 66.1012 38.2099 65.9232 38.4436C65.6562 38.8234 65.2705 39.1156 64.8552 39.3493C64.3805 39.583 63.8761 39.6706 63.3718 39.6414C62.8081 39.6706 62.2444 39.5246 61.7994 39.2032C61.3247 38.9111 60.939 38.4436 60.7016 37.947C60.1676 36.7492 60.1676 35.3761 60.7016 34.1784C60.939 33.6817 61.3247 33.2435 61.7994 32.9514C62.2741 32.6884 62.8081 32.5131 63.3718 32.5131C64.3212 32.5131 65.1222 32.9514 65.7156 33.8278C65.8046 33.9446 65.9529 34.0615 66.1309 34.0907C66.1902 34.0907 66.2199 34.0907 66.2199 34.0907C66.3386 34.0907 66.4869 34.0323 66.6056 33.9739L67.733 33.0974C68 32.8929 68.0297 32.5131 67.822 32.2502C67.288 31.5783 66.6056 30.994 65.8639 30.5558C65.0629 30.1176 64.2025 29.9131 63.3124 29.9131C62.2444 29.9131 61.1763 30.176 60.2566 30.7311C59.3666 31.2569 58.6545 32.0165 58.1502 32.9514C57.6458 33.9154 57.3788 34.9964 57.4085 36.1065C57.3788 37.2166 57.6458 38.2976 58.1502 39.2908C58.6249 40.1965 59.3666 40.9853 60.2566 41.5111C61.1763 42.0662 62.2444 42.3291 63.3124 42.3291C64.2321 42.3291 65.1222 42.1246 66.0122 41.6864C66.8133 41.3066 67.4956 40.7516 68.0593 40.0796C68.0593 40.0796 68.089 40.0796 68.089 40.0504C68.3263 39.7291 68.267 39.3493 67.9703 39.1448Z" fill="white"/>
<path d="M80.1036 30.2637H78.5608C78.2345 30.2637 77.9378 30.5266 77.9378 30.8772V30.9356C77.7005 30.7603 77.4631 30.6142 77.2258 30.4682C76.4544 30.0884 75.6534 29.9131 74.793 29.9131C73.7546 29.9131 72.6866 30.176 71.7669 30.7311C70.9065 31.2862 70.1945 32.0457 69.6901 32.9514C68.6814 34.9379 68.6814 37.2751 69.6901 39.2617C70.1648 40.1673 70.9065 40.9561 71.7966 41.4819C72.7163 42.037 73.7546 42.2999 74.8523 42.2999C75.683 42.2999 76.5137 42.1247 77.2554 41.7157C77.4928 41.5988 77.7301 41.4527 77.9378 41.2774V41.3067C77.9378 41.628 78.2048 41.9202 78.5608 41.9202H80.1036C80.4299 41.9202 80.7266 41.6572 80.7266 41.3067V30.8772C80.7266 30.5266 80.4299 30.2637 80.1036 30.2637ZM77.5225 37.9762C77.2851 38.4729 76.8994 38.9403 76.4247 39.2324C75.9501 39.4954 75.3864 39.6707 74.8227 39.6707C74.259 39.6999 73.725 39.5538 73.2503 39.2324C72.7756 38.9403 72.3899 38.4729 72.1526 37.9762C71.8856 37.3627 71.7075 36.72 71.7372 36.0481C71.7372 35.4054 71.8559 34.7334 72.1526 34.1492C72.4196 33.6525 72.8053 33.2143 73.2503 32.9222C73.725 32.6592 74.259 32.4839 74.8227 32.4839C75.3864 32.4547 75.9501 32.6008 76.4247 32.9514C76.8994 33.2435 77.2554 33.6817 77.5225 34.1784C78.0565 35.4054 78.0565 36.7784 77.5225 37.9762Z" fill="white"/>
<path d="M84.8826 25.1504H83.3399C82.9839 25.1504 82.6872 25.4133 82.7169 25.7639V41.3058C82.7169 41.6272 82.9839 41.9193 83.3399 41.9193H84.8826C85.209 41.9193 85.5056 41.6564 85.5056 41.3058V25.7639C85.5056 25.4133 85.209 25.1504 84.8826 25.1504Z" fill="white"/>
<path d="M115.498 30.2948C115.409 30.2655 115.32 30.2363 115.231 30.2363H113.777C113.51 30.2363 113.273 30.4116 113.184 30.6745L111.077 37.1016L109.001 30.6745C108.912 30.4116 108.704 30.2363 108.407 30.2363H106.894C106.627 30.2363 106.39 30.4116 106.301 30.6745L104.135 37.1601L101.999 30.6745C101.91 30.4116 101.702 30.2363 101.405 30.2363H99.8034C99.7144 30.2363 99.5661 30.2655 99.4771 30.324C99.2101 30.47 99.0914 30.7914 99.2101 31.0543L102.711 41.4837C102.8 41.7467 103.008 41.922 103.304 41.922H104.847C105.114 41.9512 105.351 41.7759 105.44 41.513L107.606 35.2611L109.624 41.4837C109.713 41.7467 109.92 41.922 110.217 41.922H111.789C112.056 41.922 112.294 41.7467 112.383 41.4837L115.824 31.0543C115.943 30.7622 115.794 30.4408 115.498 30.2948Z" fill="white"/>
<path d="M127.395 30.2637H125.852C125.823 30.2637 125.823 30.2637 125.823 30.2637C125.496 30.2637 125.2 30.5558 125.2 30.9064V30.9648C124.962 30.7895 124.725 30.6434 124.488 30.4974C123.746 30.1176 122.915 29.9131 122.084 29.9131C121.016 29.9131 119.948 30.176 119.029 30.7311C118.168 31.2862 117.456 32.0457 116.952 32.9514C115.943 34.9379 115.943 37.2751 116.952 39.2617C117.427 40.1673 118.168 40.9561 119.058 41.4819C119.978 42.037 121.016 42.2999 122.114 42.2999C122.945 42.2999 123.775 42.1247 124.547 41.7157C124.814 41.5988 125.022 41.4527 125.229 41.2774V41.3067C125.229 41.628 125.496 41.9202 125.852 41.9202H127.395C127.721 41.9202 128.018 41.6572 128.018 41.3067V30.8772C127.988 30.5266 127.721 30.2637 127.395 30.2637ZM124.784 37.9762C124.547 38.4729 124.161 38.9403 123.686 39.2324C123.212 39.4954 122.678 39.6707 122.114 39.6707C121.55 39.6999 121.016 39.5538 120.542 39.2324C120.067 38.9403 119.681 38.4729 119.444 37.9762C119.177 37.3627 118.999 36.72 119.029 36.0481C118.999 35.4054 119.147 34.7334 119.444 34.1492C119.711 33.6525 120.097 33.2143 120.542 32.9222C121.016 32.6592 121.55 32.4839 122.114 32.4839C122.678 32.4547 123.212 32.6008 123.686 32.9514C124.161 33.2435 124.547 33.6817 124.784 34.1784C125.318 35.4054 125.318 36.7784 124.784 37.9762Z" fill="white"/>
<path d="M95.8871 30.7019C95.0267 30.176 93.9883 29.9131 92.9796 29.9131C91.9116 29.9131 90.8435 30.176 89.9535 30.7311C89.0635 31.2569 88.3514 32.0457 87.8767 32.9514C87.3724 33.9447 87.135 35.0256 87.135 36.1065C87.1054 37.2166 87.3724 38.2976 87.8767 39.2909C88.3514 40.1965 89.0931 40.9853 89.9832 41.5111C90.9029 42.037 91.9709 42.3291 93.039 42.3291C94.1367 42.3583 95.2641 42.0954 96.2431 41.5988C96.9551 41.1898 97.6078 40.6639 98.1122 40.0212C98.3495 39.7291 98.2902 39.2909 97.9935 39.0571C97.9935 39.0571 97.9638 39.0571 97.9638 39.0279L96.9255 38.2684C96.6585 38.0639 96.2431 38.1223 96.0058 38.3852C95.7387 38.7358 95.3827 39.0279 94.9971 39.2616C94.374 39.5538 93.7213 39.7291 93.039 39.6999C92.2083 39.7583 91.4072 39.4077 90.8732 38.7942C90.4282 38.2976 90.1612 37.6841 90.0425 37.0706H98.0528C98.3792 37.0706 98.6462 36.8076 98.6759 36.5155C98.7055 36.3402 98.7055 36.1065 98.7055 35.8144C98.7055 34.7919 98.4682 33.7694 97.9638 32.8637C97.4298 31.9289 96.7475 31.1985 95.8871 30.7019ZM90.1908 34.5289C90.3688 34.0615 90.6655 33.5941 91.0215 33.2435C91.5259 32.7469 92.2379 32.4547 92.9796 32.4839C93.8103 32.4839 94.4927 32.6884 94.9377 33.1267C95.3234 33.5064 95.5904 33.9739 95.7091 34.4997H90.1908V34.5289Z" fill="white"/>
<path d="M140.511 30.5276C140.392 30.3815 140.214 30.2646 140.006 30.2646H138.553C138.286 30.2646 138.078 30.4107 137.959 30.6736L134.963 38.2693L132.115 30.6444C132.026 30.4107 131.788 30.2646 131.521 30.2646H129.919C129.711 30.2646 129.504 30.3523 129.415 30.5276C129.296 30.7029 129.296 30.9074 129.355 31.1119L133.509 41.9503C133.42 42.3593 133.242 42.7099 132.886 42.9436C132.5 43.2065 131.759 43.2065 131.343 43.2357C130.987 43.2649 130.69 43.5279 130.69 43.8784V44.9009C130.69 45.2807 130.987 45.5436 131.343 45.5436C131.996 45.5436 133.034 45.6021 133.835 45.1931C135.526 44.3166 135.764 43.2357 136.238 42.0087L140.511 31.0242C140.629 30.9074 140.6 30.6736 140.511 30.5276Z" fill="white"/>
<path d="M31.8926 31.3442C31.1509 31.3442 30.5279 31.9577 30.5279 32.6881V36.0477C30.5279 36.5443 30.1422 36.9241 29.6378 36.9241H27.9468C27.2051 36.9241 26.582 37.5376 26.582 38.2972C26.582 39.0275 27.2051 39.641 27.9764 39.641H31.7146C32.575 39.5534 33.2277 38.8522 33.2573 38.005V32.7173C33.2573 31.9285 32.6343 31.3442 31.8926 31.3442Z" fill="white"/>
<path d="M27.0849 34.3246V30.9649C27.0849 30.4683 27.4706 30.0885 27.975 30.0885H29.6661C30.4078 30.0885 31.0308 29.475 31.0308 28.7154C31.0011 27.9559 30.4078 27.3716 29.6364 27.3716H25.8982C25.0378 27.4592 24.3851 28.1604 24.3555 29.0076V34.2953C24.3555 35.0257 24.9785 35.6392 25.7202 35.6392C26.4619 35.6684 27.0849 35.0549 27.0849 34.3246Z" fill="white"/>
<path d="M30.2615 22.3472H23.4972C21.1237 22.3472 19.1953 24.2461 19.1953 26.5832V36.6621C19.1953 41.0734 22.8148 44.6375 27.2947 44.6375H34.4447C36.4918 44.4623 38.1236 42.9139 38.3609 40.8981V30.2934C38.3609 25.9113 34.7414 22.3472 30.2615 22.3472ZM35.6018 40.5476C35.4831 41.2487 34.9194 41.8038 34.1777 41.8914H27.3244C24.3576 41.8914 21.9544 39.5251 21.9544 36.6037V26.7293C21.9544 25.8236 22.6961 25.0641 23.6159 25.0641H30.2615C33.2283 25.0641 35.6314 27.4304 35.6314 30.3518V40.5476H35.6018Z" fill="white"/>
</svg>
